  0
SECTION
  2
HEADER
  9
$ANGBASE
  50
0.0
  9
$ANGDIR
  70
1
  9
$MEASUREMENT
  70
0
  0
ENDSEC
  0
SECTION
  2
TABLES
  0
TABLE
  2
LTYPE
  70
4
  0
LTYPE
  5
40F
  2
CONTINUOUS
  70
0
  3
Solid line
  72
65
  73
0
  40
0.0
  0
LTYPE
  5
410
  2
DASHDOT
 70
0
  3
Dash Dot ____ _ ____ _
 72
65
 73
4
 40
2.0
 49
1.25
 49
-0.25
 49
0.25
 49
-0.25
  0
LTYPE
  5
411
  2
DASHED
 70
0
  3
Dashed __ __ __ __ __
 72
65
 73
2
 40
0.75
 49
0.5
 49
-0.25
  0
LTYPE
  5
43B
  2
DOTTED
 70
0
  3
Dotted .  .  .  .
 72
65
 73
2
 40
0.2
 49
0.0
 49
-0.2
  0
ENDTAB
  0
TABLE
  2
STYLE
  70
4
  0
STYLE
  2
KICAD
  70
0
  40
0
  41
1
  42
1
  50
0
  71
0
  3
isocp.shx
  0
STYLE
  2
KICADB
  70
0
  40
0
  41
1
  42
1
  50
0
  71
0
  3
isocp.shx
  0
STYLE
  2
KICADI
  70
0
  40
0
  41
1
  42
1
  50
15
  71
0
  3
isocp.shx
  0
STYLE
  2
KICADBI
  70
0
  40
0
  41
1
  42
1
  50
15
  71
0
  3
isocp.shx
  0
ENDTAB
  0
TABLE
  2
LAYER
  70
1
  0
LAYER
  2
BLACK
  70
0
  62
7
  6
CONTINUOUS
  0
ENDTAB
  0
ENDSEC
  0
SECTION
  2
ENTITIES
0
LINE
8
BLACK
6
CONTINUOUS
10
3.62677
20
-3.11024
11
4.40234
21
-3.10748
0
LINE
8
BLACK
6
CONTINUOUS
10
4.40234
20
-3.10748
11
4.40551
21
-2.33661
0
LINE
8
BLACK
6
CONTINUOUS
10
3.62994
20
-2.33937
11
4.40551
21
-2.33661
0
LINE
8
BLACK
6
CONTINUOUS
10
3.62677
20
-3.11024
11
3.62994
21
-2.33937
0
LINE
8
BLACK
6
CONTINUOUS
10
3.67126
20
-3.07087
11
3.68701
21
-3.08661
0
LINE
8
BLACK
6
CONTINUOUS
10
3.68701
20
-3.07087
11
3.67126
21
-3.08661
0
LINE
8
BLACK
6
CONTINUOUS
10
3.73228
20
-3.07087
11
3.74803
21
-3.08661
0
LINE
8
BLACK
6
CONTINUOUS
10
3.74803
20
-3.07087
11
3.73228
21
-3.08661
0
LINE
8
BLACK
6
CONTINUOUS
10
3.79134
20
-3.07087
11
3.80709
21
-3.08661
0
LINE
8
BLACK
6
CONTINUOUS
10
3.80709
20
-3.07087
11
3.79134
21
-3.08661
0
LINE
8
BLACK
6
CONTINUOUS
10
3.82283
20
-2.37402
11
3.83858
21
-2.38976
0
LINE
8
BLACK
6
CONTINUOUS
10
3.83858
20
-2.37402
11
3.82283
21
-2.38976
0
LINE
8
BLACK
6
CONTINUOUS
10
3.84213
20
-2.73213
11
3.85787
21
-2.74787
0
LINE
8
BLACK
6
CONTINUOUS
10
3.85787
20
-2.73213
11
3.84213
21
-2.74787
0
LINE
8
BLACK
6
CONTINUOUS
10
3.84213
20
-2.79213
11
3.85787
21
-2.80787
0
LINE
8
BLACK
6
CONTINUOUS
10
3.85787
20
-2.79213
11
3.84213
21
-2.80787
0
LINE
8
BLACK
6
CONTINUOUS
10
3.85213
20
-2.84213
11
3.86787
21
-2.85787
0
LINE
8
BLACK
6
CONTINUOUS
10
3.86787
20
-2.84213
11
3.85213
21
-2.85787
0
LINE
8
BLACK
6
CONTINUOUS
10
3.85213
20
-3.02213
11
3.86787
21
-3.03787
0
LINE
8
BLACK
6
CONTINUOUS
10
3.86787
20
-3.02213
11
3.85213
21
-3.03787
0
LINE
8
BLACK
6
CONTINUOUS
10
3.85433
20
-3.07087
11
3.87008
21
-3.08661
0
LINE
8
BLACK
6
CONTINUOUS
10
3.87008
20
-3.07087
11
3.85433
21
-3.08661
0
LINE
8
BLACK
6
CONTINUOUS
10
3.88189
20
-2.37402
11
3.89764
21
-2.38976
0
LINE
8
BLACK
6
CONTINUOUS
10
3.89764
20
-2.37402
11
3.88189
21
-2.38976
0
LINE
8
BLACK
6
CONTINUOUS
10
3.92441
20
-2.80787
11
3.94016
21
-2.82362
0
LINE
8
BLACK
6
CONTINUOUS
10
3.94016
20
-2.80787
11
3.92441
21
-2.82362
0
LINE
8
BLACK
6
CONTINUOUS
10
3.93701
20
-2.37402
11
3.95276
21
-2.38976
0
LINE
8
BLACK
6
CONTINUOUS
10
3.95276
20
-2.37402
11
3.93701
21
-2.38976
0
LINE
8
BLACK
6
CONTINUOUS
10
3.95079
20
-3.04724
11
3.96654
21
-3.06299
0
LINE
8
BLACK
6
CONTINUOUS
10
3.96654
20
-3.04724
11
3.95079
21
-3.06299
0
LINE
8
BLACK
6
CONTINUOUS
10
4.00984
20
-2.56693
11
4.02559
21
-2.58268
0
LINE
8
BLACK
6
CONTINUOUS
10
4.02559
20
-2.56693
11
4.00984
21
-2.58268
0
LINE
8
BLACK
6
CONTINUOUS
10
4.0126
20
-2.65
11
4.02835
21
-2.66575
0
LINE
8
BLACK
6
CONTINUOUS
10
4.02835
20
-2.65
11
4.0126
21
-2.66575
0
LINE
8
BLACK
6
CONTINUOUS
10
4.02213
20
-2.92756
11
4.03787
21
-2.94331
0
LINE
8
BLACK
6
CONTINUOUS
10
4.03787
20
-2.92756
11
4.02213
21
-2.94331
0
LINE
8
BLACK
6
CONTINUOUS
10
4.0374
20
-2.85984
11
4.05315
21
-2.87559
0
LINE
8
BLACK
6
CONTINUOUS
10
4.05315
20
-2.85984
11
4.0374
21
-2.87559
0
LINE
8
BLACK
6
CONTINUOUS
10
4.05512
20
-2.69291
11
4.07087
21
-2.70866
0
LINE
8
BLACK
6
CONTINUOUS
10
4.07087
20
-2.69291
11
4.05512
21
-2.70866
0
LINE
8
BLACK
6
CONTINUOUS
10
4.08858
20
-3.04724
11
4.10433
21
-3.06299
0
LINE
8
BLACK
6
CONTINUOUS
10
4.10433
20
-3.04724
11
4.08858
21
-3.06299
0
LINE
8
BLACK
6
CONTINUOUS
10
4.09764
20
-2.74252
11
4.11339
21
-2.75827
0
LINE
8
BLACK
6
CONTINUOUS
10
4.11339
20
-2.74252
11
4.09764
21
-2.75827
0
LINE
8
BLACK
6
CONTINUOUS
10
4.11102
20
-2.57953
11
4.12677
21
-2.59528
0
LINE
8
BLACK
6
CONTINUOUS
10
4.12677
20
-2.57953
11
4.11102
21
-2.59528
0
LINE
8
BLACK
6
CONTINUOUS
10
4.12205
20
-2.69291
11
4.1378
21
-2.70866
0
LINE
8
BLACK
6
CONTINUOUS
10
4.1378
20
-2.69291
11
4.12205
21
-2.70866
0
LINE
8
BLACK
6
CONTINUOUS
10
4.12992
20
-2.37992
11
4.14567
21
-2.39567
0
LINE
8
BLACK
6
CONTINUOUS
10
4.14567
20
-2.37992
11
4.12992
21
-2.39567
0
LINE
8
BLACK
6
CONTINUOUS
10
4.15709
20
-2.8685
11
4.17283
21
-2.88425
0
LINE
8
BLACK
6
CONTINUOUS
10
4.17283
20
-2.8685
11
4.15709
21
-2.88425
0
LINE
8
BLACK
6
CONTINUOUS
10
4.1685
20
-2.99094
11
4.18425
21
-3.00669
0
LINE
8
BLACK
6
CONTINUOUS
10
4.18425
20
-2.99094
11
4.1685
21
-3.00669
0
LINE
8
BLACK
6
CONTINUOUS
10
4.19646
20
-2.54921
11
4.2122
21
-2.56496
0
LINE
8
BLACK
6
CONTINUOUS
10
4.2122
20
-2.54921
11
4.19646
21
-2.56496
0
LINE
8
BLACK
6
CONTINUOUS
10
4.22047
20
-2.8685
11
4.23622
21
-2.88425
0
LINE
8
BLACK
6
CONTINUOUS
10
4.23622
20
-2.8685
11
4.22047
21
-2.88425
0
LINE
8
BLACK
6
CONTINUOUS
10
4.26969
20
-2.80472
11
4.28543
21
-2.82047
0
LINE
8
BLACK
6
CONTINUOUS
10
4.28543
20
-2.80472
11
4.26969
21
-2.82047
0
LINE
8
BLACK
6
CONTINUOUS
10
4.27402
20
-2.47047
11
4.28976
21
-2.48622
0
LINE
8
BLACK
6
CONTINUOUS
10
4.28976
20
-2.47047
11
4.27402
21
-2.48622
0
LINE
8
BLACK
6
CONTINUOUS
10
4.3311
20
-3.01772
11
4.34685
21
-3.03346
0
LINE
8
BLACK
6
CONTINUOUS
10
4.34685
20
-3.01772
11
4.3311
21
-3.03346
0
LINE
8
BLACK
6
CONTINUOUS
10
4.34055
20
-2.35039
11
4.3563
21
-2.36614
0
LINE
8
BLACK
6
CONTINUOUS
10
4.3563
20
-2.35039
11
4.34055
21
-2.36614
0
LINE
8
BLACK
6
CONTINUOUS
10
4.34252
20
-2.94291
11
4.35827
21
-2.95866
0
LINE
8
BLACK
6
CONTINUOUS
10
4.35827
20
-2.94291
11
4.34252
21
-2.95866
0
LINE
8
BLACK
6
CONTINUOUS
10
4.34449
20
-3.07283
11
4.36024
21
-3.08858
0
LINE
8
BLACK
6
CONTINUOUS
10
4.36024
20
-3.07283
11
4.34449
21
-3.08858
0
LINE
8
BLACK
6
CONTINUOUS
10
4.37008
20
-2.82087
11
4.38583
21
-2.83661
0
LINE
8
BLACK
6
CONTINUOUS
10
4.38583
20
-2.82087
11
4.37008
21
-2.83661
0
LINE
8
BLACK
6
CONTINUOUS
10
4.37213
20
-2.99213
11
4.38787
21
-3.00787
0
LINE
8
BLACK
6
CONTINUOUS
10
4.38787
20
-2.99213
11
4.37213
21
-3.00787
0
LINE
8
BLACK
6
CONTINUOUS
10
4.37598
20
-2.41339
11
4.39173
21
-2.42913
0
LINE
8
BLACK
6
CONTINUOUS
10
4.39173
20
-2.41339
11
4.37598
21
-2.42913
0
LINE
8
BLACK
6
CONTINUOUS
10
4.37598
20
-2.49409
11
4.39173
21
-2.50984
0
LINE
8
BLACK
6
CONTINUOUS
10
4.39173
20
-2.49409
11
4.37598
21
-2.50984
0
LINE
8
BLACK
6
CONTINUOUS
10
4.37598
20
-2.56496
11
4.39173
21
-2.58071
0
LINE
8
BLACK
6
CONTINUOUS
10
4.39173
20
-2.56496
11
4.37598
21
-2.58071
0
LINE
8
BLACK
6
CONTINUOUS
10
4.37598
20
-2.63386
11
4.39173
21
-2.64961
0
LINE
8
BLACK
6
CONTINUOUS
10
4.39173
20
-2.63386
11
4.37598
21
-2.64961
0
CIRCLE
8
BLACK
10
4.11732
20
-2.54134
40
0.00885827
0
LINE
8
BLACK
6
CONTINUOUS
10
3.72623
20
-3.23444
11
3.72623
21
-3.1557
0
LINE
8
BLACK
6
CONTINUOUS
10
3.72623
20
-3.1557
11
3.74498
21
-3.1557
0
LINE
8
BLACK
6
CONTINUOUS
10
3.74498
20
-3.1557
11
3.75622
21
-3.15945
0
LINE
8
BLACK
6
CONTINUOUS
10
3.75622
20
-3.15945
11
3.76372
21
-3.16695
0
LINE
8
BLACK
6
CONTINUOUS
10
3.76372
20
-3.16695
11
3.76747
21
-3.17445
0
LINE
8
BLACK
6
CONTINUOUS
10
3.76747
20
-3.17445
11
3.77122
21
-3.18945
0
LINE
8
BLACK
6
CONTINUOUS
10
3.77122
20
-3.18945
11
3.77122
21
-3.20069
0
LINE
8
BLACK
6
CONTINUOUS
10
3.77122
20
-3.20069
11
3.76747
21
-3.21569
0
LINE
8
BLACK
6
CONTINUOUS
10
3.76747
20
-3.21569
11
3.76372
21
-3.22319
0
LINE
8
BLACK
6
CONTINUOUS
10
3.76372
20
-3.22319
11
3.75622
21
-3.23069
0
LINE
8
BLACK
6
CONTINUOUS
10
3.75622
20
-3.23069
11
3.74498
21
-3.23444
0
LINE
8
BLACK
6
CONTINUOUS
10
3.74498
20
-3.23444
11
3.72623
21
-3.23444
0
LINE
8
BLACK
6
CONTINUOUS
10
3.80497
20
-3.23444
11
3.80497
21
-3.18195
0
LINE
8
BLACK
6
CONTINUOUS
10
3.80497
20
-3.19694
11
3.80872
21
-3.18945
0
LINE
8
BLACK
6
CONTINUOUS
10
3.80872
20
-3.18945
11
3.81247
21
-3.1857
0
LINE
8
BLACK
6
CONTINUOUS
10
3.81247
20
-3.1857
11
3.81997
21
-3.18195
0
LINE
8
BLACK
6
CONTINUOUS
10
3.81997
20
-3.18195
11
3.82747
21
-3.18195
0
LINE
8
BLACK
6
CONTINUOUS
10
3.85371
20
-3.23444
11
3.85371
21
-3.18195
0
LINE
8
BLACK
6
CONTINUOUS
10
3.85371
20
-3.1557
11
3.84996
21
-3.15945
0
LINE
8
BLACK
6
CONTINUOUS
10
3.84996
20
-3.15945
11
3.85371
21
-3.1632
0
LINE
8
BLACK
6
CONTINUOUS
10
3.85371
20
-3.1632
11
3.85746
21
-3.15945
0
LINE
8
BLACK
6
CONTINUOUS
10
3.85746
20
-3.15945
11
3.85371
21
-3.1557
0
LINE
8
BLACK
6
CONTINUOUS
10
3.85371
20
-3.1557
11
3.85371
21
-3.1632
0
LINE
8
BLACK
6
CONTINUOUS
10
3.90246
20
-3.23444
11
3.89496
21
-3.23069
0
LINE
8
BLACK
6
CONTINUOUS
10
3.89496
20
-3.23069
11
3.89121
21
-3.22319
0
LINE
8
BLACK
6
CONTINUOUS
10
3.89121
20
-3.22319
11
3.89121
21
-3.1557
0
LINE
8
BLACK
6
CONTINUOUS
10
3.9437
20
-3.23444
11
3.9362
21
-3.23069
0
LINE
8
BLACK
6
CONTINUOUS
10
3.9362
20
-3.23069
11
3.93245
21
-3.22319
0
LINE
8
BLACK
6
CONTINUOUS
10
3.93245
20
-3.22319
11
3.93245
21
-3.1557
0
LINE
8
BLACK
6
CONTINUOUS
10
4.03369
20
-3.23444
11
4.03369
21
-3.1557
0
LINE
8
BLACK
6
CONTINUOUS
10
4.03369
20
-3.1557
11
4.05994
21
-3.21194
0
LINE
8
BLACK
6
CONTINUOUS
10
4.05994
20
-3.21194
11
4.08618
21
-3.1557
0
LINE
8
BLACK
6
CONTINUOUS
10
4.08618
20
-3.1557
11
4.08618
21
-3.23444
0
LINE
8
BLACK
6
CONTINUOUS
10
4.15742
20
-3.23444
11
4.15742
21
-3.19319
0
LINE
8
BLACK
6
CONTINUOUS
10
4.15742
20
-3.19319
11
4.15367
21
-3.1857
0
LINE
8
BLACK
6
CONTINUOUS
10
4.15367
20
-3.1857
11
4.14618
21
-3.18195
0
LINE
8
BLACK
6
CONTINUOUS
10
4.14618
20
-3.18195
11
4.13118
21
-3.18195
0
LINE
8
BLACK
6
CONTINUOUS
10
4.13118
20
-3.18195
11
4.12368
21
-3.1857
0
LINE
8
BLACK
6
CONTINUOUS
10
4.15742
20
-3.23069
11
4.14992
21
-3.23444
0
LINE
8
BLACK
6
CONTINUOUS
10
4.14992
20
-3.23444
11
4.13118
21
-3.23444
0
LINE
8
BLACK
6
CONTINUOUS
10
4.13118
20
-3.23444
11
4.12368
21
-3.23069
0
LINE
8
BLACK
6
CONTINUOUS
10
4.12368
20
-3.23069
11
4.11993
21
-3.22319
0
LINE
8
BLACK
6
CONTINUOUS
10
4.11993
20
-3.22319
11
4.11993
21
-3.21569
0
LINE
8
BLACK
6
CONTINUOUS
10
4.11993
20
-3.21569
11
4.12368
21
-3.20819
0
LINE
8
BLACK
6
CONTINUOUS
10
4.12368
20
-3.20819
11
4.13118
21
-3.20444
0
LINE
8
BLACK
6
CONTINUOUS
10
4.13118
20
-3.20444
11
4.14992
21
-3.20444
0
LINE
8
BLACK
6
CONTINUOUS
10
4.14992
20
-3.20444
11
4.15742
21
-3.20069
0
LINE
8
BLACK
6
CONTINUOUS
10
4.19492
20
-3.18195
11
4.19492
21
-3.26069
0
LINE
8
BLACK
6
CONTINUOUS
10
4.19492
20
-3.1857
11
4.20242
21
-3.18195
0
LINE
8
BLACK
6
CONTINUOUS
10
4.20242
20
-3.18195
11
4.21742
21
-3.18195
0
LINE
8
BLACK
6
CONTINUOUS
10
4.21742
20
-3.18195
11
4.22492
21
-3.1857
0
LINE
8
BLACK
6
CONTINUOUS
10
4.22492
20
-3.1857
11
4.22867
21
-3.18945
0
LINE
8
BLACK
6
CONTINUOUS
10
4.22867
20
-3.18945
11
4.23241
21
-3.19694
0
LINE
8
BLACK
6
CONTINUOUS
10
4.23241
20
-3.19694
11
4.23241
21
-3.21944
0
LINE
8
BLACK
6
CONTINUOUS
10
4.23241
20
-3.21944
11
4.22867
21
-3.22694
0
LINE
8
BLACK
6
CONTINUOUS
10
4.22867
20
-3.22694
11
4.22492
21
-3.23069
0
LINE
8
BLACK
6
CONTINUOUS
10
4.22492
20
-3.23069
11
4.21742
21
-3.23444
0
LINE
8
BLACK
6
CONTINUOUS
10
4.21742
20
-3.23444
11
4.20242
21
-3.23444
0
LINE
8
BLACK
6
CONTINUOUS
10
4.20242
20
-3.23444
11
4.19492
21
-3.23069
0
LINE
8
BLACK
6
CONTINUOUS
10
4.26616
20
-3.22694
11
4.26991
21
-3.23069
0
LINE
8
BLACK
6
CONTINUOUS
10
4.26991
20
-3.23069
11
4.26616
21
-3.23444
0
LINE
8
BLACK
6
CONTINUOUS
10
4.26616
20
-3.23444
11
4.26241
21
-3.23069
0
LINE
8
BLACK
6
CONTINUOUS
10
4.26241
20
-3.23069
11
4.26616
21
-3.22694
0
LINE
8
BLACK
6
CONTINUOUS
10
4.26616
20
-3.22694
11
4.26616
21
-3.23444
0
LINE
8
BLACK
6
CONTINUOUS
10
4.26616
20
-3.1857
11
4.26991
21
-3.18945
0
LINE
8
BLACK
6
CONTINUOUS
10
4.26991
20
-3.18945
11
4.26616
21
-3.19319
0
LINE
8
BLACK
6
CONTINUOUS
10
4.26616
20
-3.19319
11
4.26241
21
-3.18945
0
LINE
8
BLACK
6
CONTINUOUS
10
4.26241
20
-3.18945
11
4.26616
21
-3.1857
0
LINE
8
BLACK
6
CONTINUOUS
10
4.26616
20
-3.1857
11
4.26616
21
-3.19319
0
LINE
8
BLACK
6
CONTINUOUS
10
3.60906
20
-3.3563
11
3.6248
21
-3.37205
0
LINE
8
BLACK
6
CONTINUOUS
10
3.6248
20
-3.3563
11
3.60906
21
-3.37205
0
LINE
8
BLACK
6
CONTINUOUS
10
3.74123
20
-3.32105
11
3.74873
21
-3.32105
0
LINE
8
BLACK
6
CONTINUOUS
10
3.74873
20
-3.32105
11
3.75622
21
-3.3248
0
LINE
8
BLACK
6
CONTINUOUS
10
3.75622
20
-3.3248
11
3.75997
21
-3.32855
0
LINE
8
BLACK
6
CONTINUOUS
10
3.75997
20
-3.32855
11
3.76372
21
-3.33605
0
LINE
8
BLACK
6
CONTINUOUS
10
3.76372
20
-3.33605
11
3.76747
21
-3.35105
0
LINE
8
BLACK
6
CONTINUOUS
10
3.76747
20
-3.35105
11
3.76747
21
-3.3698
0
LINE
8
BLACK
6
CONTINUOUS
10
3.76747
20
-3.3698
11
3.76372
21
-3.3848
0
LINE
8
BLACK
6
CONTINUOUS
10
3.76372
20
-3.3848
11
3.75997
21
-3.39229
0
LINE
8
BLACK
6
CONTINUOUS
10
3.75997
20
-3.39229
11
3.75622
21
-3.39604
0
LINE
8
BLACK
6
CONTINUOUS
10
3.75622
20
-3.39604
11
3.74873
21
-3.39979
0
LINE
8
BLACK
6
CONTINUOUS
10
3.74873
20
-3.39979
11
3.74123
21
-3.39979
0
LINE
8
BLACK
6
CONTINUOUS
10
3.74123
20
-3.39979
11
3.73373
21
-3.39604
0
LINE
8
BLACK
6
CONTINUOUS
10
3.73373
20
-3.39604
11
3.72998
21
-3.39229
0
LINE
8
BLACK
6
CONTINUOUS
10
3.72998
20
-3.39229
11
3.72623
21
-3.3848
0
LINE
8
BLACK
6
CONTINUOUS
10
3.72623
20
-3.3848
11
3.72248
21
-3.3698
0
LINE
8
BLACK
6
CONTINUOUS
10
3.72248
20
-3.3698
11
3.72248
21
-3.35105
0
LINE
8
BLACK
6
CONTINUOUS
10
3.72248
20
-3.35105
11
3.72623
21
-3.33605
0
LINE
8
BLACK
6
CONTINUOUS
10
3.72623
20
-3.33605
11
3.72998
21
-3.32855
0
LINE
8
BLACK
6
CONTINUOUS
10
3.72998
20
-3.32855
11
3.73373
21
-3.3248
0
LINE
8
BLACK
6
CONTINUOUS
10
3.73373
20
-3.3248
11
3.74123
21
-3.32105
0
LINE
8
BLACK
6
CONTINUOUS
10
3.80122
20
-3.39229
11
3.80497
21
-3.39604
0
LINE
8
BLACK
6
CONTINUOUS
10
3.80497
20
-3.39604
11
3.80122
21
-3.39979
0
LINE
8
BLACK
6
CONTINUOUS
10
3.80122
20
-3.39979
11
3.79747
21
-3.39604
0
LINE
8
BLACK
6
CONTINUOUS
10
3.79747
20
-3.39604
11
3.80122
21
-3.39229
0
LINE
8
BLACK
6
CONTINUOUS
10
3.80122
20
-3.39229
11
3.80122
21
-3.39979
0
LINE
8
BLACK
6
CONTINUOUS
10
3.87246
20
-3.3473
11
3.87246
21
-3.39979
0
LINE
8
BLACK
6
CONTINUOUS
10
3.85371
20
-3.3173
11
3.83496
21
-3.37355
0
LINE
8
BLACK
6
CONTINUOUS
10
3.83496
20
-3.37355
11
3.88371
21
-3.37355
0
LINE
8
BLACK
6
CONTINUOUS
10
3.9287
20
-3.32105
11
3.9362
21
-3.32105
0
LINE
8
BLACK
6
CONTINUOUS
10
3.9362
20
-3.32105
11
3.9437
21
-3.3248
0
LINE
8
BLACK
6
CONTINUOUS
10
3.9437
20
-3.3248
11
3.94745
21
-3.32855
0
LINE
8
BLACK
6
CONTINUOUS
10
3.94745
20
-3.32855
11
3.9512
21
-3.33605
0
LINE
8
BLACK
6
CONTINUOUS
10
3.9512
20
-3.33605
11
3.95495
21
-3.35105
0
LINE
8
BLACK
6
CONTINUOUS
10
3.95495
20
-3.35105
11
3.95495
21
-3.3698
0
LINE
8
BLACK
6
CONTINUOUS
10
3.95495
20
-3.3698
11
3.9512
21
-3.3848
0
LINE
8
BLACK
6
CONTINUOUS
10
3.9512
20
-3.3848
11
3.94745
21
-3.39229
0
LINE
8
BLACK
6
CONTINUOUS
10
3.94745
20
-3.39229
11
3.9437
21
-3.39604
0
LINE
8
BLACK
6
CONTINUOUS
10
3.9437
20
-3.39604
11
3.9362
21
-3.39979
0
LINE
8
BLACK
6
CONTINUOUS
10
3.9362
20
-3.39979
11
3.9287
21
-3.39979
0
LINE
8
BLACK
6
CONTINUOUS
10
3.9287
20
-3.39979
11
3.9212
21
-3.39604
0
LINE
8
BLACK
6
CONTINUOUS
10
3.9212
20
-3.39604
11
3.91745
21
-3.39229
0
LINE
8
BLACK
6
CONTINUOUS
10
3.91745
20
-3.39229
11
3.9137
21
-3.3848
0
LINE
8
BLACK
6
CONTINUOUS
10
3.9137
20
-3.3848
11
3.90996
21
-3.3698
0
LINE
8
BLACK
6
CONTINUOUS
10
3.90996
20
-3.3698
11
3.90996
21
-3.35105
0
LINE
8
BLACK
6
CONTINUOUS
10
3.90996
20
-3.35105
11
3.9137
21
-3.33605
0
LINE
8
BLACK
6
CONTINUOUS
10
3.9137
20
-3.33605
11
3.91745
21
-3.32855
0
LINE
8
BLACK
6
CONTINUOUS
10
3.91745
20
-3.32855
11
3.9212
21
-3.3248
0
LINE
8
BLACK
6
CONTINUOUS
10
3.9212
20
-3.3248
11
3.9287
21
-3.32105
0
LINE
8
BLACK
6
CONTINUOUS
10
4.00369
20
-3.32105
11
4.01119
21
-3.32105
0
LINE
8
BLACK
6
CONTINUOUS
10
4.01119
20
-3.32105
11
4.01869
21
-3.3248
0
LINE
8
BLACK
6
CONTINUOUS
10
4.01869
20
-3.3248
11
4.02244
21
-3.32855
0
LINE
8
BLACK
6
CONTINUOUS
10
4.02244
20
-3.32855
11
4.02619
21
-3.33605
0
LINE
8
BLACK
6
CONTINUOUS
10
4.02619
20
-3.33605
11
4.02994
21
-3.35105
0
LINE
8
BLACK
6
CONTINUOUS
10
4.02994
20
-3.35105
11
4.02994
21
-3.3698
0
LINE
8
BLACK
6
CONTINUOUS
10
4.02994
20
-3.3698
11
4.02619
21
-3.3848
0
LINE
8
BLACK
6
CONTINUOUS
10
4.02619
20
-3.3848
11
4.02244
21
-3.39229
0
LINE
8
BLACK
6
CONTINUOUS
10
4.02244
20
-3.39229
11
4.01869
21
-3.39604
0
LINE
8
BLACK
6
CONTINUOUS
10
4.01869
20
-3.39604
11
4.01119
21
-3.39979
0
LINE
8
BLACK
6
CONTINUOUS
10
4.01119
20
-3.39979
11
4.00369
21
-3.39979
0
LINE
8
BLACK
6
CONTINUOUS
10
4.00369
20
-3.39979
11
3.99619
21
-3.39604
0
LINE
8
BLACK
6
CONTINUOUS
10
3.99619
20
-3.39604
11
3.99244
21
-3.39229
0
LINE
8
BLACK
6
CONTINUOUS
10
3.99244
20
-3.39229
11
3.9887
21
-3.3848
0
LINE
8
BLACK
6
CONTINUOUS
10
3.9887
20
-3.3848
11
3.98495
21
-3.3698
0
LINE
8
BLACK
6
CONTINUOUS
10
3.98495
20
-3.3698
11
3.98495
21
-3.35105
0
LINE
8
BLACK
6
CONTINUOUS
10
3.98495
20
-3.35105
11
3.9887
21
-3.33605
0
LINE
8
BLACK
6
CONTINUOUS
10
3.9887
20
-3.33605
11
3.99244
21
-3.32855
0
LINE
8
BLACK
6
CONTINUOUS
10
3.99244
20
-3.32855
11
3.99619
21
-3.3248
0
LINE
8
BLACK
6
CONTINUOUS
10
3.99619
20
-3.3248
11
4.00369
21
-3.32105
0
LINE
8
BLACK
6
CONTINUOUS
10
4.06369
20
-3.39979
11
4.06369
21
-3.3473
0
LINE
8
BLACK
6
CONTINUOUS
10
4.06369
20
-3.3548
11
4.06744
21
-3.35105
0
LINE
8
BLACK
6
CONTINUOUS
10
4.06744
20
-3.35105
11
4.07493
21
-3.3473
0
LINE
8
BLACK
6
CONTINUOUS
10
4.07493
20
-3.3473
11
4.08618
21
-3.3473
0
LINE
8
BLACK
6
CONTINUOUS
10
4.08618
20
-3.3473
11
4.09368
21
-3.35105
0
LINE
8
BLACK
6
CONTINUOUS
10
4.09368
20
-3.35105
11
4.09743
21
-3.35855
0
LINE
8
BLACK
6
CONTINUOUS
10
4.09743
20
-3.35855
11
4.09743
21
-3.39979
0
LINE
8
BLACK
6
CONTINUOUS
10
4.09743
20
-3.35855
11
4.10118
21
-3.35105
0
LINE
8
BLACK
6
CONTINUOUS
10
4.10118
20
-3.35105
11
4.10868
21
-3.3473
0
LINE
8
BLACK
6
CONTINUOUS
10
4.10868
20
-3.3473
11
4.11993
21
-3.3473
0
LINE
8
BLACK
6
CONTINUOUS
10
4.11993
20
-3.3473
11
4.12743
21
-3.35105
0
LINE
8
BLACK
6
CONTINUOUS
10
4.12743
20
-3.35105
11
4.13118
21
-3.35855
0
LINE
8
BLACK
6
CONTINUOUS
10
4.13118
20
-3.35855
11
4.13118
21
-3.39979
0
LINE
8
BLACK
6
CONTINUOUS
10
4.16867
20
-3.39979
11
4.16867
21
-3.3473
0
LINE
8
BLACK
6
CONTINUOUS
10
4.16867
20
-3.3548
11
4.17242
21
-3.35105
0
LINE
8
BLACK
6
CONTINUOUS
10
4.17242
20
-3.35105
11
4.17992
21
-3.3473
0
LINE
8
BLACK
6
CONTINUOUS
10
4.17992
20
-3.3473
11
4.19117
21
-3.3473
0
LINE
8
BLACK
6
CONTINUOUS
10
4.19117
20
-3.3473
11
4.19867
21
-3.35105
0
LINE
8
BLACK
6
CONTINUOUS
10
4.19867
20
-3.35105
11
4.20242
21
-3.35855
0
LINE
8
BLACK
6
CONTINUOUS
10
4.20242
20
-3.35855
11
4.20242
21
-3.39979
0
LINE
8
BLACK
6
CONTINUOUS
10
4.20242
20
-3.35855
11
4.20617
21
-3.35105
0
LINE
8
BLACK
6
CONTINUOUS
10
4.20617
20
-3.35105
11
4.21367
21
-3.3473
0
LINE
8
BLACK
6
CONTINUOUS
10
4.21367
20
-3.3473
11
4.22492
21
-3.3473
0
LINE
8
BLACK
6
CONTINUOUS
10
4.22492
20
-3.3473
11
4.23241
21
-3.35105
0
LINE
8
BLACK
6
CONTINUOUS
10
4.23241
20
-3.35105
11
4.23616
21
-3.35855
0
LINE
8
BLACK
6
CONTINUOUS
10
4.23616
20
-3.35855
11
4.23616
21
-3.39979
0
LINE
8
BLACK
6
CONTINUOUS
10
4.3899
20
-3.3173
11
4.3224
21
-3.41854
0
LINE
8
BLACK
6
CONTINUOUS
10
4.49113
20
-3.32105
11
4.49863
21
-3.32105
0
LINE
8
BLACK
6
CONTINUOUS
10
4.49863
20
-3.32105
11
4.50613
21
-3.3248
0
LINE
8
BLACK
6
CONTINUOUS
10
4.50613
20
-3.3248
11
4.50988
21
-3.32855
0
LINE
8
BLACK
6
CONTINUOUS
10
4.50988
20
-3.32855
11
4.51363
21
-3.33605
0
LINE
8
BLACK
6
CONTINUOUS
10
4.51363
20
-3.33605
11
4.51738
21
-3.35105
0
LINE
8
BLACK
6
CONTINUOUS
10
4.51738
20
-3.35105
11
4.51738
21
-3.3698
0
LINE
8
BLACK
6
CONTINUOUS
10
4.51738
20
-3.3698
11
4.51363
21
-3.3848
0
LINE
8
BLACK
6
CONTINUOUS
10
4.51363
20
-3.3848
11
4.50988
21
-3.39229
0
LINE
8
BLACK
6
CONTINUOUS
10
4.50988
20
-3.39229
11
4.50613
21
-3.39604
0
LINE
8
BLACK
6
CONTINUOUS
10
4.50613
20
-3.39604
11
4.49863
21
-3.39979
0
LINE
8
BLACK
6
CONTINUOUS
10
4.49863
20
-3.39979
11
4.49113
21
-3.39979
0
LINE
8
BLACK
6
CONTINUOUS
10
4.49113
20
-3.39979
11
4.48363
21
-3.39604
0
LINE
8
BLACK
6
CONTINUOUS
10
4.48363
20
-3.39604
11
4.47988
21
-3.39229
0
LINE
8
BLACK
6
CONTINUOUS
10
4.47988
20
-3.39229
11
4.47613
21
-3.3848
0
LINE
8
BLACK
6
CONTINUOUS
10
4.47613
20
-3.3848
11
4.47238
21
-3.3698
0
LINE
8
BLACK
6
CONTINUOUS
10
4.47238
20
-3.3698
11
4.47238
21
-3.35105
0
LINE
8
BLACK
6
CONTINUOUS
10
4.47238
20
-3.35105
11
4.47613
21
-3.33605
0
LINE
8
BLACK
6
CONTINUOUS
10
4.47613
20
-3.33605
11
4.47988
21
-3.32855
0
LINE
8
BLACK
6
CONTINUOUS
10
4.47988
20
-3.32855
11
4.48363
21
-3.3248
0
LINE
8
BLACK
6
CONTINUOUS
10
4.48363
20
-3.3248
11
4.49113
21
-3.32105
0
LINE
8
BLACK
6
CONTINUOUS
10
4.55112
20
-3.39229
11
4.55487
21
-3.39604
0
LINE
8
BLACK
6
CONTINUOUS
10
4.55487
20
-3.39604
11
4.55112
21
-3.39979
0
LINE
8
BLACK
6
CONTINUOUS
10
4.55112
20
-3.39979
11
4.54738
21
-3.39604
0
LINE
8
BLACK
6
CONTINUOUS
10
4.54738
20
-3.39604
11
4.55112
21
-3.39229
0
LINE
8
BLACK
6
CONTINUOUS
10
4.55112
20
-3.39229
11
4.55112
21
-3.39979
0
LINE
8
BLACK
6
CONTINUOUS
10
4.60362
20
-3.32105
11
4.61112
21
-3.32105
0
LINE
8
BLACK
6
CONTINUOUS
10
4.61112
20
-3.32105
11
4.61862
21
-3.3248
0
LINE
8
BLACK
6
CONTINUOUS
10
4.61862
20
-3.3248
11
4.62237
21
-3.32855
0
LINE
8
BLACK
6
CONTINUOUS
10
4.62237
20
-3.32855
11
4.62612
21
-3.33605
0
LINE
8
BLACK
6
CONTINUOUS
10
4.62612
20
-3.33605
11
4.62986
21
-3.35105
0
LINE
8
BLACK
6
CONTINUOUS
10
4.62986
20
-3.35105
11
4.62986
21
-3.3698
0
LINE
8
BLACK
6
CONTINUOUS
10
4.62986
20
-3.3698
11
4.62612
21
-3.3848
0
LINE
8
BLACK
6
CONTINUOUS
10
4.62612
20
-3.3848
11
4.62237
21
-3.39229
0
LINE
8
BLACK
6
CONTINUOUS
10
4.62237
20
-3.39229
11
4.61862
21
-3.39604
0
LINE
8
BLACK
6
CONTINUOUS
10
4.61862
20
-3.39604
11
4.61112
21
-3.39979
0
LINE
8
BLACK
6
CONTINUOUS
10
4.61112
20
-3.39979
11
4.60362
21
-3.39979
0
LINE
8
BLACK
6
CONTINUOUS
10
4.60362
20
-3.39979
11
4.59612
21
-3.39604
0
LINE
8
BLACK
6
CONTINUOUS
10
4.59612
20
-3.39604
11
4.59237
21
-3.39229
0
LINE
8
BLACK
6
CONTINUOUS
10
4.59237
20
-3.39229
11
4.58862
21
-3.3848
0
LINE
8
BLACK
6
CONTINUOUS
10
4.58862
20
-3.3848
11
4.58487
21
-3.3698
0
LINE
8
BLACK
6
CONTINUOUS
10
4.58487
20
-3.3698
11
4.58487
21
-3.35105
0
LINE
8
BLACK
6
CONTINUOUS
10
4.58487
20
-3.35105
11
4.58862
21
-3.33605
0
LINE
8
BLACK
6
CONTINUOUS
10
4.58862
20
-3.33605
11
4.59237
21
-3.32855
0
LINE
8
BLACK
6
CONTINUOUS
10
4.59237
20
-3.32855
11
4.59612
21
-3.3248
0
LINE
8
BLACK
6
CONTINUOUS
10
4.59612
20
-3.3248
11
4.60362
21
-3.32105
0
LINE
8
BLACK
6
CONTINUOUS
10
4.70486
20
-3.39979
11
4.65986
21
-3.39979
0
LINE
8
BLACK
6
CONTINUOUS
10
4.68236
20
-3.39979
11
4.68236
21
-3.32105
0
LINE
8
BLACK
6
CONTINUOUS
10
4.68236
20
-3.32105
11
4.67486
21
-3.3323
0
LINE
8
BLACK
6
CONTINUOUS
10
4.67486
20
-3.3323
11
4.66736
21
-3.3398
0
LINE
8
BLACK
6
CONTINUOUS
10
4.66736
20
-3.3398
11
4.65986
21
-3.34355
0
LINE
8
BLACK
6
CONTINUOUS
10
4.7761
20
-3.32105
11
4.7386
21
-3.32105
0
LINE
8
BLACK
6
CONTINUOUS
10
4.7386
20
-3.32105
11
4.73485
21
-3.35855
0
LINE
8
BLACK
6
CONTINUOUS
10
4.73485
20
-3.35855
11
4.7386
21
-3.3548
0
LINE
8
BLACK
6
CONTINUOUS
10
4.7386
20
-3.3548
11
4.7461
21
-3.35105
0
LINE
8
BLACK
6
CONTINUOUS
10
4.7461
20
-3.35105
11
4.76485
21
-3.35105
0
LINE
8
BLACK
6
CONTINUOUS
10
4.76485
20
-3.35105
11
4.77235
21
-3.3548
0
LINE
8
BLACK
6
CONTINUOUS
10
4.77235
20
-3.3548
11
4.7761
21
-3.35855
0
LINE
8
BLACK
6
CONTINUOUS
10
4.7761
20
-3.35855
11
4.77985
21
-3.36605
0
LINE
8
BLACK
6
CONTINUOUS
10
4.77985
20
-3.36605
11
4.77985
21
-3.3848
0
LINE
8
BLACK
6
CONTINUOUS
10
4.77985
20
-3.3848
11
4.7761
21
-3.39229
0
LINE
8
BLACK
6
CONTINUOUS
10
4.7761
20
-3.39229
11
4.77235
21
-3.39604
0
LINE
8
BLACK
6
CONTINUOUS
10
4.77235
20
-3.39604
11
4.76485
21
-3.39979
0
LINE
8
BLACK
6
CONTINUOUS
10
4.76485
20
-3.39979
11
4.7461
21
-3.39979
0
LINE
8
BLACK
6
CONTINUOUS
10
4.7461
20
-3.39979
11
4.7386
21
-3.39604
0
LINE
8
BLACK
6
CONTINUOUS
10
4.7386
20
-3.39604
11
4.73485
21
-3.39229
0
LINE
8
BLACK
6
CONTINUOUS
10
4.80609
20
-3.32105
11
4.85859
21
-3.32105
0
LINE
8
BLACK
6
CONTINUOUS
10
4.85859
20
-3.32105
11
4.82484
21
-3.39979
0
LINE
8
BLACK
6
CONTINUOUS
10
4.88483
20
-3.32105
11
4.88483
21
-3.33605
0
LINE
8
BLACK
6
CONTINUOUS
10
4.91483
20
-3.32105
11
4.91483
21
-3.33605
0
LINE
8
BLACK
6
CONTINUOUS
10
5.03106
20
-3.42979
11
5.02732
21
-3.42604
0
LINE
8
BLACK
6
CONTINUOUS
10
5.02732
20
-3.42604
11
5.01982
21
-3.41479
0
LINE
8
BLACK
6
CONTINUOUS
10
5.01982
20
-3.41479
11
5.01607
21
-3.40729
0
LINE
8
BLACK
6
CONTINUOUS
10
5.01607
20
-3.40729
11
5.01232
21
-3.39604
0
LINE
8
BLACK
6
CONTINUOUS
10
5.01232
20
-3.39604
11
5.00857
21
-3.3773
0
LINE
8
BLACK
6
CONTINUOUS
10
5.00857
20
-3.3773
11
5.00857
21
-3.3623
0
LINE
8
BLACK
6
CONTINUOUS
10
5.00857
20
-3.3623
11
5.01232
21
-3.34355
0
LINE
8
BLACK
6
CONTINUOUS
10
5.01232
20
-3.34355
11
5.01607
21
-3.3323
0
LINE
8
BLACK
6
CONTINUOUS
10
5.01607
20
-3.3323
11
5.01982
21
-3.3248
0
LINE
8
BLACK
6
CONTINUOUS
10
5.01982
20
-3.3248
11
5.02732
21
-3.31355
0
LINE
8
BLACK
6
CONTINUOUS
10
5.02732
20
-3.31355
11
5.03106
21
-3.3098
0
LINE
8
BLACK
6
CONTINUOUS
10
5.05356
20
-3.32105
11
5.10231
21
-3.32105
0
LINE
8
BLACK
6
CONTINUOUS
10
5.10231
20
-3.32105
11
5.07606
21
-3.35105
0
LINE
8
BLACK
6
CONTINUOUS
10
5.07606
20
-3.35105
11
5.08731
21
-3.35105
0
LINE
8
BLACK
6
CONTINUOUS
10
5.08731
20
-3.35105
11
5.09481
21
-3.3548
0
LINE
8
BLACK
6
CONTINUOUS
10
5.09481
20
-3.3548
11
5.09856
21
-3.35855
0
LINE
8
BLACK
6
CONTINUOUS
10
5.09856
20
-3.35855
11
5.10231
21
-3.36605
0
LINE
8
BLACK
6
CONTINUOUS
10
5.10231
20
-3.36605
11
5.10231
21
-3.3848
0
LINE
8
BLACK
6
CONTINUOUS
10
5.10231
20
-3.3848
11
5.09856
21
-3.39229
0
LINE
8
BLACK
6
CONTINUOUS
10
5.09856
20
-3.39229
11
5.09481
21
-3.39604
0
LINE
8
BLACK
6
CONTINUOUS
10
5.09481
20
-3.39604
11
5.08731
21
-3.39979
0
LINE
8
BLACK
6
CONTINUOUS
10
5.08731
20
-3.39979
11
5.06481
21
-3.39979
0
LINE
8
BLACK
6
CONTINUOUS
10
5.06481
20
-3.39979
11
5.05731
21
-3.39604
0
LINE
8
BLACK
6
CONTINUOUS
10
5.05731
20
-3.39604
11
5.05356
21
-3.39229
0
LINE
8
BLACK
6
CONTINUOUS
10
5.1398
20
-3.39979
11
5.1548
21
-3.39979
0
LINE
8
BLACK
6
CONTINUOUS
10
5.1548
20
-3.39979
11
5.1623
21
-3.39604
0
LINE
8
BLACK
6
CONTINUOUS
10
5.1623
20
-3.39604
11
5.16605
21
-3.39229
0
LINE
8
BLACK
6
CONTINUOUS
10
5.16605
20
-3.39229
11
5.17355
21
-3.38105
0
LINE
8
BLACK
6
CONTINUOUS
10
5.17355
20
-3.38105
11
5.1773
21
-3.36605
0
LINE
8
BLACK
6
CONTINUOUS
10
5.1773
20
-3.36605
11
5.1773
21
-3.33605
0
LINE
8
BLACK
6
CONTINUOUS
10
5.1773
20
-3.33605
11
5.17355
21
-3.32855
0
LINE
8
BLACK
6
CONTINUOUS
10
5.17355
20
-3.32855
11
5.1698
21
-3.3248
0
LINE
8
BLACK
6
CONTINUOUS
10
5.1698
20
-3.3248
11
5.1623
21
-3.32105
0
LINE
8
BLACK
6
CONTINUOUS
10
5.1623
20
-3.32105
11
5.1473
21
-3.32105
0
LINE
8
BLACK
6
CONTINUOUS
10
5.1473
20
-3.32105
11
5.1398
21
-3.3248
0
LINE
8
BLACK
6
CONTINUOUS
10
5.1398
20
-3.3248
11
5.13605
21
-3.32855
0
LINE
8
BLACK
6
CONTINUOUS
10
5.13605
20
-3.32855
11
5.1323
21
-3.33605
0
LINE
8
BLACK
6
CONTINUOUS
10
5.1323
20
-3.33605
11
5.1323
21
-3.3548
0
LINE
8
BLACK
6
CONTINUOUS
10
5.1323
20
-3.3548
11
5.13605
21
-3.3623
0
LINE
8
BLACK
6
CONTINUOUS
10
5.13605
20
-3.3623
11
5.1398
21
-3.36605
0
LINE
8
BLACK
6
CONTINUOUS
10
5.1398
20
-3.36605
11
5.1473
21
-3.3698
0
LINE
8
BLACK
6
CONTINUOUS
10
5.1473
20
-3.3698
11
5.1623
21
-3.3698
0
LINE
8
BLACK
6
CONTINUOUS
10
5.1623
20
-3.3698
11
5.1698
21
-3.36605
0
LINE
8
BLACK
6
CONTINUOUS
10
5.1698
20
-3.36605
11
5.17355
21
-3.3623
0
LINE
8
BLACK
6
CONTINUOUS
10
5.17355
20
-3.3623
11
5.1773
21
-3.3548
0
LINE
8
BLACK
6
CONTINUOUS
10
5.27103
20
-3.39979
11
5.27103
21
-3.32105
0
LINE
8
BLACK
6
CONTINUOUS
10
5.30478
20
-3.39979
11
5.30478
21
-3.35855
0
LINE
8
BLACK
6
CONTINUOUS
10
5.30478
20
-3.35855
11
5.30103
21
-3.35105
0
LINE
8
BLACK
6
CONTINUOUS
10
5.30103
20
-3.35105
11
5.29353
21
-3.3473
0
LINE
8
BLACK
6
CONTINUOUS
10
5.29353
20
-3.3473
11
5.28228
21
-3.3473
0
LINE
8
BLACK
6
CONTINUOUS
10
5.28228
20
-3.3473
11
5.27478
21
-3.35105
0
LINE
8
BLACK
6
CONTINUOUS
10
5.27478
20
-3.35105
11
5.27103
21
-3.3548
0
LINE
8
BLACK
6
CONTINUOUS
10
5.35352
20
-3.39979
11
5.34603
21
-3.39604
0
LINE
8
BLACK
6
CONTINUOUS
10
5.34603
20
-3.39604
11
5.34228
21
-3.39229
0
LINE
8
BLACK
6
CONTINUOUS
10
5.34228
20
-3.39229
11
5.33853
21
-3.3848
0
LINE
8
BLACK
6
CONTINUOUS
10
5.33853
20
-3.3848
11
5.33853
21
-3.3623
0
LINE
8
BLACK
6
CONTINUOUS
10
5.33853
20
-3.3623
11
5.34228
21
-3.3548
0
LINE
8
BLACK
6
CONTINUOUS
10
5.34228
20
-3.3548
11
5.34603
21
-3.35105
0
LINE
8
BLACK
6
CONTINUOUS
10
5.34603
20
-3.35105
11
5.35352
21
-3.3473
0
LINE
8
BLACK
6
CONTINUOUS
10
5.35352
20
-3.3473
11
5.36477
21
-3.3473
0
LINE
8
BLACK
6
CONTINUOUS
10
5.36477
20
-3.3473
11
5.37227
21
-3.35105
0
LINE
8
BLACK
6
CONTINUOUS
10
5.37227
20
-3.35105
11
5.37602
21
-3.3548
0
LINE
8
BLACK
6
CONTINUOUS
10
5.37602
20
-3.3548
11
5.37977
21
-3.3623
0
LINE
8
BLACK
6
CONTINUOUS
10
5.37977
20
-3.3623
11
5.37977
21
-3.3848
0
LINE
8
BLACK
6
CONTINUOUS
10
5.37977
20
-3.3848
11
5.37602
21
-3.39229
0
LINE
8
BLACK
6
CONTINUOUS
10
5.37602
20
-3.39229
11
5.37227
21
-3.39604
0
LINE
8
BLACK
6
CONTINUOUS
10
5.37227
20
-3.39604
11
5.36477
21
-3.39979
0
LINE
8
BLACK
6
CONTINUOUS
10
5.36477
20
-3.39979
11
5.35352
21
-3.39979
0
LINE
8
BLACK
6
CONTINUOUS
10
5.42477
20
-3.39979
11
5.41727
21
-3.39604
0
LINE
8
BLACK
6
CONTINUOUS
10
5.41727
20
-3.39604
11
5.41352
21
-3.38855
0
LINE
8
BLACK
6
CONTINUOUS
10
5.41352
20
-3.38855
11
5.41352
21
-3.32105
0
LINE
8
BLACK
6
CONTINUOUS
10
5.48476
20
-3.39604
11
5.47726
21
-3.39979
0
LINE
8
BLACK
6
CONTINUOUS
10
5.47726
20
-3.39979
11
5.46226
21
-3.39979
0
LINE
8
BLACK
6
CONTINUOUS
10
5.46226
20
-3.39979
11
5.45476
21
-3.39604
0
LINE
8
BLACK
6
CONTINUOUS
10
5.45476
20
-3.39604
11
5.45101
21
-3.38855
0
LINE
8
BLACK
6
CONTINUOUS
10
5.45101
20
-3.38855
11
5.45101
21
-3.35855
0
LINE
8
BLACK
6
CONTINUOUS
10
5.45101
20
-3.35855
11
5.45476
21
-3.35105
0
LINE
8
BLACK
6
CONTINUOUS
10
5.45476
20
-3.35105
11
5.46226
21
-3.3473
0
LINE
8
BLACK
6
CONTINUOUS
10
5.46226
20
-3.3473
11
5.47726
21
-3.3473
0
LINE
8
BLACK
6
CONTINUOUS
10
5.47726
20
-3.3473
11
5.48476
21
-3.35105
0
LINE
8
BLACK
6
CONTINUOUS
10
5.48476
20
-3.35105
11
5.48851
21
-3.35855
0
LINE
8
BLACK
6
CONTINUOUS
10
5.48851
20
-3.35855
11
5.48851
21
-3.36605
0
LINE
8
BLACK
6
CONTINUOUS
10
5.48851
20
-3.36605
11
5.45101
21
-3.37355
0
LINE
8
BLACK
6
CONTINUOUS
10
5.5185
20
-3.39604
11
5.526
21
-3.39979
0
LINE
8
BLACK
6
CONTINUOUS
10
5.526
20
-3.39979
11
5.541
21
-3.39979
0
LINE
8
BLACK
6
CONTINUOUS
10
5.541
20
-3.39979
11
5.5485
21
-3.39604
0
LINE
8
BLACK
6
CONTINUOUS
10
5.5485
20
-3.39604
11
5.55225
21
-3.38855
0
LINE
8
BLACK
6
CONTINUOUS
10
5.55225
20
-3.38855
11
5.55225
21
-3.3848
0
LINE
8
BLACK
6
CONTINUOUS
10
5.55225
20
-3.3848
11
5.5485
21
-3.3773
0
LINE
8
BLACK
6
CONTINUOUS
10
5.5485
20
-3.3773
11
5.541
21
-3.37355
0
LINE
8
BLACK
6
CONTINUOUS
10
5.541
20
-3.37355
11
5.52975
21
-3.37355
0
LINE
8
BLACK
6
CONTINUOUS
10
5.52975
20
-3.37355
11
5.52225
21
-3.3698
0
LINE
8
BLACK
6
CONTINUOUS
10
5.52225
20
-3.3698
11
5.5185
21
-3.3623
0
LINE
8
BLACK
6
CONTINUOUS
10
5.5185
20
-3.3623
11
5.5185
21
-3.35855
0
LINE
8
BLACK
6
CONTINUOUS
10
5.5185
20
-3.35855
11
5.52225
21
-3.35105
0
LINE
8
BLACK
6
CONTINUOUS
10
5.52225
20
-3.35105
11
5.52975
21
-3.3473
0
LINE
8
BLACK
6
CONTINUOUS
10
5.52975
20
-3.3473
11
5.541
21
-3.3473
0
LINE
8
BLACK
6
CONTINUOUS
10
5.541
20
-3.3473
11
5.5485
21
-3.35105
0
LINE
8
BLACK
6
CONTINUOUS
10
5.5785
20
-3.42979
11
5.58225
21
-3.42604
0
LINE
8
BLACK
6
CONTINUOUS
10
5.58225
20
-3.42604
11
5.58974
21
-3.41479
0
LINE
8
BLACK
6
CONTINUOUS
10
5.58974
20
-3.41479
11
5.59349
21
-3.40729
0
LINE
8
BLACK
6
CONTINUOUS
10
5.59349
20
-3.40729
11
5.59724
21
-3.39604
0
LINE
8
BLACK
6
CONTINUOUS
10
5.59724
20
-3.39604
11
5.60099
21
-3.3773
0
LINE
8
BLACK
6
CONTINUOUS
10
5.60099
20
-3.3773
11
5.60099
21
-3.3623
0
LINE
8
BLACK
6
CONTINUOUS
10
5.60099
20
-3.3623
11
5.59724
21
-3.34355
0
LINE
8
BLACK
6
CONTINUOUS
10
5.59724
20
-3.34355
11
5.59349
21
-3.3323
0
LINE
8
BLACK
6
CONTINUOUS
10
5.59349
20
-3.3323
11
5.58974
21
-3.3248
0
LINE
8
BLACK
6
CONTINUOUS
10
5.58974
20
-3.3248
11
5.58225
21
-3.31355
0
LINE
8
BLACK
6
CONTINUOUS
10
5.58225
20
-3.31355
11
5.5785
21
-3.3098
0
CIRCLE
8
BLACK
10
3.61594
20
-3.46811
40
0.00885827
0
LINE
8
BLACK
6
CONTINUOUS
10
3.74123
20
-3.42499
11
3.74873
21
-3.42499
0
LINE
8
BLACK
6
CONTINUOUS
10
3.74873
20
-3.42499
11
3.75622
21
-3.42874
0
LINE
8
BLACK
6
CONTINUOUS
10
3.75622
20
-3.42874
11
3.75997
21
-3.43249
0
LINE
8
BLACK
6
CONTINUOUS
10
3.75997
20
-3.43249
11
3.76372
21
-3.43999
0
LINE
8
BLACK
6
CONTINUOUS
10
3.76372
20
-3.43999
11
3.76747
21
-3.45499
0
LINE
8
BLACK
6
CONTINUOUS
10
3.76747
20
-3.45499
11
3.76747
21
-3.47373
0
LINE
8
BLACK
6
CONTINUOUS
10
3.76747
20
-3.47373
11
3.76372
21
-3.48873
0
LINE
8
BLACK
6
CONTINUOUS
10
3.76372
20
-3.48873
11
3.75997
21
-3.49623
0
LINE
8
BLACK
6
CONTINUOUS
10
3.75997
20
-3.49623
11
3.75622
21
-3.49998
0
LINE
8
BLACK
6
CONTINUOUS
10
3.75622
20
-3.49998
11
3.74873
21
-3.50373
0
LINE
8
BLACK
6
CONTINUOUS
10
3.74873
20
-3.50373
11
3.74123
21
-3.50373
0
LINE
8
BLACK
6
CONTINUOUS
10
3.74123
20
-3.50373
11
3.73373
21
-3.49998
0
LINE
8
BLACK
6
CONTINUOUS
10
3.73373
20
-3.49998
11
3.72998
21
-3.49623
0
LINE
8
BLACK
6
CONTINUOUS
10
3.72998
20
-3.49623
11
3.72623
21
-3.48873
0
LINE
8
BLACK
6
CONTINUOUS
10
3.72623
20
-3.48873
11
3.72248
21
-3.47373
0
LINE
8
BLACK
6
CONTINUOUS
10
3.72248
20
-3.47373
11
3.72248
21
-3.45499
0
LINE
8
BLACK
6
CONTINUOUS
10
3.72248
20
-3.45499
11
3.72623
21
-3.43999
0
LINE
8
BLACK
6
CONTINUOUS
10
3.72623
20
-3.43999
11
3.72998
21
-3.43249
0
LINE
8
BLACK
6
CONTINUOUS
10
3.72998
20
-3.43249
11
3.73373
21
-3.42874
0
LINE
8
BLACK
6
CONTINUOUS
10
3.73373
20
-3.42874
11
3.74123
21
-3.42499
0
LINE
8
BLACK
6
CONTINUOUS
10
3.80122
20
-3.49623
11
3.80497
21
-3.49998
0
LINE
8
BLACK
6
CONTINUOUS
10
3.80497
20
-3.49998
11
3.80122
21
-3.50373
0
LINE
8
BLACK
6
CONTINUOUS
10
3.80122
20
-3.50373
11
3.79747
21
-3.49998
0
LINE
8
BLACK
6
CONTINUOUS
10
3.79747
20
-3.49998
11
3.80122
21
-3.49623
0
LINE
8
BLACK
6
CONTINUOUS
10
3.80122
20
-3.49623
11
3.80122
21
-3.50373
0
LINE
8
BLACK
6
CONTINUOUS
10
3.87246
20
-3.45124
11
3.87246
21
-3.50373
0
LINE
8
BLACK
6
CONTINUOUS
10
3.85371
20
-3.42124
11
3.83496
21
-3.47748
0
LINE
8
BLACK
6
CONTINUOUS
10
3.83496
20
-3.47748
11
3.88371
21
-3.47748
0
LINE
8
BLACK
6
CONTINUOUS
10
3.9512
20
-3.42499
11
3.9137
21
-3.42499
0
LINE
8
BLACK
6
CONTINUOUS
10
3.9137
20
-3.42499
11
3.90996
21
-3.46249
0
LINE
8
BLACK
6
CONTINUOUS
10
3.90996
20
-3.46249
11
3.9137
21
-3.45874
0
LINE
8
BLACK
6
CONTINUOUS
10
3.9137
20
-3.45874
11
3.9212
21
-3.45499
0
LINE
8
BLACK
6
CONTINUOUS
10
3.9212
20
-3.45499
11
3.93995
21
-3.45499
0
LINE
8
BLACK
6
CONTINUOUS
10
3.93995
20
-3.45499
11
3.94745
21
-3.45874
0
LINE
8
BLACK
6
CONTINUOUS
10
3.94745
20
-3.45874
11
3.9512
21
-3.46249
0
LINE
8
BLACK
6
CONTINUOUS
10
3.9512
20
-3.46249
11
3.95495
21
-3.46998
0
LINE
8
BLACK
6
CONTINUOUS
10
3.95495
20
-3.46998
11
3.95495
21
-3.48873
0
LINE
8
BLACK
6
CONTINUOUS
10
3.95495
20
-3.48873
11
3.9512
21
-3.49623
0
LINE
8
BLACK
6
CONTINUOUS
10
3.9512
20
-3.49623
11
3.94745
21
-3.49998
0
LINE
8
BLACK
6
CONTINUOUS
10
3.94745
20
-3.49998
11
3.93995
21
-3.50373
0
LINE
8
BLACK
6
CONTINUOUS
10
3.93995
20
-3.50373
11
3.9212
21
-3.50373
0
LINE
8
BLACK
6
CONTINUOUS
10
3.9212
20
-3.50373
11
3.9137
21
-3.49998
0
LINE
8
BLACK
6
CONTINUOUS
10
3.9137
20
-3.49998
11
3.90996
21
-3.49623
0
LINE
8
BLACK
6
CONTINUOUS
10
4.00369
20
-3.42499
11
4.01119
21
-3.42499
0
LINE
8
BLACK
6
CONTINUOUS
10
4.01119
20
-3.42499
11
4.01869
21
-3.42874
0
LINE
8
BLACK
6
CONTINUOUS
10
4.01869
20
-3.42874
11
4.02244
21
-3.43249
0
LINE
8
BLACK
6
CONTINUOUS
10
4.02244
20
-3.43249
11
4.02619
21
-3.43999
0
LINE
8
BLACK
6
CONTINUOUS
10
4.02619
20
-3.43999
11
4.02994
21
-3.45499
0
LINE
8
BLACK
6
CONTINUOUS
10
4.02994
20
-3.45499
11
4.02994
21
-3.47373
0
LINE
8
BLACK
6
CONTINUOUS
10
4.02994
20
-3.47373
11
4.02619
21
-3.48873
0
LINE
8
BLACK
6
CONTINUOUS
10
4.02619
20
-3.48873
11
4.02244
21
-3.49623
0
LINE
8
BLACK
6
CONTINUOUS
10
4.02244
20
-3.49623
11
4.01869
21
-3.49998
0
LINE
8
BLACK
6
CONTINUOUS
10
4.01869
20
-3.49998
11
4.01119
21
-3.50373
0
LINE
8
BLACK
6
CONTINUOUS
10
4.01119
20
-3.50373
11
4.00369
21
-3.50373
0
LINE
8
BLACK
6
CONTINUOUS
10
4.00369
20
-3.50373
11
3.99619
21
-3.49998
0
LINE
8
BLACK
6
CONTINUOUS
10
3.99619
20
-3.49998
11
3.99244
21
-3.49623
0
LINE
8
BLACK
6
CONTINUOUS
10
3.99244
20
-3.49623
11
3.9887
21
-3.48873
0
LINE
8
BLACK
6
CONTINUOUS
10
3.9887
20
-3.48873
11
3.98495
21
-3.47373
0
LINE
8
BLACK
6
CONTINUOUS
10
3.98495
20
-3.47373
11
3.98495
21
-3.45499
0
LINE
8
BLACK
6
CONTINUOUS
10
3.98495
20
-3.45499
11
3.9887
21
-3.43999
0
LINE
8
BLACK
6
CONTINUOUS
10
3.9887
20
-3.43999
11
3.99244
21
-3.43249
0
LINE
8
BLACK
6
CONTINUOUS
10
3.99244
20
-3.43249
11
3.99619
21
-3.42874
0
LINE
8
BLACK
6
CONTINUOUS
10
3.99619
20
-3.42874
11
4.00369
21
-3.42499
0
LINE
8
BLACK
6
CONTINUOUS
10
4.06369
20
-3.50373
11
4.06369
21
-3.45124
0
LINE
8
BLACK
6
CONTINUOUS
10
4.06369
20
-3.45874
11
4.06744
21
-3.45499
0
LINE
8
BLACK
6
CONTINUOUS
10
4.06744
20
-3.45499
11
4.07493
21
-3.45124
0
LINE
8
BLACK
6
CONTINUOUS
10
4.07493
20
-3.45124
11
4.08618
21
-3.45124
0
LINE
8
BLACK
6
CONTINUOUS
10
4.08618
20
-3.45124
11
4.09368
21
-3.45499
0
LINE
8
BLACK
6
CONTINUOUS
10
4.09368
20
-3.45499
11
4.09743
21
-3.46249
0
LINE
8
BLACK
6
CONTINUOUS
10
4.09743
20
-3.46249
11
4.09743
21
-3.50373
0
LINE
8
BLACK
6
CONTINUOUS
10
4.09743
20
-3.46249
11
4.10118
21
-3.45499
0
LINE
8
BLACK
6
CONTINUOUS
10
4.10118
20
-3.45499
11
4.10868
21
-3.45124
0
LINE
8
BLACK
6
CONTINUOUS
10
4.10868
20
-3.45124
11
4.11993
21
-3.45124
0
LINE
8
BLACK
6
CONTINUOUS
10
4.11993
20
-3.45124
11
4.12743
21
-3.45499
0
LINE
8
BLACK
6
CONTINUOUS
10
4.12743
20
-3.45499
11
4.13118
21
-3.46249
0
LINE
8
BLACK
6
CONTINUOUS
10
4.13118
20
-3.46249
11
4.13118
21
-3.50373
0
LINE
8
BLACK
6
CONTINUOUS
10
4.16867
20
-3.50373
11
4.16867
21
-3.45124
0
LINE
8
BLACK
6
CONTINUOUS
10
4.16867
20
-3.45874
11
4.17242
21
-3.45499
0
LINE
8
BLACK
6
CONTINUOUS
10
4.17242
20
-3.45499
11
4.17992
21
-3.45124
0
LINE
8
BLACK
6
CONTINUOUS
10
4.17992
20
-3.45124
11
4.19117
21
-3.45124
0
LINE
8
BLACK
6
CONTINUOUS
10
4.19117
20
-3.45124
11
4.19867
21
-3.45499
0
LINE
8
BLACK
6
CONTINUOUS
10
4.19867
20
-3.45499
11
4.20242
21
-3.46249
0
LINE
8
BLACK
6
CONTINUOUS
10
4.20242
20
-3.46249
11
4.20242
21
-3.50373
0
LINE
8
BLACK
6
CONTINUOUS
10
4.20242
20
-3.46249
11
4.20617
21
-3.45499
0
LINE
8
BLACK
6
CONTINUOUS
10
4.20617
20
-3.45499
11
4.21367
21
-3.45124
0
LINE
8
BLACK
6
CONTINUOUS
10
4.21367
20
-3.45124
11
4.22492
21
-3.45124
0
LINE
8
BLACK
6
CONTINUOUS
10
4.22492
20
-3.45124
11
4.23241
21
-3.45499
0
LINE
8
BLACK
6
CONTINUOUS
10
4.23241
20
-3.45499
11
4.23616
21
-3.46249
0
LINE
8
BLACK
6
CONTINUOUS
10
4.23616
20
-3.46249
11
4.23616
21
-3.50373
0
LINE
8
BLACK
6
CONTINUOUS
10
4.3899
20
-3.42124
11
4.3224
21
-3.52248
0
LINE
8
BLACK
6
CONTINUOUS
10
4.49113
20
-3.42499
11
4.49863
21
-3.42499
0
LINE
8
BLACK
6
CONTINUOUS
10
4.49863
20
-3.42499
11
4.50613
21
-3.42874
0
LINE
8
BLACK
6
CONTINUOUS
10
4.50613
20
-3.42874
11
4.50988
21
-3.43249
0
LINE
8
BLACK
6
CONTINUOUS
10
4.50988
20
-3.43249
11
4.51363
21
-3.43999
0
LINE
8
BLACK
6
CONTINUOUS
10
4.51363
20
-3.43999
11
4.51738
21
-3.45499
0
LINE
8
BLACK
6
CONTINUOUS
10
4.51738
20
-3.45499
11
4.51738
21
-3.47373
0
LINE
8
BLACK
6
CONTINUOUS
10
4.51738
20
-3.47373
11
4.51363
21
-3.48873
0
LINE
8
BLACK
6
CONTINUOUS
10
4.51363
20
-3.48873
11
4.50988
21
-3.49623
0
LINE
8
BLACK
6
CONTINUOUS
10
4.50988
20
-3.49623
11
4.50613
21
-3.49998
0
LINE
8
BLACK
6
CONTINUOUS
10
4.50613
20
-3.49998
11
4.49863
21
-3.50373
0
LINE
8
BLACK
6
CONTINUOUS
10
4.49863
20
-3.50373
11
4.49113
21
-3.50373
0
LINE
8
BLACK
6
CONTINUOUS
10
4.49113
20
-3.50373
11
4.48363
21
-3.49998
0
LINE
8
BLACK
6
CONTINUOUS
10
4.48363
20
-3.49998
11
4.47988
21
-3.49623
0
LINE
8
BLACK
6
CONTINUOUS
10
4.47988
20
-3.49623
11
4.47613
21
-3.48873
0
LINE
8
BLACK
6
CONTINUOUS
10
4.47613
20
-3.48873
11
4.47238
21
-3.47373
0
LINE
8
BLACK
6
CONTINUOUS
10
4.47238
20
-3.47373
11
4.47238
21
-3.45499
0
LINE
8
BLACK
6
CONTINUOUS
10
4.47238
20
-3.45499
11
4.47613
21
-3.43999
0
LINE
8
BLACK
6
CONTINUOUS
10
4.47613
20
-3.43999
11
4.47988
21
-3.43249
0
LINE
8
BLACK
6
CONTINUOUS
10
4.47988
20
-3.43249
11
4.48363
21
-3.42874
0
LINE
8
BLACK
6
CONTINUOUS
10
4.48363
20
-3.42874
11
4.49113
21
-3.42499
0
LINE
8
BLACK
6
CONTINUOUS
10
4.55112
20
-3.49623
11
4.55487
21
-3.49998
0
LINE
8
BLACK
6
CONTINUOUS
10
4.55487
20
-3.49998
11
4.55112
21
-3.50373
0
LINE
8
BLACK
6
CONTINUOUS
10
4.55112
20
-3.50373
11
4.54738
21
-3.49998
0
LINE
8
BLACK
6
CONTINUOUS
10
4.54738
20
-3.49998
11
4.55112
21
-3.49623
0
LINE
8
BLACK
6
CONTINUOUS
10
4.55112
20
-3.49623
11
4.55112
21
-3.50373
0
LINE
8
BLACK
6
CONTINUOUS
10
4.60362
20
-3.42499
11
4.61112
21
-3.42499
0
LINE
8
BLACK
6
CONTINUOUS
10
4.61112
20
-3.42499
11
4.61862
21
-3.42874
0
LINE
8
BLACK
6
CONTINUOUS
10
4.61862
20
-3.42874
11
4.62237
21
-3.43249
0
LINE
8
BLACK
6
CONTINUOUS
10
4.62237
20
-3.43249
11
4.62612
21
-3.43999
0
LINE
8
BLACK
6
CONTINUOUS
10
4.62612
20
-3.43999
11
4.62986
21
-3.45499
0
LINE
8
BLACK
6
CONTINUOUS
10
4.62986
20
-3.45499
11
4.62986
21
-3.47373
0
LINE
8
BLACK
6
CONTINUOUS
10
4.62986
20
-3.47373
11
4.62612
21
-3.48873
0
LINE
8
BLACK
6
CONTINUOUS
10
4.62612
20
-3.48873
11
4.62237
21
-3.49623
0
LINE
8
BLACK
6
CONTINUOUS
10
4.62237
20
-3.49623
11
4.61862
21
-3.49998
0
LINE
8
BLACK
6
CONTINUOUS
10
4.61862
20
-3.49998
11
4.61112
21
-3.50373
0
LINE
8
BLACK
6
CONTINUOUS
10
4.61112
20
-3.50373
11
4.60362
21
-3.50373
0
LINE
8
BLACK
6
CONTINUOUS
10
4.60362
20
-3.50373
11
4.59612
21
-3.49998
0
LINE
8
BLACK
6
CONTINUOUS
10
4.59612
20
-3.49998
11
4.59237
21
-3.49623
0
LINE
8
BLACK
6
CONTINUOUS
10
4.59237
20
-3.49623
11
4.58862
21
-3.48873
0
LINE
8
BLACK
6
CONTINUOUS
10
4.58862
20
-3.48873
11
4.58487
21
-3.47373
0
LINE
8
BLACK
6
CONTINUOUS
10
4.58487
20
-3.47373
11
4.58487
21
-3.45499
0
LINE
8
BLACK
6
CONTINUOUS
10
4.58487
20
-3.45499
11
4.58862
21
-3.43999
0
LINE
8
BLACK
6
CONTINUOUS
10
4.58862
20
-3.43999
11
4.59237
21
-3.43249
0
LINE
8
BLACK
6
CONTINUOUS
10
4.59237
20
-3.43249
11
4.59612
21
-3.42874
0
LINE
8
BLACK
6
CONTINUOUS
10
4.59612
20
-3.42874
11
4.60362
21
-3.42499
0
LINE
8
BLACK
6
CONTINUOUS
10
4.70486
20
-3.50373
11
4.65986
21
-3.50373
0
LINE
8
BLACK
6
CONTINUOUS
10
4.68236
20
-3.50373
11
4.68236
21
-3.42499
0
LINE
8
BLACK
6
CONTINUOUS
10
4.68236
20
-3.42499
11
4.67486
21
-3.43624
0
LINE
8
BLACK
6
CONTINUOUS
10
4.67486
20
-3.43624
11
4.66736
21
-3.44374
0
LINE
8
BLACK
6
CONTINUOUS
10
4.66736
20
-3.44374
11
4.65986
21
-3.44749
0
LINE
8
BLACK
6
CONTINUOUS
10
4.7311
20
-3.42499
11
4.7836
21
-3.42499
0
LINE
8
BLACK
6
CONTINUOUS
10
4.7836
20
-3.42499
11
4.74985
21
-3.50373
0
LINE
8
BLACK
6
CONTINUOUS
10
4.80609
20
-3.42499
11
4.85859
21
-3.42499
0
LINE
8
BLACK
6
CONTINUOUS
10
4.85859
20
-3.42499
11
4.82484
21
-3.50373
0
LINE
8
BLACK
6
CONTINUOUS
10
4.88483
20
-3.42499
11
4.88483
21
-3.43999
0
LINE
8
BLACK
6
CONTINUOUS
10
4.91483
20
-3.42499
11
4.91483
21
-3.43999
0
LINE
8
BLACK
6
CONTINUOUS
10
5.03106
20
-3.53373
11
5.02732
21
-3.52998
0
LINE
8
BLACK
6
CONTINUOUS
10
5.02732
20
-3.52998
11
5.01982
21
-3.51873
0
LINE
8
BLACK
6
CONTINUOUS
10
5.01982
20
-3.51873
11
5.01607
21
-3.51123
0
LINE
8
BLACK
6
CONTINUOUS
10
5.01607
20
-3.51123
11
5.01232
21
-3.49998
0
LINE
8
BLACK
6
CONTINUOUS
10
5.01232
20
-3.49998
11
5.00857
21
-3.48123
0
LINE
8
BLACK
6
CONTINUOUS
10
5.00857
20
-3.48123
11
5.00857
21
-3.46624
0
LINE
8
BLACK
6
CONTINUOUS
10
5.00857
20
-3.46624
11
5.01232
21
-3.44749
0
LINE
8
BLACK
6
CONTINUOUS
10
5.01232
20
-3.44749
11
5.01607
21
-3.43624
0
LINE
8
BLACK
6
CONTINUOUS
10
5.01607
20
-3.43624
11
5.01982
21
-3.42874
0
LINE
8
BLACK
6
CONTINUOUS
10
5.01982
20
-3.42874
11
5.02732
21
-3.41749
0
LINE
8
BLACK
6
CONTINUOUS
10
5.02732
20
-3.41749
11
5.03106
21
-3.41374
0
LINE
8
BLACK
6
CONTINUOUS
10
5.10231
20
-3.50373
11
5.05731
21
-3.50373
0
LINE
8
BLACK
6
CONTINUOUS
10
5.07981
20
-3.50373
11
5.07981
21
-3.42499
0
LINE
8
BLACK
6
CONTINUOUS
10
5.07981
20
-3.42499
11
5.07231
21
-3.43624
0
LINE
8
BLACK
6
CONTINUOUS
10
5.07231
20
-3.43624
11
5.06481
21
-3.44374
0
LINE
8
BLACK
6
CONTINUOUS
10
5.06481
20
-3.44374
11
5.05731
21
-3.44749
0
LINE
8
BLACK
6
CONTINUOUS
10
5.19604
20
-3.50373
11
5.19604
21
-3.42499
0
LINE
8
BLACK
6
CONTINUOUS
10
5.22979
20
-3.50373
11
5.22979
21
-3.46249
0
LINE
8
BLACK
6
CONTINUOUS
10
5.22979
20
-3.46249
11
5.22604
21
-3.45499
0
LINE
8
BLACK
6
CONTINUOUS
10
5.22604
20
-3.45499
11
5.21854
21
-3.45124
0
LINE
8
BLACK
6
CONTINUOUS
10
5.21854
20
-3.45124
11
5.20729
21
-3.45124
0
LINE
8
BLACK
6
CONTINUOUS
10
5.20729
20
-3.45124
11
5.19979
21
-3.45499
0
LINE
8
BLACK
6
CONTINUOUS
10
5.19979
20
-3.45499
11
5.19604
21
-3.45874
0
LINE
8
BLACK
6
CONTINUOUS
10
5.27853
20
-3.50373
11
5.27103
21
-3.49998
0
LINE
8
BLACK
6
CONTINUOUS
10
5.27103
20
-3.49998
11
5.26729
21
-3.49623
0
LINE
8
BLACK
6
CONTINUOUS
10
5.26729
20
-3.49623
11
5.26354
21
-3.48873
0
LINE
8
BLACK
6
CONTINUOUS
10
5.26354
20
-3.48873
11
5.26354
21
-3.46624
0
LINE
8
BLACK
6
CONTINUOUS
10
5.26354
20
-3.46624
11
5.26729
21
-3.45874
0
LINE
8
BLACK
6
CONTINUOUS
10
5.26729
20
-3.45874
11
5.27103
21
-3.45499
0
LINE
8
BLACK
6
CONTINUOUS
10
5.27103
20
-3.45499
11
5.27853
21
-3.45124
0
LINE
8
BLACK
6
CONTINUOUS
10
5.27853
20
-3.45124
11
5.28978
21
-3.45124
0
LINE
8
BLACK
6
CONTINUOUS
10
5.28978
20
-3.45124
11
5.29728
21
-3.45499
0
LINE
8
BLACK
6
CONTINUOUS
10
5.29728
20
-3.45499
11
5.30103
21
-3.45874
0
LINE
8
BLACK
6
CONTINUOUS
10
5.30103
20
-3.45874
11
5.30478
21
-3.46624
0
LINE
8
BLACK
6
CONTINUOUS
10
5.30478
20
-3.46624
11
5.30478
21
-3.48873
0
LINE
8
BLACK
6
CONTINUOUS
10
5.30478
20
-3.48873
11
5.30103
21
-3.49623
0
LINE
8
BLACK
6
CONTINUOUS
10
5.30103
20
-3.49623
11
5.29728
21
-3.49998
0
LINE
8
BLACK
6
CONTINUOUS
10
5.29728
20
-3.49998
11
5.28978
21
-3.50373
0
LINE
8
BLACK
6
CONTINUOUS
10
5.28978
20
-3.50373
11
5.27853
21
-3.50373
0
LINE
8
BLACK
6
CONTINUOUS
10
5.34978
20
-3.50373
11
5.34228
21
-3.49998
0
LINE
8
BLACK
6
CONTINUOUS
10
5.34228
20
-3.49998
11
5.33853
21
-3.49248
0
LINE
8
BLACK
6
CONTINUOUS
10
5.33853
20
-3.49248
11
5.33853
21
-3.42499
0
LINE
8
BLACK
6
CONTINUOUS
10
5.40977
20
-3.49998
11
5.40227
21
-3.50373
0
LINE
8
BLACK
6
CONTINUOUS
10
5.40227
20
-3.50373
11
5.38727
21
-3.50373
0
LINE
8
BLACK
6
CONTINUOUS
10
5.38727
20
-3.50373
11
5.37977
21
-3.49998
0
LINE
8
BLACK
6
CONTINUOUS
10
5.37977
20
-3.49998
11
5.37602
21
-3.49248
0
LINE
8
BLACK
6
CONTINUOUS
10
5.37602
20
-3.49248
11
5.37602
21
-3.46249
0
LINE
8
BLACK
6
CONTINUOUS
10
5.37602
20
-3.46249
11
5.37977
21
-3.45499
0
LINE
8
BLACK
6
CONTINUOUS
10
5.37977
20
-3.45499
11
5.38727
21
-3.45124
0
LINE
8
BLACK
6
CONTINUOUS
10
5.38727
20
-3.45124
11
5.40227
21
-3.45124
0
LINE
8
BLACK
6
CONTINUOUS
10
5.40227
20
-3.45124
11
5.40977
21
-3.45499
0
LINE
8
BLACK
6
CONTINUOUS
10
5.40977
20
-3.45499
11
5.41352
21
-3.46249
0
LINE
8
BLACK
6
CONTINUOUS
10
5.41352
20
-3.46249
11
5.41352
21
-3.46998
0
LINE
8
BLACK
6
CONTINUOUS
10
5.41352
20
-3.46998
11
5.37602
21
-3.47748
0
LINE
8
BLACK
6
CONTINUOUS
10
5.43976
20
-3.53373
11
5.44351
21
-3.52998
0
LINE
8
BLACK
6
CONTINUOUS
10
5.44351
20
-3.52998
11
5.45101
21
-3.51873
0
LINE
8
BLACK
6
CONTINUOUS
10
5.45101
20
-3.51873
11
5.45476
21
-3.51123
0
LINE
8
BLACK
6
CONTINUOUS
10
5.45476
20
-3.51123
11
5.45851
21
-3.49998
0
LINE
8
BLACK
6
CONTINUOUS
10
5.45851
20
-3.49998
11
5.46226
21
-3.48123
0
LINE
8
BLACK
6
CONTINUOUS
10
5.46226
20
-3.48123
11
5.46226
21
-3.46624
0
LINE
8
BLACK
6
CONTINUOUS
10
5.46226
20
-3.46624
11
5.45851
21
-3.44749
0
LINE
8
BLACK
6
CONTINUOUS
10
5.45851
20
-3.44749
11
5.45476
21
-3.43624
0
LINE
8
BLACK
6
CONTINUOUS
10
5.45476
20
-3.43624
11
5.45101
21
-3.42874
0
LINE
8
BLACK
6
CONTINUOUS
10
5.45101
20
-3.42874
11
5.44351
21
-3.41749
0
LINE
8
BLACK
6
CONTINUOUS
10
5.44351
20
-3.41749
11
5.43976
21
-3.41374
  0
ENDSEC
  0
EOF
