M48
; DRILL file {KiCad (6.0.10)} date Tue Jan 30 23:07:20 2024
; FORMAT={2:4/ absolute / inch / suppress leading zeros}
; #@! TF.CreationDate,2024-01-30T23:07:20+11:00
; #@! TF.GenerationSoftware,Kicad,Pcbnew,(6.0.10)
; #@! TF.FileFunction,Plated,1,2,PTH
FMAT,2
INCH,TZ
; #@! TA.AperFunction,Plated,PTH,ViaDrill
T1C0.0157
; #@! TA.AperFunction,Plated,PTH,ViaDrill
T2C0.0177
%
G90
G05
T1
X36791Y-30787
X37402Y-30787
X37992Y-30787
X38307Y-23819
X38500Y-27400
X38500Y-28000
X38600Y-28500
X38600Y-30300
X38622Y-30787
X38898Y-23819
X39323Y-28157
X39449Y-23819
X39587Y-30551
X40177Y-25748
X40205Y-26579
X40300Y-29354
X40453Y-28677
X40630Y-27008
X40965Y-30551
X41055Y-27504
X41189Y-25874
X41299Y-27008
X41378Y-23878
X41650Y-28764
X41764Y-29988
X42043Y-25571
X42283Y-28764
X42776Y-28126
X42819Y-24783
X43390Y-30256
X43484Y-23583
X43504Y-29508
X43524Y-30807
X43780Y-28287
X43800Y-30000
X43839Y-24213
X43839Y-25020
X43839Y-25728
X43839Y-26417
T2
X41173Y-25413
T0
M30
