%TF.GenerationSoftware,KiCad,Pcbnew,(6.0.10)*%
%TF.CreationDate,2024-01-30T22:18:44+11:00*%
%TF.ProjectId,DFO,44464f2e-6b69-4636-9164-5f7063625858,rev?*%
%TF.SameCoordinates,Original*%
%TF.FileFunction,Copper,L1,Top*%
%TF.FilePolarity,Positive*%
%FSLAX46Y46*%
G04 Gerber Fmt 4.6, Leading zero omitted, Abs format (unit mm)*
G04 Created by KiCad (PCBNEW (6.0.10)) date 2024-01-30 22:18:44*
%MOMM*%
%LPD*%
G01*
G04 APERTURE LIST*
G04 Aperture macros list*
%AMRoundRect*
0 Rectangle with rounded corners*
0 $1 Rounding radius*
0 $2 $3 $4 $5 $6 $7 $8 $9 X,Y pos of 4 corners*
0 Add a 4 corners polygon primitive as box body*
4,1,4,$2,$3,$4,$5,$6,$7,$8,$9,$2,$3,0*
0 Add four circle primitives for the rounded corners*
1,1,$1+$1,$2,$3*
1,1,$1+$1,$4,$5*
1,1,$1+$1,$6,$7*
1,1,$1+$1,$8,$9*
0 Add four rect primitives between the rounded corners*
20,1,$1+$1,$2,$3,$4,$5,0*
20,1,$1+$1,$4,$5,$6,$7,0*
20,1,$1+$1,$6,$7,$8,$9,0*
20,1,$1+$1,$8,$9,$2,$3,0*%
G04 Aperture macros list end*
%TA.AperFunction,SMDPad,CuDef*%
%ADD10RoundRect,0.250000X0.475000X-0.250000X0.475000X0.250000X-0.475000X0.250000X-0.475000X-0.250000X0*%
%TD*%
%TA.AperFunction,SMDPad,CuDef*%
%ADD11R,1.000000X1.000000*%
%TD*%
%TA.AperFunction,SMDPad,CuDef*%
%ADD12RoundRect,0.250000X-0.250000X-0.475000X0.250000X-0.475000X0.250000X0.475000X-0.250000X0.475000X0*%
%TD*%
%TA.AperFunction,SMDPad,CuDef*%
%ADD13R,1.100000X1.300000*%
%TD*%
%TA.AperFunction,SMDPad,CuDef*%
%ADD14R,4.000000X3.000000*%
%TD*%
%TA.AperFunction,SMDPad,CuDef*%
%ADD15R,1.400000X0.300000*%
%TD*%
%TA.AperFunction,SMDPad,CuDef*%
%ADD16R,1.600000X0.550000*%
%TD*%
%TA.AperFunction,SMDPad,CuDef*%
%ADD17R,0.550000X1.600000*%
%TD*%
%TA.AperFunction,ViaPad*%
%ADD18C,0.800000*%
%TD*%
%TA.AperFunction,Conductor*%
%ADD19C,0.250000*%
%TD*%
%TA.AperFunction,Conductor*%
%ADD20C,0.500000*%
%TD*%
%TA.AperFunction,Conductor*%
%ADD21C,0.456000*%
%TD*%
%TA.AperFunction,Conductor*%
%ADD22C,0.450000*%
%TD*%
%TA.AperFunction,Conductor*%
%ADD23C,0.650000*%
%TD*%
G04 APERTURE END LIST*
D10*
%TO.P,REF\u002A\u002A,1*%
%TO.N,CLK_OUT_SI5351*%
X98044000Y-75626000D03*
%TO.P,REF\u002A\u002A,2*%
%TO.N,CLKOUT*%
X98044000Y-73726000D03*
%TD*%
%TO.P,REF\u002A\u002A,1*%
%TO.N,GND*%
X97790000Y-68006000D03*
%TO.P,REF\u002A\u002A,2*%
%TO.N,+3.3V*%
X97790000Y-66106000D03*
%TD*%
D11*
%TO.P,,1*%
%TO.N,N/C*%
X110744000Y-73406000D03*
%TD*%
D12*
%TO.P,REF\u002A\u002A,1*%
%TO.N,GND*%
X103100000Y-77600000D03*
%TO.P,REF\u002A\u002A,2*%
%TO.N,+3.3V*%
X105000000Y-77600000D03*
%TD*%
%TO.P,REF\u002A\u002A,2*%
%TO.N,+3.3V*%
X101500000Y-77600000D03*
%TO.P,REF\u002A\u002A,1*%
%TO.N,N/C*%
X99600000Y-77600000D03*
%TD*%
D10*
%TO.P,REF\u002A\u002A,1*%
%TO.N,GND*%
X110750000Y-70500000D03*
%TO.P,REF\u002A\u002A,2*%
%TO.N,+3.3V*%
X110750000Y-68600000D03*
%TD*%
D12*
%TO.P,REF\u002A\u002A,1*%
%TO.N,+3.3V*%
X106450000Y-60500000D03*
%TO.P,REF\u002A\u002A,2*%
%TO.N,i2c-SDA*%
X108350000Y-60500000D03*
%TD*%
%TO.P,REF\u002A\u002A,1*%
%TO.N,i2c-SCL*%
X101850000Y-60500000D03*
%TO.P,REF\u002A\u002A,2*%
%TO.N,+3.3V*%
X103750000Y-60500000D03*
%TD*%
D13*
%TO.P,X1,*%
%TO.N,CLK_OPT*%
X108809998Y-76610000D03*
%TO.P,X1,2,GND*%
%TO.N,GND*%
X108809998Y-74510000D03*
%TO.P,X1,3,OUT*%
%TO.N,REF_CLK_OUT*%
X107159998Y-74510000D03*
%TO.P,X1,4,Vdd*%
%TO.N,+3.3V*%
X107159998Y-76610000D03*
%TD*%
D14*
%TO.P,,1*%
%TO.N,CLKOUT*%
X94480000Y-75790000D03*
%TD*%
D15*
%TO.P,U1,*%
%TO.N,CLK_OUT_SI5351*%
X100162000Y-75660000D03*
%TO.P,U1,9,CLK1*%
%TO.N,unconnected-(U1-Pad9)*%
X100162000Y-75160000D03*
%TO.P,U1,8,GND*%
%TO.N,GND*%
X100162000Y-74660000D03*
%TO.P,U1,7,VDDO*%
%TO.N,+3.3V*%
X100162000Y-74160000D03*
%TO.P,U1,6,CLK2*%
%TO.N,unconnected-(U1-Pad6)*%
X100162000Y-73660000D03*
%TO.P,U1,5,SDA*%
%TO.N,i2c-SDA*%
X104562000Y-73660000D03*
%TO.P,U1,4,SCL*%
%TO.N,i2c-SCL*%
X104562000Y-74160000D03*
%TO.P,U1,3,XB*%
%TO.N,unconnected-(U1-Pad3)*%
X104562000Y-74660000D03*
%TO.P,U1,2,XA*%
%TO.N,REF_CLK_OUT*%
X104562000Y-75160000D03*
%TO.P,U1,1,VDD*%
%TO.N,+3.3V*%
X104562000Y-75660000D03*
%TD*%
D16*
%TO.P,U2,1,PD3*%
%TO.N,unconnected-(U2-Pad1)*%
X100080000Y-64320000D03*
%TO.P,U2,2,PD4*%
%TO.N,unconnected-(U2-Pad2)*%
X100080000Y-65120000D03*
%TO.P,U2,3,GND*%
%TO.N,GND*%
X100080000Y-65920000D03*
%TO.P,U2,4,VCC*%
%TO.N,+3.3V*%
X100080000Y-66720000D03*
%TO.P,U2,5,GND*%
%TO.N,GND*%
X100080000Y-67520000D03*
%TO.P,U2,6,VCC*%
%TO.N,+3.3V*%
X100080000Y-68320000D03*
%TO.P,U2,7,XTAL1/PB6*%
%TO.N,Net-(U2-Pad7)*%
X100080000Y-69120000D03*
%TO.P,U2,8,XTAL2/PB7*%
%TO.N,unconnected-(U2-Pad8)*%
X100080000Y-69920000D03*
D17*
%TO.P,U2,9,PD5*%
%TO.N,unconnected-(U2-Pad9)*%
X101530000Y-71370000D03*
%TO.P,U2,10,PD6*%
%TO.N,unconnected-(U2-Pad10)*%
X102330000Y-71370000D03*
%TO.P,U2,11,PD7*%
%TO.N,unconnected-(U2-Pad11)*%
X103130000Y-71370000D03*
%TO.P,U2,12,PB0*%
%TO.N,unconnected-(U2-Pad12)*%
X103930000Y-71370000D03*
%TO.P,U2,13,PB1*%
%TO.N,unconnected-(U2-Pad13)*%
X104730000Y-71370000D03*
%TO.P,U2,14,PB2*%
%TO.N,unconnected-(U2-Pad14)*%
X105530000Y-71370000D03*
%TO.P,U2,15,PB3*%
%TO.N,unconnected-(U2-Pad15)*%
X106330000Y-71370000D03*
%TO.P,U2,16,PB4*%
%TO.N,unconnected-(U2-Pad16)*%
X107130000Y-71370000D03*
D16*
%TO.P,U2,17,PB5*%
%TO.N,unconnected-(U2-Pad17)*%
X108580000Y-69920000D03*
%TO.P,U2,18,AVCC*%
%TO.N,+3.3V*%
X108580000Y-69120000D03*
%TO.P,U2,19,ADC6*%
%TO.N,unconnected-(U2-Pad19)*%
X108580000Y-68320000D03*
%TO.P,U2,20,AREF*%
%TO.N,unconnected-(U2-Pad20)*%
X108580000Y-67520000D03*
%TO.P,U2,21,GND*%
%TO.N,GND*%
X108580000Y-66720000D03*
%TO.P,U2,22,ADC7*%
%TO.N,unconnected-(U2-Pad22)*%
X108580000Y-65920000D03*
%TO.P,U2,23,PC0*%
%TO.N,unconnected-(U2-Pad23)*%
X108580000Y-65120000D03*
%TO.P,U2,24,PC1*%
%TO.N,unconnected-(U2-Pad24)*%
X108580000Y-64320000D03*
D17*
%TO.P,U2,25,PC2*%
%TO.N,unconnected-(U2-Pad25)*%
X107130000Y-62870000D03*
%TO.P,U2,26,PC3*%
%TO.N,unconnected-(U2-Pad26)*%
X106330000Y-62870000D03*
%TO.P,U2,27,PC4*%
%TO.N,i2c-SDA*%
X105530000Y-62870000D03*
%TO.P,U2,28,PC5*%
%TO.N,i2c-SCL*%
X104730000Y-62870000D03*
%TO.P,U2,29,~{RESET}/PC6*%
%TO.N,unconnected-(U2-Pad29)*%
X103930000Y-62870000D03*
%TO.P,U2,30,PD0*%
%TO.N,Rx*%
X103130000Y-62870000D03*
%TO.P,U2,31,PD1*%
%TO.N,Tx*%
X102330000Y-62870000D03*
%TO.P,U2,32,PD2*%
%TO.N,sense*%
X101530000Y-62870000D03*
%TD*%
D14*
%TO.P,,2*%
%TO.N,GND*%
X94480000Y-71380000D03*
%TD*%
%TO.P,,4*%
%TO.N,sense*%
X94480000Y-62540000D03*
%TD*%
%TO.P,,3*%
%TO.N,+3.3V*%
X94490000Y-66960000D03*
%TD*%
D18*
%TO.N,CLK_OUT_SI5351*%
X98044000Y-76962000D03*
%TO.N,CLKOUT*%
X98044000Y-72390000D03*
%TO.N,GND*%
X111252000Y-76200000D03*
%TO.N,+3.3V*%
X102750000Y-72840000D03*
%TO.N,GND*%
X110550000Y-78250000D03*
X110450000Y-59900000D03*
X111350000Y-65350000D03*
X111350000Y-63550000D03*
X111350000Y-67100000D03*
X111350000Y-61500000D03*
X97300000Y-60500000D03*
X98100000Y-78200000D03*
X96500000Y-78200000D03*
X95000000Y-78200000D03*
X93450000Y-78200000D03*
X100550000Y-77600000D03*
X104050000Y-77600000D03*
X104900000Y-68600000D03*
X103200000Y-68600000D03*
X100200000Y-60500000D03*
%TO.N,+3.3V*%
X105100000Y-60650000D03*
X102120000Y-67510000D03*
X106080000Y-76170000D03*
%TO.N,i2c-SCL*%
X104580000Y-64550000D03*
%TO.N,i2c-SDA*%
X104620000Y-65720000D03*
%TO.N,GND*%
X97790000Y-69596000D03*
X108650000Y-71440000D03*
X108760000Y-62950000D03*
X102050000Y-65400000D03*
X99880000Y-71520000D03*
X104280000Y-69860000D03*
X111200000Y-71850000D03*
X106790000Y-64950000D03*
%TO.N,CLK_OPT*%
X110210000Y-76850000D03*
%TO.N,GND*%
X98800000Y-60500000D03*
X102362000Y-74560000D03*
X110500000Y-74950000D03*
X97790000Y-71120000D03*
%TO.N,i2c-SCL*%
X107400000Y-73060000D03*
%TO.N,i2c-SDA*%
X105790000Y-73060000D03*
%TD*%
D19*
%TO.N,CLK_OUT_SI5351*%
X98044000Y-75626000D02*
X98044000Y-76962000D01*
%TO.N,CLKOUT*%
X98044000Y-72390000D02*
X98044000Y-73726000D01*
X98044000Y-73726000D02*
X96544000Y-73726000D01*
X96544000Y-73726000D02*
X94480000Y-75790000D01*
X94480000Y-75790000D02*
X95270000Y-75790000D01*
%TO.N,CLK_OUT_SI5351*%
X98078000Y-75660000D02*
X98044000Y-75626000D01*
X100162000Y-75660000D02*
X98078000Y-75660000D01*
D20*
%TO.N,+3.3V*%
X96200000Y-66106000D02*
X97790000Y-66106000D01*
D19*
X95346000Y-66960000D02*
X96200000Y-66106000D01*
X94490000Y-66960000D02*
X95346000Y-66960000D01*
%TO.N,GND*%
X98364000Y-68006000D02*
X98850000Y-67520000D01*
X98850000Y-67520000D02*
X100080000Y-67520000D01*
X97790000Y-68006000D02*
X98364000Y-68006000D01*
%TO.N,+3.3V*%
X98978000Y-66720000D02*
X100080000Y-66720000D01*
X98364000Y-66106000D02*
X98978000Y-66720000D01*
X97790000Y-66106000D02*
X98364000Y-66106000D01*
%TO.N,i2c-SCL*%
X104562000Y-74160000D02*
X105820000Y-74160000D01*
%TO.N,i2c-SDA*%
X105190000Y-73660000D02*
X105790000Y-73060000D01*
X104562000Y-73660000D02*
X105190000Y-73660000D01*
%TO.N,REF_CLK_OUT*%
X106509998Y-75160000D02*
X107159998Y-74510000D01*
X104562000Y-75160000D02*
X106509998Y-75160000D01*
%TO.N,+3.3V*%
X102420000Y-72840000D02*
X102750000Y-72840000D01*
X101100000Y-74160000D02*
X102420000Y-72840000D01*
X100162000Y-74160000D02*
X101100000Y-74160000D01*
%TO.N,GND*%
X102262000Y-74660000D02*
X102362000Y-74560000D01*
X100162000Y-74660000D02*
X102262000Y-74660000D01*
X110002000Y-74950000D02*
X110500000Y-74950000D01*
X108809998Y-74510000D02*
X109562000Y-74510000D01*
X109562000Y-74510000D02*
X110002000Y-74950000D01*
%TO.N,REF_CLK_OUT*%
X108204000Y-73406000D02*
X110744000Y-73406000D01*
X107159998Y-74450002D02*
X108204000Y-73406000D01*
X107159998Y-74510000D02*
X107159998Y-74450002D01*
%TO.N,+3.3V*%
X103830000Y-75660000D02*
X105570000Y-75660000D01*
X105570000Y-75660000D02*
X106080000Y-76170000D01*
X101500000Y-77100000D02*
X102940000Y-75660000D01*
X101500000Y-77600000D02*
X101500000Y-77100000D01*
X102940000Y-75660000D02*
X103830000Y-75660000D01*
X106080000Y-76520000D02*
X105000000Y-77600000D01*
X106080000Y-76170000D02*
X106080000Y-76520000D01*
D20*
X110230000Y-69120000D02*
X110750000Y-68600000D01*
X108580000Y-69120000D02*
X110230000Y-69120000D01*
D19*
X105100000Y-60650000D02*
X103900000Y-60650000D01*
X103900000Y-60650000D02*
X103750000Y-60500000D01*
X106300000Y-60650000D02*
X106450000Y-60500000D01*
X105100000Y-60650000D02*
X106300000Y-60650000D01*
X105100000Y-60650000D02*
X105250000Y-60500000D01*
%TO.N,i2c-SDA*%
X108350000Y-61200000D02*
X108350000Y-60500000D01*
X105800000Y-61700000D02*
X107850000Y-61700000D01*
X105530000Y-61970000D02*
X105800000Y-61700000D01*
X105530000Y-62870000D02*
X105530000Y-61970000D01*
X107850000Y-61700000D02*
X108350000Y-61200000D01*
%TO.N,i2c-SCL*%
X104750000Y-61900000D02*
X104750000Y-62850000D01*
X104450000Y-61600000D02*
X104750000Y-61900000D01*
X104750000Y-62850000D02*
X104730000Y-62870000D01*
X102950000Y-61600000D02*
X104450000Y-61600000D01*
X101850000Y-60500000D02*
X102950000Y-61600000D01*
%TO.N,CLKOUT*%
X94480000Y-75790000D02*
X95339999Y-76649999D01*
%TO.N,+3.3V*%
X95275000Y-66175000D02*
X94490000Y-66960000D01*
X100080000Y-66720000D02*
X100060000Y-66700000D01*
X99900000Y-66900000D02*
X100080000Y-66720000D01*
%TO.N,CLK_OPT*%
X108809998Y-76610000D02*
X109049998Y-76850000D01*
D20*
X109049998Y-76850000D02*
X110210000Y-76850000D01*
D21*
%TO.N,+3.3V*%
X94410000Y-67310000D02*
X94880000Y-67310000D01*
D19*
X106719998Y-76170000D02*
X107159998Y-76610000D01*
D22*
X100080000Y-66720000D02*
X101330000Y-66720000D01*
X100080000Y-68320000D02*
X101310000Y-68320000D01*
D19*
X94812500Y-67282500D02*
X94490000Y-66960000D01*
D22*
X102120000Y-67510000D02*
X105430000Y-67510000D01*
X101310000Y-68320000D02*
X102120000Y-67510000D01*
X105430000Y-67510000D02*
X107060000Y-69140000D01*
D19*
X106759998Y-77010000D02*
X107159998Y-76610000D01*
D22*
X101330000Y-66720000D02*
X102120000Y-67510000D01*
X107060000Y-69140000D02*
X108560000Y-69140000D01*
D21*
X95580000Y-67310000D02*
X96160000Y-67310000D01*
D19*
X106080000Y-76170000D02*
X106719998Y-76170000D01*
X94020000Y-67300000D02*
X94350000Y-67300000D01*
X95330000Y-67310000D02*
X94880000Y-67310000D01*
X108560000Y-69140000D02*
X108580000Y-69120000D01*
D21*
X94880000Y-67310000D02*
X95580000Y-67310000D01*
X94060000Y-67310000D02*
X94410000Y-67310000D01*
D19*
%TO.N,REF_CLK_OUT*%
X107159998Y-74920007D02*
X106720001Y-74920002D01*
X107139998Y-74490000D02*
X107159998Y-74510000D01*
%TO.N,GND*%
X99932500Y-67667500D02*
X100080000Y-67520000D01*
X107770000Y-66720000D02*
X106790000Y-65740000D01*
X108580000Y-66720000D02*
X107770000Y-66720000D01*
X106790000Y-65740000D02*
X106790000Y-64950000D01*
D22*
X101530000Y-65920000D02*
X102050000Y-65400000D01*
X100080000Y-65920000D02*
X101530000Y-65920000D01*
%TO.N,sense*%
X101200000Y-62540000D02*
X101530000Y-62870000D01*
D19*
X94480000Y-62540000D02*
X95390000Y-61630000D01*
D23*
X94480000Y-62540000D02*
X101200000Y-62540000D01*
D19*
X94480000Y-62540000D02*
X95670000Y-63730000D01*
%TO.N,Tx*%
X102330000Y-62870000D02*
X102230000Y-62770000D01*
D22*
%TO.N,i2c-SCL*%
X104730000Y-62870000D02*
X104730000Y-64400000D01*
X104730000Y-64400000D02*
X104580000Y-64550000D01*
D19*
X107400000Y-73060000D02*
X106920000Y-73060000D01*
X106920000Y-73060000D02*
X105820000Y-74160000D01*
D22*
%TO.N,i2c-SDA*%
X104800000Y-65720000D02*
X105530000Y-64990000D01*
X105530000Y-64990000D02*
X105530000Y-62870000D01*
D19*
X105540000Y-62860000D02*
X105530000Y-62870000D01*
D22*
X104620000Y-65720000D02*
X104800000Y-65720000D01*
%TD*%
%TA.AperFunction,Conductor*%
%TO.N,GND*%
G36*
X97199851Y-77323245D02*
G01*
X97216661Y-77346006D01*
X97304960Y-77498944D01*
X97309378Y-77503851D01*
X97309379Y-77503852D01*
X97331902Y-77528866D01*
X97432747Y-77640866D01*
X97521335Y-77705229D01*
X97574378Y-77743767D01*
X97587248Y-77753118D01*
X97593276Y-77755802D01*
X97593278Y-77755803D01*
X97755679Y-77828108D01*
X97761712Y-77830794D01*
X97855112Y-77850647D01*
X97942056Y-77869128D01*
X97942061Y-77869128D01*
X97948513Y-77870500D01*
X98139487Y-77870500D01*
X98145939Y-77869128D01*
X98145944Y-77869128D01*
X98232888Y-77850647D01*
X98326288Y-77830794D01*
X98332315Y-77828111D01*
X98332323Y-77828108D01*
X98414252Y-77791631D01*
X98484619Y-77782197D01*
X98548916Y-77812304D01*
X98586729Y-77872393D01*
X98591500Y-77906738D01*
X98591500Y-78125400D01*
X98602474Y-78231166D01*
X98604657Y-78237708D01*
X98604657Y-78237710D01*
X98626414Y-78302924D01*
X98628999Y-78373874D01*
X98592816Y-78434958D01*
X98529352Y-78466783D01*
X98507339Y-78468800D01*
X97535862Y-78472252D01*
X92757573Y-78489231D01*
X92689382Y-78469471D01*
X92642699Y-78415981D01*
X92631127Y-78362713D01*
X92631393Y-78298259D01*
X92632933Y-77923981D01*
X92653215Y-77855944D01*
X92707062Y-77809672D01*
X92758932Y-77798500D01*
X96528134Y-77798500D01*
X96590316Y-77791745D01*
X96726705Y-77740615D01*
X96843261Y-77653261D01*
X96930615Y-77536705D01*
X96981745Y-77400316D01*
X96982598Y-77392460D01*
X96984425Y-77384778D01*
X96986489Y-77385269D01*
X97009517Y-77329841D01*
X97067878Y-77289412D01*
X97138832Y-77286953D01*
X97199851Y-77323245D01*
G37*
%TD.AperFunction*%
%TA.AperFunction,Conductor*%
G36*
X111247728Y-77061940D02*
G01*
X111300034Y-77109946D01*
X111318133Y-77175530D01*
X111317287Y-77381226D01*
X111313768Y-78236385D01*
X111313513Y-78298259D01*
X111293231Y-78366297D01*
X111239384Y-78412569D01*
X111187962Y-78423740D01*
X106102486Y-78441811D01*
X106034294Y-78422051D01*
X105987611Y-78368561D01*
X105977258Y-78298324D01*
X105982443Y-78276151D01*
X105997797Y-78229861D01*
X106008500Y-78125400D01*
X106008500Y-77683600D01*
X106028502Y-77615479D01*
X106082158Y-77568986D01*
X106152432Y-77558882D01*
X106217012Y-77588376D01*
X106235324Y-77608033D01*
X106246737Y-77623261D01*
X106363293Y-77710615D01*
X106499682Y-77761745D01*
X106561864Y-77768500D01*
X107758132Y-77768500D01*
X107820314Y-77761745D01*
X107827710Y-77758973D01*
X107827716Y-77758971D01*
X107940769Y-77716589D01*
X108011576Y-77711406D01*
X108029227Y-77716589D01*
X108142280Y-77758971D01*
X108142286Y-77758973D01*
X108149682Y-77761745D01*
X108211864Y-77768500D01*
X109408132Y-77768500D01*
X109470314Y-77761745D01*
X109606703Y-77710615D01*
X109634999Y-77689409D01*
X109660274Y-77670466D01*
X109726781Y-77645618D01*
X109787087Y-77656185D01*
X109921677Y-77716108D01*
X109921685Y-77716111D01*
X109927712Y-77718794D01*
X110021113Y-77738647D01*
X110108056Y-77757128D01*
X110108061Y-77757128D01*
X110114513Y-77758500D01*
X110305487Y-77758500D01*
X110311939Y-77757128D01*
X110311944Y-77757128D01*
X110398887Y-77738647D01*
X110492288Y-77718794D01*
X110508882Y-77711406D01*
X110660722Y-77643803D01*
X110660724Y-77643802D01*
X110666752Y-77641118D01*
X110673859Y-77635955D01*
X110766033Y-77568986D01*
X110821253Y-77528866D01*
X110949040Y-77386944D01*
X111044527Y-77221556D01*
X111072302Y-77136075D01*
X111112374Y-77077470D01*
X111177771Y-77049833D01*
X111247728Y-77061940D01*
G37*
%TD.AperFunction*%
%TA.AperFunction,Conductor*%
G36*
X109889190Y-74276002D02*
G01*
X109896634Y-74281174D01*
X109940273Y-74313879D01*
X109997295Y-74356615D01*
X110133684Y-74407745D01*
X110195866Y-74414500D01*
X111202977Y-74414500D01*
X111271098Y-74434502D01*
X111317591Y-74488158D01*
X111328976Y-74541017D01*
X111322940Y-76007570D01*
X111320775Y-76533637D01*
X111300493Y-76601674D01*
X111246646Y-76647946D01*
X111176331Y-76657761D01*
X111111872Y-76628002D01*
X111074943Y-76572054D01*
X111046569Y-76484729D01*
X111044527Y-76478444D01*
X111040455Y-76471390D01*
X110979896Y-76366500D01*
X110949040Y-76313056D01*
X110830164Y-76181030D01*
X110825675Y-76176045D01*
X110825674Y-76176044D01*
X110821253Y-76171134D01*
X110666752Y-76058882D01*
X110660724Y-76056198D01*
X110660722Y-76056197D01*
X110498319Y-75983891D01*
X110498318Y-75983891D01*
X110492288Y-75981206D01*
X110398887Y-75961353D01*
X110311944Y-75942872D01*
X110311939Y-75942872D01*
X110305487Y-75941500D01*
X110114513Y-75941500D01*
X110108053Y-75942873D01*
X110108054Y-75942873D01*
X110013596Y-75962950D01*
X109942806Y-75957548D01*
X109886173Y-75914731D01*
X109866596Y-75864705D01*
X109864423Y-75865222D01*
X109862596Y-75857540D01*
X109861743Y-75849684D01*
X109810613Y-75713295D01*
X109752045Y-75635148D01*
X109727197Y-75568642D01*
X109742250Y-75499259D01*
X109752045Y-75484018D01*
X109804784Y-75413648D01*
X109813322Y-75398054D01*
X109858476Y-75277606D01*
X109862103Y-75262351D01*
X109867629Y-75211486D01*
X109867998Y-75204672D01*
X109867998Y-74782115D01*
X109863523Y-74766876D01*
X109862133Y-74765671D01*
X109854450Y-74764000D01*
X108681998Y-74764000D01*
X108613877Y-74743998D01*
X108567384Y-74690342D01*
X108555998Y-74638000D01*
X108555998Y-74382000D01*
X108576000Y-74313879D01*
X108629656Y-74267386D01*
X108681998Y-74256000D01*
X109821069Y-74256000D01*
X109889190Y-74276002D01*
G37*
%TD.AperFunction*%
%TA.AperFunction,Conductor*%
G36*
X103310915Y-73665371D02*
G01*
X103348729Y-73725460D01*
X103353500Y-73759805D01*
X103353500Y-73858134D01*
X103353869Y-73861529D01*
X103353869Y-73861533D01*
X103357656Y-73896393D01*
X103357656Y-73923606D01*
X103353500Y-73961866D01*
X103353500Y-74358134D01*
X103353869Y-74361529D01*
X103353869Y-74361533D01*
X103357656Y-74396393D01*
X103357656Y-74423606D01*
X103353500Y-74461866D01*
X103353500Y-74858134D01*
X103353869Y-74861529D01*
X103353869Y-74861533D01*
X103356624Y-74886893D01*
X103344096Y-74956775D01*
X103295774Y-75008791D01*
X103231361Y-75026500D01*
X103018768Y-75026500D01*
X103007585Y-75025973D01*
X103000092Y-75024298D01*
X102992166Y-75024547D01*
X102992165Y-75024547D01*
X102932002Y-75026438D01*
X102928044Y-75026500D01*
X102900144Y-75026500D01*
X102896154Y-75027004D01*
X102884320Y-75027936D01*
X102840111Y-75029326D01*
X102832495Y-75031539D01*
X102832493Y-75031539D01*
X102820652Y-75034979D01*
X102801293Y-75038988D01*
X102799983Y-75039154D01*
X102781203Y-75041526D01*
X102773837Y-75044442D01*
X102773831Y-75044444D01*
X102740098Y-75057800D01*
X102728868Y-75061645D01*
X102694017Y-75071770D01*
X102686407Y-75073981D01*
X102679584Y-75078016D01*
X102668966Y-75084295D01*
X102651213Y-75092992D01*
X102643568Y-75096019D01*
X102632383Y-75100448D01*
X102625968Y-75105109D01*
X102596612Y-75126437D01*
X102586695Y-75132951D01*
X102548638Y-75155458D01*
X102534317Y-75169779D01*
X102519284Y-75182619D01*
X102502893Y-75194528D01*
X102497842Y-75200634D01*
X102474702Y-75228605D01*
X102466722Y-75237374D01*
X101523064Y-76181031D01*
X101460754Y-76215055D01*
X101389938Y-76209990D01*
X101333103Y-76167443D01*
X101308292Y-76100923D01*
X101315989Y-76047704D01*
X101339912Y-75983891D01*
X101363745Y-75920316D01*
X101370500Y-75858134D01*
X101370500Y-75461866D01*
X101366344Y-75423606D01*
X101366344Y-75396393D01*
X101370131Y-75361533D01*
X101370131Y-75361529D01*
X101370500Y-75358134D01*
X101370500Y-74961866D01*
X101366091Y-74921280D01*
X101366091Y-74894067D01*
X101369631Y-74861483D01*
X101370000Y-74854672D01*
X101370000Y-74811083D01*
X101390002Y-74742962D01*
X101421940Y-74709147D01*
X101443387Y-74693565D01*
X101453307Y-74687048D01*
X101484535Y-74668580D01*
X101484538Y-74668578D01*
X101491362Y-74664542D01*
X101505683Y-74650221D01*
X101520717Y-74637380D01*
X101530694Y-74630131D01*
X101537107Y-74625472D01*
X101565298Y-74591395D01*
X101573288Y-74582616D01*
X102402346Y-73753558D01*
X102464658Y-73719532D01*
X102517637Y-73719406D01*
X102546119Y-73725460D01*
X102648056Y-73747128D01*
X102648061Y-73747128D01*
X102654513Y-73748500D01*
X102845487Y-73748500D01*
X102851939Y-73747128D01*
X102851944Y-73747128D01*
X102953881Y-73725460D01*
X103032288Y-73708794D01*
X103153153Y-73654982D01*
X103176251Y-73644698D01*
X103246618Y-73635264D01*
X103310915Y-73665371D01*
G37*
%TD.AperFunction*%
%TA.AperFunction,Conductor*%
G36*
X97986121Y-67772002D02*
G01*
X98032614Y-67825658D01*
X98044000Y-67878000D01*
X98044000Y-68995884D01*
X98048475Y-69011123D01*
X98049865Y-69012328D01*
X98057548Y-69013999D01*
X98312095Y-69013999D01*
X98318614Y-69013662D01*
X98414206Y-69003743D01*
X98427600Y-69000851D01*
X98581792Y-68949409D01*
X98592050Y-68944604D01*
X98662222Y-68933820D01*
X98727086Y-68962686D01*
X98766047Y-69022037D01*
X98771500Y-69058705D01*
X98771500Y-69443134D01*
X98771869Y-69446531D01*
X98778255Y-69505316D01*
X98775826Y-69505580D01*
X98775826Y-69534420D01*
X98778255Y-69534684D01*
X98771500Y-69596866D01*
X98771500Y-70243134D01*
X98778255Y-70305316D01*
X98829385Y-70441705D01*
X98916739Y-70558261D01*
X99033295Y-70645615D01*
X99169684Y-70696745D01*
X99231866Y-70703500D01*
X100620500Y-70703500D01*
X100688621Y-70723502D01*
X100735114Y-70777158D01*
X100746500Y-70829500D01*
X100746500Y-72218134D01*
X100753255Y-72280316D01*
X100804385Y-72416705D01*
X100891739Y-72533261D01*
X101008295Y-72620615D01*
X101144684Y-72671745D01*
X101206866Y-72678500D01*
X101381406Y-72678500D01*
X101449527Y-72698502D01*
X101496020Y-72752158D01*
X101506124Y-72822432D01*
X101476630Y-72887012D01*
X101470501Y-72893595D01*
X101297988Y-73066108D01*
X101235676Y-73100134D01*
X101164861Y-73095069D01*
X101133328Y-73077839D01*
X101117675Y-73066108D01*
X101108705Y-73059385D01*
X100972316Y-73008255D01*
X100910134Y-73001500D01*
X99413866Y-73001500D01*
X99351684Y-73008255D01*
X99260282Y-73042520D01*
X99189476Y-73047703D01*
X99127107Y-73013782D01*
X99120184Y-73006025D01*
X99117478Y-73001652D01*
X98992303Y-72876695D01*
X98950672Y-72851033D01*
X98903180Y-72798262D01*
X98891756Y-72728190D01*
X98896956Y-72704838D01*
X98935502Y-72586206D01*
X98937542Y-72579928D01*
X98942919Y-72528774D01*
X98956814Y-72396565D01*
X98957504Y-72390000D01*
X98945104Y-72272018D01*
X98938232Y-72206635D01*
X98938232Y-72206633D01*
X98937542Y-72200072D01*
X98878527Y-72018444D01*
X98783040Y-71853056D01*
X98655253Y-71711134D01*
X98500752Y-71598882D01*
X98494724Y-71596198D01*
X98494722Y-71596197D01*
X98332319Y-71523891D01*
X98332318Y-71523891D01*
X98326288Y-71521206D01*
X98232887Y-71501353D01*
X98145944Y-71482872D01*
X98145939Y-71482872D01*
X98139487Y-71481500D01*
X97948513Y-71481500D01*
X97942061Y-71482872D01*
X97942056Y-71482872D01*
X97855113Y-71501353D01*
X97761712Y-71521206D01*
X97755682Y-71523891D01*
X97755681Y-71523891D01*
X97593278Y-71596197D01*
X97593276Y-71596198D01*
X97587248Y-71598882D01*
X97432747Y-71711134D01*
X97304960Y-71853056D01*
X97301659Y-71858774D01*
X97223119Y-71994808D01*
X97171736Y-72043801D01*
X97102023Y-72057237D01*
X97036112Y-72030851D01*
X96994930Y-71973018D01*
X96988000Y-71931808D01*
X96988000Y-71652115D01*
X96983525Y-71636876D01*
X96982135Y-71635671D01*
X96974452Y-71634000D01*
X94752115Y-71634000D01*
X94736876Y-71638475D01*
X94735671Y-71639865D01*
X94734000Y-71647548D01*
X94734000Y-73369884D01*
X94738475Y-73385123D01*
X94739865Y-73386328D01*
X94747548Y-73387999D01*
X95681907Y-73387999D01*
X95750028Y-73408001D01*
X95796521Y-73461657D01*
X95806625Y-73531931D01*
X95777131Y-73596511D01*
X95771002Y-73603094D01*
X95629501Y-73744595D01*
X95567189Y-73778621D01*
X95540406Y-73781500D01*
X92776502Y-73781500D01*
X92708381Y-73761498D01*
X92661888Y-73707842D01*
X92650503Y-73654982D01*
X92651085Y-73513482D01*
X92671367Y-73445444D01*
X92725214Y-73399172D01*
X92777084Y-73388000D01*
X94207885Y-73388000D01*
X94223124Y-73383525D01*
X94224329Y-73382135D01*
X94226000Y-73374452D01*
X94226000Y-71107885D01*
X94734000Y-71107885D01*
X94738475Y-71123124D01*
X94739865Y-71124329D01*
X94747548Y-71126000D01*
X96969884Y-71126000D01*
X96985123Y-71121525D01*
X96986328Y-71120135D01*
X96987999Y-71112452D01*
X96987999Y-69835331D01*
X96987629Y-69828510D01*
X96982105Y-69777648D01*
X96978479Y-69762396D01*
X96933324Y-69641946D01*
X96924786Y-69626351D01*
X96848285Y-69524276D01*
X96835724Y-69511715D01*
X96733649Y-69435214D01*
X96718054Y-69426676D01*
X96597606Y-69381522D01*
X96582351Y-69377895D01*
X96531486Y-69372369D01*
X96524672Y-69372000D01*
X94752115Y-69372000D01*
X94736876Y-69376475D01*
X94735671Y-69377865D01*
X94734000Y-69385548D01*
X94734000Y-71107885D01*
X94226000Y-71107885D01*
X94226000Y-69390116D01*
X94221525Y-69374877D01*
X94220135Y-69373672D01*
X94212452Y-69372001D01*
X92794649Y-69372001D01*
X92726528Y-69351999D01*
X92680035Y-69298343D01*
X92668650Y-69245483D01*
X92669274Y-69093980D01*
X92689555Y-69025944D01*
X92743401Y-68979672D01*
X92795272Y-68968500D01*
X96538134Y-68968500D01*
X96600316Y-68961745D01*
X96736705Y-68910615D01*
X96743884Y-68905235D01*
X96743887Y-68905233D01*
X96756363Y-68895883D01*
X96822870Y-68871036D01*
X96898042Y-68889450D01*
X96986238Y-68943814D01*
X96999424Y-68949963D01*
X97153710Y-69001138D01*
X97167086Y-69004005D01*
X97261438Y-69013672D01*
X97267854Y-69014000D01*
X97517885Y-69014000D01*
X97533124Y-69009525D01*
X97534329Y-69008135D01*
X97536000Y-69000452D01*
X97536000Y-67878000D01*
X97556002Y-67809879D01*
X97609658Y-67763386D01*
X97662000Y-67752000D01*
X97918000Y-67752000D01*
X97986121Y-67772002D01*
G37*
%TD.AperFunction*%
%TA.AperFunction,Conductor*%
G36*
X110946121Y-70266002D02*
G01*
X110992614Y-70319658D01*
X111004000Y-70372000D01*
X111004000Y-71489884D01*
X111008475Y-71505123D01*
X111009865Y-71506328D01*
X111017548Y-71507999D01*
X111214938Y-71507999D01*
X111283059Y-71528001D01*
X111329552Y-71581657D01*
X111340937Y-71634517D01*
X111338314Y-72272018D01*
X111318032Y-72340056D01*
X111264185Y-72386328D01*
X111212315Y-72397500D01*
X110195866Y-72397500D01*
X110133684Y-72404255D01*
X109997295Y-72455385D01*
X109880739Y-72542739D01*
X109793385Y-72659295D01*
X109790232Y-72667704D01*
X109790231Y-72667707D01*
X109781599Y-72690731D01*
X109738957Y-72747495D01*
X109672395Y-72772194D01*
X109663618Y-72772500D01*
X108353021Y-72772500D01*
X108284900Y-72752498D01*
X108237915Y-72697750D01*
X108236567Y-72694722D01*
X108234527Y-72688444D01*
X108225379Y-72672598D01*
X108150404Y-72542739D01*
X108139040Y-72523056D01*
X108082959Y-72460771D01*
X108015675Y-72386045D01*
X108015674Y-72386044D01*
X108011253Y-72381134D01*
X107963329Y-72346315D01*
X107919975Y-72290092D01*
X107912127Y-72230769D01*
X107913500Y-72218134D01*
X107913500Y-70829500D01*
X107933502Y-70761379D01*
X107987158Y-70714886D01*
X108039500Y-70703500D01*
X109393348Y-70703500D01*
X109461469Y-70723502D01*
X109507962Y-70777158D01*
X109518675Y-70816497D01*
X109527257Y-70899206D01*
X109530149Y-70912600D01*
X109581588Y-71066784D01*
X109587761Y-71079962D01*
X109673063Y-71217807D01*
X109682099Y-71229208D01*
X109796829Y-71343739D01*
X109808240Y-71352751D01*
X109946243Y-71437816D01*
X109959424Y-71443963D01*
X110113710Y-71495138D01*
X110127086Y-71498005D01*
X110221438Y-71507672D01*
X110227854Y-71508000D01*
X110477885Y-71508000D01*
X110493124Y-71503525D01*
X110494329Y-71502135D01*
X110496000Y-71494452D01*
X110496000Y-70372000D01*
X110516002Y-70303879D01*
X110569658Y-70257386D01*
X110622000Y-70246000D01*
X110878000Y-70246000D01*
X110946121Y-70266002D01*
G37*
%TD.AperFunction*%
%TA.AperFunction,Conductor*%
G36*
X106806866Y-64178500D02*
G01*
X107145500Y-64178500D01*
X107213621Y-64198502D01*
X107260114Y-64252158D01*
X107271500Y-64304500D01*
X107271500Y-64643134D01*
X107271869Y-64646531D01*
X107278255Y-64705316D01*
X107275826Y-64705580D01*
X107275826Y-64734420D01*
X107278255Y-64734684D01*
X107271500Y-64796866D01*
X107271500Y-65443134D01*
X107271869Y-65446531D01*
X107278255Y-65505316D01*
X107275826Y-65505580D01*
X107275826Y-65534420D01*
X107278255Y-65534684D01*
X107271500Y-65596866D01*
X107271500Y-66243134D01*
X107271869Y-66246531D01*
X107278255Y-66305316D01*
X107276116Y-66305548D01*
X107276166Y-66334512D01*
X107278748Y-66334793D01*
X107272369Y-66393514D01*
X107272000Y-66400328D01*
X107272000Y-66447885D01*
X107276475Y-66463124D01*
X107277865Y-66464329D01*
X107298783Y-66468879D01*
X107298518Y-66470097D01*
X107352687Y-66486002D01*
X107385392Y-66516435D01*
X107416739Y-66558261D01*
X107423919Y-66563642D01*
X107498015Y-66619174D01*
X107540530Y-66676033D01*
X107545556Y-66746852D01*
X107511496Y-66809145D01*
X107498016Y-66820825D01*
X107416739Y-66881739D01*
X107411358Y-66888919D01*
X107411357Y-66888920D01*
X107385392Y-66923565D01*
X107328533Y-66966080D01*
X107298926Y-66971413D01*
X107274877Y-66978475D01*
X107273672Y-66979865D01*
X107272001Y-66987548D01*
X107272001Y-67039669D01*
X107272371Y-67046490D01*
X107278748Y-67105207D01*
X107276002Y-67105505D01*
X107276060Y-67134446D01*
X107278255Y-67134684D01*
X107271500Y-67196866D01*
X107271500Y-67843134D01*
X107271869Y-67846531D01*
X107278255Y-67905316D01*
X107275826Y-67905580D01*
X107275826Y-67934420D01*
X107278255Y-67934684D01*
X107271500Y-67996866D01*
X107271500Y-68009984D01*
X107251498Y-68078105D01*
X107197842Y-68124598D01*
X107127568Y-68134702D01*
X107062988Y-68105208D01*
X107056405Y-68099079D01*
X105994748Y-67037423D01*
X105982361Y-67023010D01*
X105974441Y-67012248D01*
X105970100Y-67006349D01*
X105931280Y-66973369D01*
X105923764Y-66966439D01*
X105918380Y-66961055D01*
X105915519Y-66958792D01*
X105915514Y-66958787D01*
X105896909Y-66944068D01*
X105893507Y-66941279D01*
X105845328Y-66900347D01*
X105845324Y-66900344D01*
X105839749Y-66895608D01*
X105833228Y-66892279D01*
X105828549Y-66889158D01*
X105823795Y-66886222D01*
X105818057Y-66881682D01*
X105754147Y-66851811D01*
X105750239Y-66849901D01*
X105687418Y-66817824D01*
X105680306Y-66816084D01*
X105675020Y-66814118D01*
X105669735Y-66812360D01*
X105663105Y-66809261D01*
X105594032Y-66794894D01*
X105589748Y-66793924D01*
X105521279Y-66777170D01*
X105515677Y-66776822D01*
X105515674Y-66776822D01*
X105510480Y-66776500D01*
X105510481Y-66776476D01*
X105506066Y-66776212D01*
X105502816Y-66775922D01*
X105495648Y-66774431D01*
X105429851Y-66776211D01*
X105420877Y-66776454D01*
X105417469Y-66776500D01*
X105073478Y-66776500D01*
X105005357Y-66756498D01*
X104958864Y-66702842D01*
X104948760Y-66632568D01*
X104978254Y-66567988D01*
X105022230Y-66535393D01*
X105070719Y-66513805D01*
X105070726Y-66513801D01*
X105076752Y-66511118D01*
X105231253Y-66398866D01*
X105289213Y-66334495D01*
X105354621Y-66261852D01*
X105354622Y-66261851D01*
X105359040Y-66256944D01*
X105430875Y-66132523D01*
X105450897Y-66106429D01*
X106002580Y-65554745D01*
X106016994Y-65542358D01*
X106027752Y-65534441D01*
X106033651Y-65530100D01*
X106066631Y-65491280D01*
X106073561Y-65483764D01*
X106078945Y-65478380D01*
X106081208Y-65475519D01*
X106081213Y-65475514D01*
X106095932Y-65456909D01*
X106098721Y-65453507D01*
X106139653Y-65405328D01*
X106139656Y-65405324D01*
X106144392Y-65399749D01*
X106147721Y-65393228D01*
X106150842Y-65388549D01*
X106153778Y-65383795D01*
X106158318Y-65378057D01*
X106174834Y-65342721D01*
X106188189Y-65314146D01*
X106190099Y-65310239D01*
X106222176Y-65247418D01*
X106223916Y-65240306D01*
X106225882Y-65235020D01*
X106227640Y-65229735D01*
X106230739Y-65223105D01*
X106245106Y-65154032D01*
X106246076Y-65149748D01*
X106253147Y-65120851D01*
X106262830Y-65081279D01*
X106263500Y-65070480D01*
X106263524Y-65070481D01*
X106263788Y-65066066D01*
X106264078Y-65062816D01*
X106265569Y-65055648D01*
X106263546Y-64980877D01*
X106263500Y-64977469D01*
X106263500Y-64304500D01*
X106283502Y-64236379D01*
X106337158Y-64189886D01*
X106389500Y-64178500D01*
X106653134Y-64178500D01*
X106715316Y-64171745D01*
X106715580Y-64174174D01*
X106744420Y-64174174D01*
X106744684Y-64171745D01*
X106806866Y-64178500D01*
G37*
%TD.AperFunction*%
%TA.AperFunction,Conductor*%
G36*
X111330617Y-59880529D02*
G01*
X111377300Y-59934019D01*
X111388872Y-59987287D01*
X111358093Y-67466019D01*
X111337811Y-67534056D01*
X111283964Y-67580328D01*
X111232094Y-67591500D01*
X110224600Y-67591500D01*
X110221354Y-67591837D01*
X110221350Y-67591837D01*
X110125692Y-67601762D01*
X110125688Y-67601763D01*
X110118834Y-67602474D01*
X110112298Y-67604655D01*
X110112296Y-67604655D01*
X110054376Y-67623979D01*
X109983427Y-67626563D01*
X109922343Y-67590380D01*
X109890518Y-67526916D01*
X109888500Y-67504455D01*
X109888500Y-67196866D01*
X109881745Y-67134684D01*
X109883884Y-67134452D01*
X109883834Y-67105488D01*
X109881252Y-67105207D01*
X109887631Y-67046486D01*
X109888000Y-67039672D01*
X109888000Y-66992115D01*
X109883525Y-66976876D01*
X109882135Y-66975671D01*
X109861217Y-66971121D01*
X109861482Y-66969903D01*
X109807313Y-66953998D01*
X109774608Y-66923565D01*
X109748643Y-66888920D01*
X109748642Y-66888919D01*
X109743261Y-66881739D01*
X109661985Y-66820826D01*
X109619470Y-66763967D01*
X109614444Y-66693148D01*
X109648504Y-66630855D01*
X109661985Y-66619174D01*
X109736081Y-66563642D01*
X109743261Y-66558261D01*
X109774608Y-66516435D01*
X109831467Y-66473920D01*
X109861074Y-66468587D01*
X109885123Y-66461525D01*
X109886328Y-66460135D01*
X109887999Y-66452452D01*
X109887999Y-66400331D01*
X109887629Y-66393510D01*
X109881252Y-66334793D01*
X109883998Y-66334495D01*
X109883940Y-66305554D01*
X109881745Y-66305316D01*
X109888131Y-66246531D01*
X109888500Y-66243134D01*
X109888500Y-65596866D01*
X109881745Y-65534684D01*
X109884174Y-65534420D01*
X109884174Y-65505580D01*
X109881745Y-65505316D01*
X109888131Y-65446531D01*
X109888500Y-65443134D01*
X109888500Y-64796866D01*
X109881745Y-64734684D01*
X109884174Y-64734420D01*
X109884174Y-64705580D01*
X109881745Y-64705316D01*
X109888131Y-64646531D01*
X109888500Y-64643134D01*
X109888500Y-63996866D01*
X109881745Y-63934684D01*
X109830615Y-63798295D01*
X109743261Y-63681739D01*
X109626705Y-63594385D01*
X109490316Y-63543255D01*
X109428134Y-63536500D01*
X108039500Y-63536500D01*
X107971379Y-63516498D01*
X107924886Y-63462842D01*
X107913500Y-63410500D01*
X107913500Y-62439652D01*
X107933502Y-62371531D01*
X107987158Y-62325038D01*
X108004014Y-62319078D01*
X108008797Y-62318474D01*
X108016168Y-62315555D01*
X108016170Y-62315555D01*
X108049912Y-62302196D01*
X108061142Y-62298351D01*
X108095983Y-62288229D01*
X108095984Y-62288229D01*
X108103593Y-62286018D01*
X108110412Y-62281985D01*
X108110417Y-62281983D01*
X108121028Y-62275707D01*
X108138776Y-62267012D01*
X108157617Y-62259552D01*
X108193387Y-62233564D01*
X108203307Y-62227048D01*
X108234535Y-62208580D01*
X108234538Y-62208578D01*
X108241362Y-62204542D01*
X108255683Y-62190221D01*
X108270717Y-62177380D01*
X108280693Y-62170132D01*
X108287107Y-62165472D01*
X108315288Y-62131407D01*
X108323278Y-62122626D01*
X108689096Y-61756809D01*
X108751013Y-61723061D01*
X108756166Y-61722526D01*
X108762702Y-61720345D01*
X108762704Y-61720345D01*
X108916998Y-61668868D01*
X108923946Y-61666550D01*
X109074348Y-61573478D01*
X109199305Y-61448303D01*
X109292115Y-61297738D01*
X109347797Y-61129861D01*
X109358500Y-61025400D01*
X109358500Y-59993087D01*
X109378502Y-59924966D01*
X109432158Y-59878473D01*
X109484050Y-59867088D01*
X111262426Y-59860769D01*
X111330617Y-59880529D01*
G37*
%TD.AperFunction*%
%TA.AperFunction,Conductor*%
G36*
X103559314Y-64173334D02*
G01*
X103586594Y-64176298D01*
X103652156Y-64203540D01*
X103692581Y-64261904D01*
X103695036Y-64332858D01*
X103692818Y-64340497D01*
X103686458Y-64360072D01*
X103685768Y-64366638D01*
X103685767Y-64366642D01*
X103672406Y-64493767D01*
X103666496Y-64550000D01*
X103667186Y-64556565D01*
X103684364Y-64720000D01*
X103686458Y-64739928D01*
X103745473Y-64921556D01*
X103748776Y-64927278D01*
X103748777Y-64927279D01*
X103779722Y-64980877D01*
X103840960Y-65086944D01*
X103845378Y-65091851D01*
X103846450Y-65093326D01*
X103870309Y-65160194D01*
X103853633Y-65230387D01*
X103807556Y-65310195D01*
X103785473Y-65348444D01*
X103726458Y-65530072D01*
X103725768Y-65536633D01*
X103725768Y-65536635D01*
X103714725Y-65641705D01*
X103706496Y-65720000D01*
X103707186Y-65726565D01*
X103719699Y-65845615D01*
X103726458Y-65909928D01*
X103785473Y-66091556D01*
X103880960Y-66256944D01*
X103885378Y-66261851D01*
X103885379Y-66261852D01*
X103950787Y-66334495D01*
X104008747Y-66398866D01*
X104163248Y-66511118D01*
X104169274Y-66513801D01*
X104169281Y-66513805D01*
X104217770Y-66535393D01*
X104271866Y-66581373D01*
X104292516Y-66649300D01*
X104273164Y-66717608D01*
X104219953Y-66764610D01*
X104166522Y-66776500D01*
X102696996Y-66776500D01*
X102628875Y-66756498D01*
X102622935Y-66752436D01*
X102582094Y-66722763D01*
X102582093Y-66722762D01*
X102576752Y-66718882D01*
X102570724Y-66716198D01*
X102570722Y-66716197D01*
X102408319Y-66643891D01*
X102408318Y-66643891D01*
X102402288Y-66641206D01*
X102294332Y-66618259D01*
X102231434Y-66584108D01*
X101894745Y-66247420D01*
X101882358Y-66233006D01*
X101874441Y-66222248D01*
X101870100Y-66216349D01*
X101831280Y-66183369D01*
X101823764Y-66176439D01*
X101818380Y-66171055D01*
X101815519Y-66168792D01*
X101815514Y-66168787D01*
X101796909Y-66154068D01*
X101793507Y-66151279D01*
X101745328Y-66110347D01*
X101745324Y-66110344D01*
X101739749Y-66105608D01*
X101733228Y-66102279D01*
X101728549Y-66099158D01*
X101723795Y-66096222D01*
X101718057Y-66091682D01*
X101704341Y-66085271D01*
X101654146Y-66061811D01*
X101650239Y-66059901D01*
X101587418Y-66027824D01*
X101580306Y-66026084D01*
X101575020Y-66024118D01*
X101569735Y-66022360D01*
X101563105Y-66019261D01*
X101494032Y-66004894D01*
X101489748Y-66003924D01*
X101421279Y-65987170D01*
X101415677Y-65986822D01*
X101415674Y-65986822D01*
X101410480Y-65986500D01*
X101410481Y-65986476D01*
X101406066Y-65986212D01*
X101402816Y-65985922D01*
X101395648Y-65984431D01*
X101329851Y-65986211D01*
X101320877Y-65986454D01*
X101317469Y-65986500D01*
X101316941Y-65986500D01*
X101248820Y-65966498D01*
X101202327Y-65912842D01*
X101192223Y-65842568D01*
X101221717Y-65777988D01*
X101230005Y-65770266D01*
X101229731Y-65769992D01*
X101236081Y-65763642D01*
X101243261Y-65758261D01*
X101274608Y-65716435D01*
X101331467Y-65673920D01*
X101361074Y-65668587D01*
X101385123Y-65661525D01*
X101386328Y-65660135D01*
X101387999Y-65652452D01*
X101387999Y-65600331D01*
X101387629Y-65593510D01*
X101381252Y-65534793D01*
X101383998Y-65534495D01*
X101383940Y-65505554D01*
X101381745Y-65505316D01*
X101388131Y-65446531D01*
X101388500Y-65443134D01*
X101388500Y-64796866D01*
X101381745Y-64734684D01*
X101384174Y-64734420D01*
X101384174Y-64705580D01*
X101381745Y-64705316D01*
X101388131Y-64646531D01*
X101388500Y-64643134D01*
X101388500Y-64304500D01*
X101408502Y-64236379D01*
X101462158Y-64189886D01*
X101514500Y-64178500D01*
X101853134Y-64178500D01*
X101915316Y-64171745D01*
X101915580Y-64174174D01*
X101944420Y-64174174D01*
X101944684Y-64171745D01*
X102006866Y-64178500D01*
X102653134Y-64178500D01*
X102715316Y-64171745D01*
X102715580Y-64174174D01*
X102744420Y-64174174D01*
X102744684Y-64171745D01*
X102806866Y-64178500D01*
X103453134Y-64178500D01*
X103515316Y-64171745D01*
X103515580Y-64174174D01*
X103544421Y-64174174D01*
X103544685Y-64171745D01*
X103559314Y-64173334D01*
G37*
%TD.AperFunction*%
%TA.AperFunction,Conductor*%
G36*
X100783244Y-59918008D02*
G01*
X100829927Y-59971498D01*
X100841500Y-60024247D01*
X100841500Y-61025400D01*
X100852474Y-61131166D01*
X100908450Y-61298946D01*
X100956460Y-61376529D01*
X100997671Y-61443126D01*
X100997674Y-61443130D01*
X101001522Y-61449348D01*
X101006699Y-61454516D01*
X101008862Y-61457245D01*
X101035499Y-61523055D01*
X101022327Y-61592819D01*
X100985683Y-61636332D01*
X100925648Y-61681326D01*
X100859141Y-61706174D01*
X100850083Y-61706500D01*
X97114500Y-61706500D01*
X97046379Y-61686498D01*
X96999886Y-61632842D01*
X96988500Y-61580500D01*
X96988500Y-60991866D01*
X96981745Y-60929684D01*
X96930615Y-60793295D01*
X96843261Y-60676739D01*
X96726705Y-60589385D01*
X96590316Y-60538255D01*
X96528134Y-60531500D01*
X92831033Y-60531500D01*
X92762912Y-60511498D01*
X92716419Y-60457842D01*
X92705034Y-60404982D01*
X92706487Y-60051741D01*
X92726769Y-59983703D01*
X92780616Y-59937431D01*
X92832038Y-59926260D01*
X96842367Y-59912009D01*
X100715053Y-59898248D01*
X100783244Y-59918008D01*
G37*
%TD.AperFunction*%
%TD*%
M02*
