  0
SECTION
  2
HEADER
  9
$ANGBASE
  50
0.0
  9
$ANGDIR
  70
1
  9
$MEASUREMENT
  70
0
  0
ENDSEC
  0
SECTION
  2
TABLES
  0
TABLE
  2
LTYPE
  70
4
  0
LTYPE
  5
40F
  2
CONTINUOUS
  70
0
  3
Solid line
  72
65
  73
0
  40
0.0
  0
LTYPE
  5
410
  2
DASHDOT
 70
0
  3
Dash Dot ____ _ ____ _
 72
65
 73
4
 40
2.0
 49
1.25
 49
-0.25
 49
0.25
 49
-0.25
  0
LTYPE
  5
411
  2
DASHED
 70
0
  3
Dashed __ __ __ __ __
 72
65
 73
2
 40
0.75
 49
0.5
 49
-0.25
  0
LTYPE
  5
43B
  2
DOTTED
 70
0
  3
Dotted .  .  .  .
 72
65
 73
2
 40
0.2
 49
0.0
 49
-0.2
  0
ENDTAB
  0
TABLE
  2
STYLE
  70
4
  0
STYLE
  2
KICAD
  70
0
  40
0
  41
1
  42
1
  50
0
  71
0
  3
isocp.shx
  0
STYLE
  2
KICADB
  70
0
  40
0
  41
1
  42
1
  50
0
  71
0
  3
isocp.shx
  0
STYLE
  2
KICADI
  70
0
  40
0
  41
1
  42
1
  50
15
  71
0
  3
isocp.shx
  0
STYLE
  2
KICADBI
  70
0
  40
0
  41
1
  42
1
  50
15
  71
0
  3
isocp.shx
  0
ENDTAB
  0
TABLE
  2
LAYER
  70
1
  0
LAYER
  2
BLACK
  70
0
  62
7
  6
CONTINUOUS
  0
ENDTAB
  0
ENDSEC
  0
SECTION
  2
ENTITIES
0
LINE
8
BLACK
6
CONTINUOUS
10
3.62677
20
-3.11024
11
4.40234
21
-3.10748
0
LINE
8
BLACK
6
CONTINUOUS
10
4.40234
20
-3.10748
11
4.40551
21
-2.33661
0
LINE
8
BLACK
6
CONTINUOUS
10
3.62994
20
-2.33937
11
4.40551
21
-2.33661
0
LINE
8
BLACK
6
CONTINUOUS
10
3.62677
20
-3.11024
11
3.62994
21
-2.33937
0
LINE
8
BLACK
6
CONTINUOUS
10
3.72623
20
-3.23444
11
3.72623
21
-3.1557
0
LINE
8
BLACK
6
CONTINUOUS
10
3.72623
20
-3.1557
11
3.74498
21
-3.1557
0
LINE
8
BLACK
6
CONTINUOUS
10
3.74498
20
-3.1557
11
3.75622
21
-3.15945
0
LINE
8
BLACK
6
CONTINUOUS
10
3.75622
20
-3.15945
11
3.76372
21
-3.16695
0
LINE
8
BLACK
6
CONTINUOUS
10
3.76372
20
-3.16695
11
3.76747
21
-3.17445
0
LINE
8
BLACK
6
CONTINUOUS
10
3.76747
20
-3.17445
11
3.77122
21
-3.18945
0
LINE
8
BLACK
6
CONTINUOUS
10
3.77122
20
-3.18945
11
3.77122
21
-3.20069
0
LINE
8
BLACK
6
CONTINUOUS
10
3.77122
20
-3.20069
11
3.76747
21
-3.21569
0
LINE
8
BLACK
6
CONTINUOUS
10
3.76747
20
-3.21569
11
3.76372
21
-3.22319
0
LINE
8
BLACK
6
CONTINUOUS
10
3.76372
20
-3.22319
11
3.75622
21
-3.23069
0
LINE
8
BLACK
6
CONTINUOUS
10
3.75622
20
-3.23069
11
3.74498
21
-3.23444
0
LINE
8
BLACK
6
CONTINUOUS
10
3.74498
20
-3.23444
11
3.72623
21
-3.23444
0
LINE
8
BLACK
6
CONTINUOUS
10
3.80497
20
-3.23444
11
3.80497
21
-3.18195
0
LINE
8
BLACK
6
CONTINUOUS
10
3.80497
20
-3.19694
11
3.80872
21
-3.18945
0
LINE
8
BLACK
6
CONTINUOUS
10
3.80872
20
-3.18945
11
3.81247
21
-3.1857
0
LINE
8
BLACK
6
CONTINUOUS
10
3.81247
20
-3.1857
11
3.81997
21
-3.18195
0
LINE
8
BLACK
6
CONTINUOUS
10
3.81997
20
-3.18195
11
3.82747
21
-3.18195
0
LINE
8
BLACK
6
CONTINUOUS
10
3.85371
20
-3.23444
11
3.85371
21
-3.18195
0
LINE
8
BLACK
6
CONTINUOUS
10
3.85371
20
-3.1557
11
3.84996
21
-3.15945
0
LINE
8
BLACK
6
CONTINUOUS
10
3.84996
20
-3.15945
11
3.85371
21
-3.1632
0
LINE
8
BLACK
6
CONTINUOUS
10
3.85371
20
-3.1632
11
3.85746
21
-3.15945
0
LINE
8
BLACK
6
CONTINUOUS
10
3.85746
20
-3.15945
11
3.85371
21
-3.1557
0
LINE
8
BLACK
6
CONTINUOUS
10
3.85371
20
-3.1557
11
3.85371
21
-3.1632
0
LINE
8
BLACK
6
CONTINUOUS
10
3.90246
20
-3.23444
11
3.89496
21
-3.23069
0
LINE
8
BLACK
6
CONTINUOUS
10
3.89496
20
-3.23069
11
3.89121
21
-3.22319
0
LINE
8
BLACK
6
CONTINUOUS
10
3.89121
20
-3.22319
11
3.89121
21
-3.1557
0
LINE
8
BLACK
6
CONTINUOUS
10
3.9437
20
-3.23444
11
3.9362
21
-3.23069
0
LINE
8
BLACK
6
CONTINUOUS
10
3.9362
20
-3.23069
11
3.93245
21
-3.22319
0
LINE
8
BLACK
6
CONTINUOUS
10
3.93245
20
-3.22319
11
3.93245
21
-3.1557
0
LINE
8
BLACK
6
CONTINUOUS
10
4.03369
20
-3.23444
11
4.03369
21
-3.1557
0
LINE
8
BLACK
6
CONTINUOUS
10
4.03369
20
-3.1557
11
4.05994
21
-3.21194
0
LINE
8
BLACK
6
CONTINUOUS
10
4.05994
20
-3.21194
11
4.08618
21
-3.1557
0
LINE
8
BLACK
6
CONTINUOUS
10
4.08618
20
-3.1557
11
4.08618
21
-3.23444
0
LINE
8
BLACK
6
CONTINUOUS
10
4.15742
20
-3.23444
11
4.15742
21
-3.19319
0
LINE
8
BLACK
6
CONTINUOUS
10
4.15742
20
-3.19319
11
4.15367
21
-3.1857
0
LINE
8
BLACK
6
CONTINUOUS
10
4.15367
20
-3.1857
11
4.14618
21
-3.18195
0
LINE
8
BLACK
6
CONTINUOUS
10
4.14618
20
-3.18195
11
4.13118
21
-3.18195
0
LINE
8
BLACK
6
CONTINUOUS
10
4.13118
20
-3.18195
11
4.12368
21
-3.1857
0
LINE
8
BLACK
6
CONTINUOUS
10
4.15742
20
-3.23069
11
4.14992
21
-3.23444
0
LINE
8
BLACK
6
CONTINUOUS
10
4.14992
20
-3.23444
11
4.13118
21
-3.23444
0
LINE
8
BLACK
6
CONTINUOUS
10
4.13118
20
-3.23444
11
4.12368
21
-3.23069
0
LINE
8
BLACK
6
CONTINUOUS
10
4.12368
20
-3.23069
11
4.11993
21
-3.22319
0
LINE
8
BLACK
6
CONTINUOUS
10
4.11993
20
-3.22319
11
4.11993
21
-3.21569
0
LINE
8
BLACK
6
CONTINUOUS
10
4.11993
20
-3.21569
11
4.12368
21
-3.20819
0
LINE
8
BLACK
6
CONTINUOUS
10
4.12368
20
-3.20819
11
4.13118
21
-3.20444
0
LINE
8
BLACK
6
CONTINUOUS
10
4.13118
20
-3.20444
11
4.14992
21
-3.20444
0
LINE
8
BLACK
6
CONTINUOUS
10
4.14992
20
-3.20444
11
4.15742
21
-3.20069
0
LINE
8
BLACK
6
CONTINUOUS
10
4.19492
20
-3.18195
11
4.19492
21
-3.26069
0
LINE
8
BLACK
6
CONTINUOUS
10
4.19492
20
-3.1857
11
4.20242
21
-3.18195
0
LINE
8
BLACK
6
CONTINUOUS
10
4.20242
20
-3.18195
11
4.21742
21
-3.18195
0
LINE
8
BLACK
6
CONTINUOUS
10
4.21742
20
-3.18195
11
4.22492
21
-3.1857
0
LINE
8
BLACK
6
CONTINUOUS
10
4.22492
20
-3.1857
11
4.22867
21
-3.18945
0
LINE
8
BLACK
6
CONTINUOUS
10
4.22867
20
-3.18945
11
4.23241
21
-3.19694
0
LINE
8
BLACK
6
CONTINUOUS
10
4.23241
20
-3.19694
11
4.23241
21
-3.21944
0
LINE
8
BLACK
6
CONTINUOUS
10
4.23241
20
-3.21944
11
4.22867
21
-3.22694
0
LINE
8
BLACK
6
CONTINUOUS
10
4.22867
20
-3.22694
11
4.22492
21
-3.23069
0
LINE
8
BLACK
6
CONTINUOUS
10
4.22492
20
-3.23069
11
4.21742
21
-3.23444
0
LINE
8
BLACK
6
CONTINUOUS
10
4.21742
20
-3.23444
11
4.20242
21
-3.23444
0
LINE
8
BLACK
6
CONTINUOUS
10
4.20242
20
-3.23444
11
4.19492
21
-3.23069
0
LINE
8
BLACK
6
CONTINUOUS
10
4.26616
20
-3.22694
11
4.26991
21
-3.23069
0
LINE
8
BLACK
6
CONTINUOUS
10
4.26991
20
-3.23069
11
4.26616
21
-3.23444
0
LINE
8
BLACK
6
CONTINUOUS
10
4.26616
20
-3.23444
11
4.26241
21
-3.23069
0
LINE
8
BLACK
6
CONTINUOUS
10
4.26241
20
-3.23069
11
4.26616
21
-3.22694
0
LINE
8
BLACK
6
CONTINUOUS
10
4.26616
20
-3.22694
11
4.26616
21
-3.23444
0
LINE
8
BLACK
6
CONTINUOUS
10
4.26616
20
-3.1857
11
4.26991
21
-3.18945
0
LINE
8
BLACK
6
CONTINUOUS
10
4.26991
20
-3.18945
11
4.26616
21
-3.19319
0
LINE
8
BLACK
6
CONTINUOUS
10
4.26616
20
-3.19319
11
4.26241
21
-3.18945
0
LINE
8
BLACK
6
CONTINUOUS
10
4.26241
20
-3.18945
11
4.26616
21
-3.1857
0
LINE
8
BLACK
6
CONTINUOUS
10
4.26616
20
-3.1857
11
4.26616
21
-3.19319
  0
ENDSEC
  0
EOF
