%TF.GenerationSoftware,KiCad,Pcbnew,(6.0.10)*%
%TF.CreationDate,2024-01-30T23:07:22+11:00*%
%TF.ProjectId,DFO,44464f2e-6b69-4636-9164-5f7063625858,rev?*%
%TF.SameCoordinates,Original*%
%TF.FileFunction,Legend,Bot*%
%TF.FilePolarity,Positive*%
%FSLAX46Y46*%
G04 Gerber Fmt 4.6, Leading zero omitted, Abs format (unit mm)*
G04 Created by KiCad (PCBNEW (6.0.10)) date 2024-01-30 23:07:22*
%MOMM*%
%LPD*%
G01*
G04 APERTURE LIST*
%ADD10C,0.250000*%
%ADD11C,0.125000*%
%ADD12C,0.120000*%
G04 APERTURE END LIST*
D10*
X105481333Y-75886571D02*
X105481333Y-76958000D01*
X105528952Y-77172285D01*
X105624190Y-77315142D01*
X105767047Y-77386571D01*
X105862285Y-77386571D01*
X105005142Y-77386571D02*
X105005142Y-75886571D01*
X104624190Y-75886571D01*
X104528952Y-75958000D01*
X104481333Y-76029428D01*
X104433714Y-76172285D01*
X104433714Y-76386571D01*
X104481333Y-76529428D01*
X104528952Y-76600857D01*
X104624190Y-76672285D01*
X105005142Y-76672285D01*
X104052761Y-76029428D02*
X104005142Y-75958000D01*
X103909904Y-75886571D01*
X103671809Y-75886571D01*
X103576571Y-75958000D01*
X103528952Y-76029428D01*
X103481333Y-76172285D01*
X103481333Y-76315142D01*
X103528952Y-76529428D01*
X104100380Y-77386571D01*
X103481333Y-77386571D01*
D11*
X101539904Y-61154571D02*
X101539904Y-62226000D01*
X101563714Y-62440285D01*
X101611333Y-62583142D01*
X101682761Y-62654571D01*
X101730380Y-62654571D01*
X101301809Y-62654571D02*
X101301809Y-61154571D01*
X101111333Y-61154571D01*
X101063714Y-61226000D01*
X101039904Y-61297428D01*
X101016095Y-61440285D01*
X101016095Y-61654571D01*
X101039904Y-61797428D01*
X101063714Y-61868857D01*
X101111333Y-61940285D01*
X101301809Y-61940285D01*
X100539904Y-62654571D02*
X100825619Y-62654571D01*
X100682761Y-62654571D02*
X100682761Y-61154571D01*
X100730380Y-61368857D01*
X100778000Y-61511714D01*
X100825619Y-61583142D01*
X100325619Y-62511714D02*
X100301809Y-62583142D01*
X100325619Y-62654571D01*
X100349428Y-62583142D01*
X100325619Y-62511714D01*
X100325619Y-62654571D01*
X100325619Y-61726000D02*
X100301809Y-61797428D01*
X100325619Y-61868857D01*
X100349428Y-61797428D01*
X100325619Y-61726000D01*
X100325619Y-61868857D01*
X99420857Y-62654571D02*
X99587523Y-61940285D01*
X99706571Y-62654571D02*
X99706571Y-61154571D01*
X99516095Y-61154571D01*
X99468476Y-61226000D01*
X99444666Y-61297428D01*
X99420857Y-61440285D01*
X99420857Y-61654571D01*
X99444666Y-61797428D01*
X99468476Y-61868857D01*
X99516095Y-61940285D01*
X99706571Y-61940285D01*
X99206571Y-61868857D02*
X99039904Y-61868857D01*
X98968476Y-62654571D02*
X99206571Y-62654571D01*
X99206571Y-61154571D01*
X98968476Y-61154571D01*
X98587523Y-61868857D02*
X98754190Y-61868857D01*
X98754190Y-62654571D02*
X98754190Y-61154571D01*
X98516095Y-61154571D01*
X97658952Y-62511714D02*
X97682761Y-62583142D01*
X97754190Y-62654571D01*
X97801809Y-62654571D01*
X97873238Y-62583142D01*
X97920857Y-62440285D01*
X97944666Y-62297428D01*
X97968476Y-62011714D01*
X97968476Y-61797428D01*
X97944666Y-61511714D01*
X97920857Y-61368857D01*
X97873238Y-61226000D01*
X97801809Y-61154571D01*
X97754190Y-61154571D01*
X97682761Y-61226000D01*
X97658952Y-61297428D01*
X97206571Y-62654571D02*
X97444666Y-62654571D01*
X97444666Y-61154571D01*
X97039904Y-62654571D02*
X97039904Y-61154571D01*
X96754190Y-62654571D02*
X96968476Y-61797428D01*
X96754190Y-61154571D02*
X97039904Y-62011714D01*
X96158952Y-62654571D02*
X96158952Y-61154571D01*
X95968476Y-61154571D01*
X95920857Y-61226000D01*
X95897047Y-61297428D01*
X95873238Y-61440285D01*
X95873238Y-61654571D01*
X95897047Y-61797428D01*
X95920857Y-61868857D01*
X95968476Y-61940285D01*
X96158952Y-61940285D01*
X95658952Y-62654571D02*
X95658952Y-61154571D01*
X95420857Y-62654571D02*
X95420857Y-61154571D01*
X95135142Y-62654571D01*
X95135142Y-61154571D01*
X94254190Y-62654571D02*
X94539904Y-62654571D01*
X94397047Y-62654571D02*
X94397047Y-61154571D01*
X94444666Y-61368857D01*
X94492285Y-61511714D01*
X94539904Y-61583142D01*
X93397047Y-61226000D02*
X93444666Y-61154571D01*
X93516095Y-61154571D01*
X93587523Y-61226000D01*
X93635142Y-61368857D01*
X93658952Y-61511714D01*
X93682761Y-61797428D01*
X93682761Y-62011714D01*
X93658952Y-62297428D01*
X93635142Y-62440285D01*
X93587523Y-62583142D01*
X93516095Y-62654571D01*
X93468476Y-62654571D01*
X93397047Y-62583142D01*
X93373238Y-62511714D01*
X93373238Y-62011714D01*
X93468476Y-62011714D01*
X93158952Y-62654571D02*
X93158952Y-61154571D01*
X92873238Y-62654571D01*
X92873238Y-61154571D01*
X92635142Y-62654571D02*
X92635142Y-61154571D01*
X92516095Y-61154571D01*
X92444666Y-61226000D01*
X92397047Y-61368857D01*
X92373238Y-61511714D01*
X92349428Y-61797428D01*
X92349428Y-62011714D01*
X92373238Y-62297428D01*
X92397047Y-62440285D01*
X92444666Y-62583142D01*
X92516095Y-62654571D01*
X92635142Y-62654571D01*
D10*
X96337333Y-73854571D02*
X96337333Y-74926000D01*
X96384952Y-75140285D01*
X96480190Y-75283142D01*
X96623047Y-75354571D01*
X96718285Y-75354571D01*
X95861142Y-75354571D02*
X95861142Y-73854571D01*
X95480190Y-73854571D01*
X95384952Y-73926000D01*
X95337333Y-73997428D01*
X95289714Y-74140285D01*
X95289714Y-74354571D01*
X95337333Y-74497428D01*
X95384952Y-74568857D01*
X95480190Y-74640285D01*
X95861142Y-74640285D01*
X94956380Y-73854571D02*
X94337333Y-73854571D01*
X94670666Y-74426000D01*
X94527809Y-74426000D01*
X94432571Y-74497428D01*
X94384952Y-74568857D01*
X94337333Y-74711714D01*
X94337333Y-75068857D01*
X94384952Y-75211714D01*
X94432571Y-75283142D01*
X94527809Y-75354571D01*
X94813523Y-75354571D01*
X94908761Y-75283142D01*
X94956380Y-75211714D01*
D11*
X101492285Y-63186571D02*
X101492285Y-64258000D01*
X101516095Y-64472285D01*
X101563714Y-64615142D01*
X101635142Y-64686571D01*
X101682761Y-64686571D01*
X101254190Y-64686571D02*
X101254190Y-63186571D01*
X101063714Y-63186571D01*
X101016095Y-63258000D01*
X100992285Y-63329428D01*
X100968476Y-63472285D01*
X100968476Y-63686571D01*
X100992285Y-63829428D01*
X101016095Y-63900857D01*
X101063714Y-63972285D01*
X101254190Y-63972285D01*
X100778000Y-63329428D02*
X100754190Y-63258000D01*
X100706571Y-63186571D01*
X100587523Y-63186571D01*
X100539904Y-63258000D01*
X100516095Y-63329428D01*
X100492285Y-63472285D01*
X100492285Y-63615142D01*
X100516095Y-63829428D01*
X100801809Y-64686571D01*
X100492285Y-64686571D01*
X100278000Y-64543714D02*
X100254190Y-64615142D01*
X100278000Y-64686571D01*
X100301809Y-64615142D01*
X100278000Y-64543714D01*
X100278000Y-64686571D01*
X100278000Y-63758000D02*
X100254190Y-63829428D01*
X100278000Y-63900857D01*
X100301809Y-63829428D01*
X100278000Y-63758000D01*
X100278000Y-63900857D01*
X99373238Y-64686571D02*
X99539904Y-63972285D01*
X99658952Y-64686571D02*
X99658952Y-63186571D01*
X99468476Y-63186571D01*
X99420857Y-63258000D01*
X99397047Y-63329428D01*
X99373238Y-63472285D01*
X99373238Y-63686571D01*
X99397047Y-63829428D01*
X99420857Y-63900857D01*
X99468476Y-63972285D01*
X99658952Y-63972285D01*
X99158952Y-63900857D02*
X98992285Y-63900857D01*
X98920857Y-64686571D02*
X99158952Y-64686571D01*
X99158952Y-63186571D01*
X98920857Y-63186571D01*
X98539904Y-63900857D02*
X98706571Y-63900857D01*
X98706571Y-64686571D02*
X98706571Y-63186571D01*
X98468476Y-63186571D01*
X97611333Y-64543714D02*
X97635142Y-64615142D01*
X97706571Y-64686571D01*
X97754190Y-64686571D01*
X97825619Y-64615142D01*
X97873238Y-64472285D01*
X97897047Y-64329428D01*
X97920857Y-64043714D01*
X97920857Y-63829428D01*
X97897047Y-63543714D01*
X97873238Y-63400857D01*
X97825619Y-63258000D01*
X97754190Y-63186571D01*
X97706571Y-63186571D01*
X97635142Y-63258000D01*
X97611333Y-63329428D01*
X97158952Y-64686571D02*
X97397047Y-64686571D01*
X97397047Y-63186571D01*
X96992285Y-64686571D02*
X96992285Y-63186571D01*
X96706571Y-64686571D02*
X96920857Y-63829428D01*
X96706571Y-63186571D02*
X96992285Y-64043714D01*
X96111333Y-64686571D02*
X96111333Y-63186571D01*
X95920857Y-63186571D01*
X95873238Y-63258000D01*
X95849428Y-63329428D01*
X95825619Y-63472285D01*
X95825619Y-63686571D01*
X95849428Y-63829428D01*
X95873238Y-63900857D01*
X95920857Y-63972285D01*
X96111333Y-63972285D01*
X95611333Y-64686571D02*
X95611333Y-63186571D01*
X95373238Y-64686571D02*
X95373238Y-63186571D01*
X95087523Y-64686571D01*
X95087523Y-63186571D01*
X94206571Y-64686571D02*
X94492285Y-64686571D01*
X94349428Y-64686571D02*
X94349428Y-63186571D01*
X94397047Y-63400857D01*
X94444666Y-63543714D01*
X94492285Y-63615142D01*
X93682761Y-63186571D02*
X93516095Y-64686571D01*
X93349428Y-63186571D01*
X92897047Y-64543714D02*
X92920857Y-64615142D01*
X92992285Y-64686571D01*
X93039904Y-64686571D01*
X93111333Y-64615142D01*
X93158952Y-64472285D01*
X93182761Y-64329428D01*
X93206571Y-64043714D01*
X93206571Y-63829428D01*
X93182761Y-63543714D01*
X93158952Y-63400857D01*
X93111333Y-63258000D01*
X93039904Y-63186571D01*
X92992285Y-63186571D01*
X92920857Y-63258000D01*
X92897047Y-63329428D01*
X92397047Y-64543714D02*
X92420857Y-64615142D01*
X92492285Y-64686571D01*
X92539904Y-64686571D01*
X92611333Y-64615142D01*
X92658952Y-64472285D01*
X92682761Y-64329428D01*
X92706571Y-64043714D01*
X92706571Y-63829428D01*
X92682761Y-63543714D01*
X92658952Y-63400857D01*
X92611333Y-63258000D01*
X92539904Y-63186571D01*
X92492285Y-63186571D01*
X92420857Y-63258000D01*
X92397047Y-63329428D01*
D10*
X105227333Y-73600571D02*
X105227333Y-74672000D01*
X105274952Y-74886285D01*
X105370190Y-75029142D01*
X105513047Y-75100571D01*
X105608285Y-75100571D01*
X104751142Y-75100571D02*
X104751142Y-73600571D01*
X104370190Y-73600571D01*
X104274952Y-73672000D01*
X104227333Y-73743428D01*
X104179714Y-73886285D01*
X104179714Y-74100571D01*
X104227333Y-74243428D01*
X104274952Y-74314857D01*
X104370190Y-74386285D01*
X104751142Y-74386285D01*
X103227333Y-75100571D02*
X103798761Y-75100571D01*
X103513047Y-75100571D02*
X103513047Y-73600571D01*
X103608285Y-73814857D01*
X103703523Y-73957714D01*
X103798761Y-74029142D01*
D11*
X101349428Y-65218571D02*
X101349428Y-66290000D01*
X101373238Y-66504285D01*
X101420857Y-66647142D01*
X101492285Y-66718571D01*
X101539904Y-66718571D01*
X101111333Y-66718571D02*
X101111333Y-65218571D01*
X100920857Y-65218571D01*
X100873238Y-65290000D01*
X100849428Y-65361428D01*
X100825619Y-65504285D01*
X100825619Y-65718571D01*
X100849428Y-65861428D01*
X100873238Y-65932857D01*
X100920857Y-66004285D01*
X101111333Y-66004285D01*
X100658952Y-65218571D02*
X100349428Y-65218571D01*
X100516095Y-65790000D01*
X100444666Y-65790000D01*
X100397047Y-65861428D01*
X100373238Y-65932857D01*
X100349428Y-66075714D01*
X100349428Y-66432857D01*
X100373238Y-66575714D01*
X100397047Y-66647142D01*
X100444666Y-66718571D01*
X100587523Y-66718571D01*
X100635142Y-66647142D01*
X100658952Y-66575714D01*
X100135142Y-66575714D02*
X100111333Y-66647142D01*
X100135142Y-66718571D01*
X100158952Y-66647142D01*
X100135142Y-66575714D01*
X100135142Y-66718571D01*
X100135142Y-65790000D02*
X100111333Y-65861428D01*
X100135142Y-65932857D01*
X100158952Y-65861428D01*
X100135142Y-65790000D01*
X100135142Y-65932857D01*
X99516095Y-66718571D02*
X99516095Y-65218571D01*
X99397047Y-65218571D01*
X99325619Y-65290000D01*
X99278000Y-65432857D01*
X99254190Y-65575714D01*
X99230380Y-65861428D01*
X99230380Y-66075714D01*
X99254190Y-66361428D01*
X99278000Y-66504285D01*
X99325619Y-66647142D01*
X99397047Y-66718571D01*
X99516095Y-66718571D01*
X99016095Y-66718571D02*
X99016095Y-65218571D01*
X98492285Y-66718571D02*
X98658952Y-66004285D01*
X98778000Y-66718571D02*
X98778000Y-65218571D01*
X98587523Y-65218571D01*
X98539904Y-65290000D01*
X98516095Y-65361428D01*
X98492285Y-65504285D01*
X98492285Y-65718571D01*
X98516095Y-65861428D01*
X98539904Y-65932857D01*
X98587523Y-66004285D01*
X98778000Y-66004285D01*
X98278000Y-65932857D02*
X98111333Y-65932857D01*
X98039904Y-66718571D02*
X98278000Y-66718571D01*
X98278000Y-65218571D01*
X98039904Y-65218571D01*
X97539904Y-66575714D02*
X97563714Y-66647142D01*
X97635142Y-66718571D01*
X97682761Y-66718571D01*
X97754190Y-66647142D01*
X97801809Y-66504285D01*
X97825619Y-66361428D01*
X97849428Y-66075714D01*
X97849428Y-65861428D01*
X97825619Y-65575714D01*
X97801809Y-65432857D01*
X97754190Y-65290000D01*
X97682761Y-65218571D01*
X97635142Y-65218571D01*
X97563714Y-65290000D01*
X97539904Y-65361428D01*
X97397047Y-65218571D02*
X97111333Y-65218571D01*
X97254190Y-66718571D02*
X97254190Y-65218571D01*
X96278000Y-66575714D02*
X96301809Y-66647142D01*
X96373238Y-66718571D01*
X96420857Y-66718571D01*
X96492285Y-66647142D01*
X96539904Y-66504285D01*
X96563714Y-66361428D01*
X96587523Y-66075714D01*
X96587523Y-65861428D01*
X96563714Y-65575714D01*
X96539904Y-65432857D01*
X96492285Y-65290000D01*
X96420857Y-65218571D01*
X96373238Y-65218571D01*
X96301809Y-65290000D01*
X96278000Y-65361428D01*
X95825619Y-66718571D02*
X96063714Y-66718571D01*
X96063714Y-65218571D01*
X95563714Y-65218571D02*
X95468476Y-65218571D01*
X95420857Y-65290000D01*
X95373238Y-65432857D01*
X95349428Y-65718571D01*
X95349428Y-66218571D01*
X95373238Y-66504285D01*
X95420857Y-66647142D01*
X95468476Y-66718571D01*
X95563714Y-66718571D01*
X95611333Y-66647142D01*
X95658952Y-66504285D01*
X95682761Y-66218571D01*
X95682761Y-65718571D01*
X95658952Y-65432857D01*
X95611333Y-65290000D01*
X95563714Y-65218571D01*
X94849428Y-66575714D02*
X94873238Y-66647142D01*
X94944666Y-66718571D01*
X94992285Y-66718571D01*
X95063714Y-66647142D01*
X95111333Y-66504285D01*
X95135142Y-66361428D01*
X95158952Y-66075714D01*
X95158952Y-65861428D01*
X95135142Y-65575714D01*
X95111333Y-65432857D01*
X95063714Y-65290000D01*
X94992285Y-65218571D01*
X94944666Y-65218571D01*
X94873238Y-65290000D01*
X94849428Y-65361428D01*
X94635142Y-66718571D02*
X94635142Y-65218571D01*
X94349428Y-66718571D02*
X94563714Y-65861428D01*
X94349428Y-65218571D02*
X94635142Y-66075714D01*
X93658952Y-65218571D02*
X93563714Y-65218571D01*
X93516095Y-65290000D01*
X93468476Y-65432857D01*
X93444666Y-65718571D01*
X93444666Y-66218571D01*
X93468476Y-66504285D01*
X93516095Y-66647142D01*
X93563714Y-66718571D01*
X93658952Y-66718571D01*
X93706571Y-66647142D01*
X93754190Y-66504285D01*
X93778000Y-66218571D01*
X93778000Y-65718571D01*
X93754190Y-65432857D01*
X93706571Y-65290000D01*
X93658952Y-65218571D01*
X93230380Y-65218571D02*
X93230380Y-66432857D01*
X93206571Y-66575714D01*
X93182761Y-66647142D01*
X93135142Y-66718571D01*
X93039904Y-66718571D01*
X92992285Y-66647142D01*
X92968476Y-66575714D01*
X92944666Y-66432857D01*
X92944666Y-65218571D01*
X92778000Y-65218571D02*
X92492285Y-65218571D01*
X92635142Y-66718571D02*
X92635142Y-65218571D01*
D12*
%TO.C,REF\u002A\u002A*%
X106600000Y-78350000D02*
X109400000Y-78350000D01*
X109400000Y-78350000D02*
X109400000Y-76350000D01*
X109400000Y-76350000D02*
X106600000Y-76350000D01*
X106600000Y-76350000D02*
X106600000Y-78350000D01*
X97044001Y-75933998D02*
X99044001Y-75933998D01*
X97044001Y-73133998D02*
X97044001Y-75933998D01*
X99044001Y-73133998D02*
X97044001Y-73133998D01*
X99044001Y-75933998D02*
X99044001Y-73133998D01*
X109399997Y-75599996D02*
X109399997Y-73599996D01*
X106599997Y-75599996D02*
X109399997Y-75599996D01*
X106599997Y-73599996D02*
X106599997Y-75599996D01*
X109399997Y-73599996D02*
X106599997Y-73599996D01*
%TD*%
M02*
