%TF.GenerationSoftware,KiCad,Pcbnew,(6.0.10)*%
%TF.CreationDate,2023-05-18T22:08:56+10:00*%
%TF.ProjectId,DFO,44464f2e-6b69-4636-9164-5f7063625858,rev?*%
%TF.SameCoordinates,Original*%
%TF.FileFunction,Soldermask,Top*%
%TF.FilePolarity,Negative*%
%FSLAX46Y46*%
G04 Gerber Fmt 4.6, Leading zero omitted, Abs format (unit mm)*
G04 Created by KiCad (PCBNEW (6.0.10)) date 2023-05-18 22:08:56*
%MOMM*%
%LPD*%
G01*
G04 APERTURE LIST*
G04 Aperture macros list*
%AMRoundRect*
0 Rectangle with rounded corners*
0 $1 Rounding radius*
0 $2 $3 $4 $5 $6 $7 $8 $9 X,Y pos of 4 corners*
0 Add a 4 corners polygon primitive as box body*
4,1,4,$2,$3,$4,$5,$6,$7,$8,$9,$2,$3,0*
0 Add four circle primitives for the rounded corners*
1,1,$1+$1,$2,$3*
1,1,$1+$1,$4,$5*
1,1,$1+$1,$6,$7*
1,1,$1+$1,$8,$9*
0 Add four rect primitives between the rounded corners*
20,1,$1+$1,$2,$3,$4,$5,0*
20,1,$1+$1,$4,$5,$6,$7,0*
20,1,$1+$1,$6,$7,$8,$9,0*
20,1,$1+$1,$8,$9,$2,$3,0*%
G04 Aperture macros list end*
%ADD10R,1.100000X1.300000*%
%ADD11R,4.000000X3.000000*%
%ADD12RoundRect,0.100000X-0.100000X0.217500X-0.100000X-0.217500X0.100000X-0.217500X0.100000X0.217500X0*%
%ADD13RoundRect,0.100000X-0.217500X-0.100000X0.217500X-0.100000X0.217500X0.100000X-0.217500X0.100000X0*%
%ADD14RoundRect,0.100000X0.217500X0.100000X-0.217500X0.100000X-0.217500X-0.100000X0.217500X-0.100000X0*%
%ADD15R,1.400000X0.300000*%
%ADD16R,1.600000X0.550000*%
%ADD17R,0.550000X1.600000*%
%ADD18RoundRect,0.100000X0.100000X-0.217500X0.100000X0.217500X-0.100000X0.217500X-0.100000X-0.217500X0*%
G04 APERTURE END LIST*
D10*
%TO.C,X1*%
X108809998Y-76610000D03*
X108809998Y-74510000D03*
X107159998Y-74510000D03*
X107159998Y-76610000D03*
%TD*%
D11*
%TO.C,*%
X94480000Y-75790000D03*
%TD*%
D12*
%TO.C,C2*%
X110330000Y-69082500D03*
X110330000Y-69897500D03*
%TD*%
D13*
%TO.C,C1*%
X102352500Y-77000000D03*
X103167500Y-77000000D03*
%TD*%
%TO.C,R1*%
X104332500Y-61010000D03*
X105147500Y-61010000D03*
%TD*%
D14*
%TO.C,R2*%
X107037500Y-61010000D03*
X106222500Y-61010000D03*
%TD*%
D12*
%TO.C,C6*%
X98410000Y-66722500D03*
X98410000Y-67537500D03*
%TD*%
D15*
%TO.C,U1*%
X99430000Y-75660000D03*
X99430000Y-75160000D03*
X99430000Y-74660000D03*
X99430000Y-74160000D03*
X99430000Y-73660000D03*
X103830000Y-73660000D03*
X103830000Y-74160000D03*
X103830000Y-74660000D03*
X103830000Y-75160000D03*
X103830000Y-75660000D03*
%TD*%
D16*
%TO.C,U2*%
X100080000Y-64320000D03*
X100080000Y-65120000D03*
X100080000Y-65920000D03*
X100080000Y-66720000D03*
X100080000Y-67520000D03*
X100080000Y-68320000D03*
X100080000Y-69120000D03*
X100080000Y-69920000D03*
D17*
X101530000Y-71370000D03*
X102330000Y-71370000D03*
X103130000Y-71370000D03*
X103930000Y-71370000D03*
X104730000Y-71370000D03*
X105530000Y-71370000D03*
X106330000Y-71370000D03*
X107130000Y-71370000D03*
D16*
X108580000Y-69920000D03*
X108580000Y-69120000D03*
X108580000Y-68320000D03*
X108580000Y-67520000D03*
X108580000Y-66720000D03*
X108580000Y-65920000D03*
X108580000Y-65120000D03*
X108580000Y-64320000D03*
D17*
X107130000Y-62870000D03*
X106330000Y-62870000D03*
X105530000Y-62870000D03*
X104730000Y-62870000D03*
X103930000Y-62870000D03*
X103130000Y-62870000D03*
X102330000Y-62870000D03*
X101530000Y-62870000D03*
%TD*%
D11*
%TO.C,*%
X94480000Y-71380000D03*
%TD*%
%TO.C,*%
X94480000Y-62540000D03*
%TD*%
%TO.C,*%
X94490000Y-66960000D03*
%TD*%
D18*
%TO.C,R3*%
X97530000Y-74847500D03*
X97530000Y-74032500D03*
%TD*%
D14*
%TO.C,C3*%
X105175000Y-77010000D03*
X104360000Y-77010000D03*
%TD*%
M02*
