%TF.GenerationSoftware,KiCad,Pcbnew,(6.0.10)*%
%TF.CreationDate,2023-05-18T22:08:56+10:00*%
%TF.ProjectId,DFO,44464f2e-6b69-4636-9164-5f7063625858,rev?*%
%TF.SameCoordinates,Original*%
%TF.FileFunction,Copper,L1,Top*%
%TF.FilePolarity,Positive*%
%FSLAX46Y46*%
G04 Gerber Fmt 4.6, Leading zero omitted, Abs format (unit mm)*
G04 Created by KiCad (PCBNEW (6.0.10)) date 2023-05-18 22:08:56*
%MOMM*%
%LPD*%
G01*
G04 APERTURE LIST*
G04 Aperture macros list*
%AMRoundRect*
0 Rectangle with rounded corners*
0 $1 Rounding radius*
0 $2 $3 $4 $5 $6 $7 $8 $9 X,Y pos of 4 corners*
0 Add a 4 corners polygon primitive as box body*
4,1,4,$2,$3,$4,$5,$6,$7,$8,$9,$2,$3,0*
0 Add four circle primitives for the rounded corners*
1,1,$1+$1,$2,$3*
1,1,$1+$1,$4,$5*
1,1,$1+$1,$6,$7*
1,1,$1+$1,$8,$9*
0 Add four rect primitives between the rounded corners*
20,1,$1+$1,$2,$3,$4,$5,0*
20,1,$1+$1,$4,$5,$6,$7,0*
20,1,$1+$1,$6,$7,$8,$9,0*
20,1,$1+$1,$8,$9,$2,$3,0*%
G04 Aperture macros list end*
%TA.AperFunction,SMDPad,CuDef*%
%ADD10R,1.100000X1.300000*%
%TD*%
%TA.AperFunction,SMDPad,CuDef*%
%ADD11R,4.000000X3.000000*%
%TD*%
%TA.AperFunction,SMDPad,CuDef*%
%ADD12RoundRect,0.100000X-0.100000X0.217500X-0.100000X-0.217500X0.100000X-0.217500X0.100000X0.217500X0*%
%TD*%
%TA.AperFunction,SMDPad,CuDef*%
%ADD13RoundRect,0.100000X-0.217500X-0.100000X0.217500X-0.100000X0.217500X0.100000X-0.217500X0.100000X0*%
%TD*%
%TA.AperFunction,SMDPad,CuDef*%
%ADD14RoundRect,0.100000X0.217500X0.100000X-0.217500X0.100000X-0.217500X-0.100000X0.217500X-0.100000X0*%
%TD*%
%TA.AperFunction,SMDPad,CuDef*%
%ADD15R,1.400000X0.300000*%
%TD*%
%TA.AperFunction,SMDPad,CuDef*%
%ADD16R,1.600000X0.550000*%
%TD*%
%TA.AperFunction,SMDPad,CuDef*%
%ADD17R,0.550000X1.600000*%
%TD*%
%TA.AperFunction,SMDPad,CuDef*%
%ADD18RoundRect,0.100000X0.100000X-0.217500X0.100000X0.217500X-0.100000X0.217500X-0.100000X-0.217500X0*%
%TD*%
%TA.AperFunction,ViaPad*%
%ADD19C,0.800000*%
%TD*%
%TA.AperFunction,Conductor*%
%ADD20C,0.250000*%
%TD*%
%TA.AperFunction,Conductor*%
%ADD21C,0.450000*%
%TD*%
%TA.AperFunction,Conductor*%
%ADD22C,0.350000*%
%TD*%
%TA.AperFunction,Conductor*%
%ADD23C,0.456000*%
%TD*%
G04 APERTURE END LIST*
D10*
%TO.P,X1,1,EN*%
%TO.N,+3.3V*%
X108809998Y-76610000D03*
%TO.P,X1,2,GND*%
%TO.N,GND*%
X108809998Y-74510000D03*
%TO.P,X1,3,OUT*%
%TO.N,Net-(U1-Pad2)*%
X107159998Y-74510000D03*
%TO.P,X1,4,Vdd*%
%TO.N,+3.3V*%
X107159998Y-76610000D03*
%TD*%
D11*
%TO.P,,1*%
%TO.N,Net-(H10-Pad1)*%
X94480000Y-75790000D03*
%TD*%
D12*
%TO.P,C2,1*%
%TO.N,+3.3V*%
X110330000Y-69082500D03*
%TO.P,C2,2*%
%TO.N,GND*%
X110330000Y-69897500D03*
%TD*%
D13*
%TO.P,C1,1*%
%TO.N,+3.3V*%
X102352500Y-77000000D03*
%TO.P,C1,2*%
%TO.N,GND*%
X103167500Y-77000000D03*
%TD*%
%TO.P,R1,1*%
%TO.N,+3.3V*%
X104332500Y-61010000D03*
%TO.P,R1,2*%
%TO.N,i2c-SCL*%
X105147500Y-61010000D03*
%TD*%
D14*
%TO.P,R2,1*%
%TO.N,+3.3V*%
X107037500Y-61010000D03*
%TO.P,R2,2*%
%TO.N,i2c-SDA*%
X106222500Y-61010000D03*
%TD*%
D12*
%TO.P,C6,1*%
%TO.N,+3.3V*%
X98410000Y-66722500D03*
%TO.P,C6,2*%
%TO.N,GND*%
X98410000Y-67537500D03*
%TD*%
D15*
%TO.P,U1,CLKOUT,CLK0*%
%TO.N,Net-(H10-Pad1)*%
X99430000Y-75660000D03*
%TO.P,U1,9,CLK1*%
%TO.N,unconnected-(U1-Pad9)*%
X99430000Y-75160000D03*
%TO.P,U1,8,GND*%
%TO.N,GND*%
X99430000Y-74660000D03*
%TO.P,U1,7,VDDO*%
%TO.N,+3.3V*%
X99430000Y-74160000D03*
%TO.P,U1,6,CLK2*%
%TO.N,unconnected-(U1-Pad6)*%
X99430000Y-73660000D03*
%TO.P,U1,5,SDA*%
%TO.N,i2c-SDA*%
X103830000Y-73660000D03*
%TO.P,U1,4,SCL*%
%TO.N,i2c-SCL*%
X103830000Y-74160000D03*
%TO.P,U1,3,XB*%
%TO.N,unconnected-(U1-Pad3)*%
X103830000Y-74660000D03*
%TO.P,U1,2,XA*%
%TO.N,Net-(U1-Pad2)*%
X103830000Y-75160000D03*
%TO.P,U1,1,VDD*%
%TO.N,+3.3V*%
X103830000Y-75660000D03*
%TD*%
D16*
%TO.P,U2,1,PD3*%
%TO.N,unconnected-(U2-Pad1)*%
X100080000Y-64320000D03*
%TO.P,U2,2,PD4*%
%TO.N,unconnected-(U2-Pad2)*%
X100080000Y-65120000D03*
%TO.P,U2,3,GND*%
%TO.N,GND*%
X100080000Y-65920000D03*
%TO.P,U2,4,VCC*%
%TO.N,+3.3V*%
X100080000Y-66720000D03*
%TO.P,U2,5,GND*%
%TO.N,GND*%
X100080000Y-67520000D03*
%TO.P,U2,6,VCC*%
%TO.N,+3.3V*%
X100080000Y-68320000D03*
%TO.P,U2,7,XTAL1/PB6*%
%TO.N,Net-(U2-Pad7)*%
X100080000Y-69120000D03*
%TO.P,U2,8,XTAL2/PB7*%
%TO.N,unconnected-(U2-Pad8)*%
X100080000Y-69920000D03*
D17*
%TO.P,U2,9,PD5*%
%TO.N,unconnected-(U2-Pad9)*%
X101530000Y-71370000D03*
%TO.P,U2,10,PD6*%
%TO.N,unconnected-(U2-Pad10)*%
X102330000Y-71370000D03*
%TO.P,U2,11,PD7*%
%TO.N,unconnected-(U2-Pad11)*%
X103130000Y-71370000D03*
%TO.P,U2,12,PB0*%
%TO.N,unconnected-(U2-Pad12)*%
X103930000Y-71370000D03*
%TO.P,U2,13,PB1*%
%TO.N,unconnected-(U2-Pad13)*%
X104730000Y-71370000D03*
%TO.P,U2,14,PB2*%
%TO.N,unconnected-(U2-Pad14)*%
X105530000Y-71370000D03*
%TO.P,U2,15,PB3*%
%TO.N,unconnected-(U2-Pad15)*%
X106330000Y-71370000D03*
%TO.P,U2,16,PB4*%
%TO.N,unconnected-(U2-Pad16)*%
X107130000Y-71370000D03*
D16*
%TO.P,U2,17,PB5*%
%TO.N,unconnected-(U2-Pad17)*%
X108580000Y-69920000D03*
%TO.P,U2,18,AVCC*%
%TO.N,+3.3V*%
X108580000Y-69120000D03*
%TO.P,U2,19,ADC6*%
%TO.N,unconnected-(U2-Pad19)*%
X108580000Y-68320000D03*
%TO.P,U2,20,AREF*%
%TO.N,unconnected-(U2-Pad20)*%
X108580000Y-67520000D03*
%TO.P,U2,21,GND*%
%TO.N,GND*%
X108580000Y-66720000D03*
%TO.P,U2,22,ADC7*%
%TO.N,unconnected-(U2-Pad22)*%
X108580000Y-65920000D03*
%TO.P,U2,23,PC0*%
%TO.N,unconnected-(U2-Pad23)*%
X108580000Y-65120000D03*
%TO.P,U2,24,PC1*%
%TO.N,unconnected-(U2-Pad24)*%
X108580000Y-64320000D03*
D17*
%TO.P,U2,25,PC2*%
%TO.N,unconnected-(U2-Pad25)*%
X107130000Y-62870000D03*
%TO.P,U2,26,PC3*%
%TO.N,unconnected-(U2-Pad26)*%
X106330000Y-62870000D03*
%TO.P,U2,27,PC4*%
%TO.N,i2c-SDA*%
X105530000Y-62870000D03*
%TO.P,U2,28,PC5*%
%TO.N,i2c-SCL*%
X104730000Y-62870000D03*
%TO.P,U2,29,~{RESET}/PC6*%
%TO.N,unconnected-(U2-Pad29)*%
X103930000Y-62870000D03*
%TO.P,U2,30,PD0*%
%TO.N,Rx*%
X103130000Y-62870000D03*
%TO.P,U2,31,PD1*%
%TO.N,Tx*%
X102330000Y-62870000D03*
%TO.P,U2,32,PD2*%
%TO.N,sense*%
X101530000Y-62870000D03*
%TD*%
D11*
%TO.P,,2*%
%TO.N,GND*%
X94480000Y-71380000D03*
%TD*%
%TO.P,,4*%
%TO.N,sense*%
X94480000Y-62540000D03*
%TD*%
%TO.P,,3*%
%TO.N,+3.3V*%
X94490000Y-66960000D03*
%TD*%
D18*
%TO.P,R3,1*%
%TO.N,Net-(H10-Pad1)*%
X97530000Y-74847500D03*
%TO.P,R3,2*%
X97530000Y-74032500D03*
%TD*%
D14*
%TO.P,C3,1*%
%TO.N,+3.3V*%
X105175000Y-77010000D03*
%TO.P,C3,2*%
%TO.N,GND*%
X104360000Y-77010000D03*
%TD*%
D19*
%TO.N,GND*%
X99880000Y-71520000D03*
X108650000Y-71440000D03*
%TO.N,*%
X108760000Y-62950000D03*
%TO.N,GND*%
X100090000Y-77170000D03*
X100950000Y-60940000D03*
X108820000Y-60740000D03*
X110260000Y-74970000D03*
X110250000Y-71110000D03*
X110240000Y-73080000D03*
X98070000Y-60970000D03*
X98050000Y-64350000D03*
X98000000Y-68970000D03*
X97960000Y-76690000D03*
X98010000Y-72270000D03*
%TO.N,+3.3V*%
X102120000Y-67510000D03*
X106080000Y-76170000D03*
X103300000Y-61000000D03*
X102750000Y-72840000D03*
%TO.N,i2c-SCL*%
X107400000Y-73060000D03*
%TO.N,Net-(R1-Pad2)*%
X104580000Y-64550000D03*
%TO.N,Net-(R2-Pad2)*%
X104620000Y-65720000D03*
%TO.N,i2c-SDA*%
X105790000Y-73060000D03*
%TO.N,GND*%
X102050000Y-65400000D03*
X104280000Y-69860000D03*
X106790000Y-64950000D03*
X110210000Y-76850000D03*
X101610000Y-74560000D03*
X108810000Y-73060000D03*
%TD*%
D20*
%TO.N,+3.3V*%
X94727500Y-66722500D02*
X94490000Y-66960000D01*
X98410000Y-66722500D02*
X94727500Y-66722500D01*
D21*
%TO.N,sense*%
X101200000Y-62540000D02*
X101530000Y-62870000D01*
X94480000Y-62540000D02*
X101200000Y-62540000D01*
D20*
%TO.N,Net-(H10-Pad1)*%
X98100000Y-75660000D02*
X97560000Y-75120000D01*
X99430000Y-75660000D02*
X98100000Y-75660000D01*
D22*
X95270000Y-75790000D02*
X97027500Y-74032500D01*
X97027500Y-74032500D02*
X97530000Y-74032500D01*
D20*
X94480000Y-75790000D02*
X95270000Y-75790000D01*
%TO.N,+3.3V*%
X94812500Y-67282500D02*
X94490000Y-66960000D01*
D21*
X105175000Y-77010000D02*
X106759998Y-77010000D01*
D23*
X94410000Y-67310000D02*
X94880000Y-67310000D01*
D20*
X106719998Y-76170000D02*
X107159998Y-76610000D01*
D21*
X100080000Y-66720000D02*
X101330000Y-66720000D01*
D20*
X104500000Y-75660000D02*
X105175000Y-76335000D01*
X101960000Y-72840000D02*
X102720000Y-72840000D01*
X105175000Y-76335000D02*
X105175000Y-77010000D01*
X104332500Y-61010000D02*
X104332500Y-60925000D01*
X102920000Y-75660000D02*
X102352500Y-76227500D01*
D21*
X100080000Y-68320000D02*
X101310000Y-68320000D01*
X102120000Y-67510000D02*
X105430000Y-67510000D01*
X101310000Y-68320000D02*
X102120000Y-67510000D01*
D20*
X107037500Y-60607500D02*
X107037500Y-61010000D01*
X103830000Y-75660000D02*
X104500000Y-75660000D01*
D21*
X105430000Y-67510000D02*
X107060000Y-69140000D01*
D20*
X106759998Y-77010000D02*
X107159998Y-76610000D01*
X103830000Y-75660000D02*
X102920000Y-75660000D01*
D21*
X101330000Y-66720000D02*
X102120000Y-67510000D01*
X107060000Y-69140000D02*
X108560000Y-69140000D01*
D23*
X95580000Y-67310000D02*
X96160000Y-67310000D01*
D20*
X106880000Y-60450000D02*
X107037500Y-60607500D01*
X103300000Y-61000000D02*
X103850000Y-60450000D01*
X104322500Y-61000000D02*
X104332500Y-61010000D01*
X99430000Y-74160000D02*
X100640000Y-74160000D01*
X110292500Y-69120000D02*
X110330000Y-69082500D01*
X101100000Y-73700000D02*
X101960000Y-72840000D01*
X106080000Y-76170000D02*
X106719998Y-76170000D01*
X94020000Y-67300000D02*
X94350000Y-67300000D01*
X95330000Y-67310000D02*
X94880000Y-67310000D01*
X100050000Y-66750000D02*
X100080000Y-66720000D01*
X102352500Y-76227500D02*
X102352500Y-77000000D01*
X108560000Y-69140000D02*
X108580000Y-69120000D01*
D23*
X94880000Y-67310000D02*
X95580000Y-67310000D01*
D20*
X100640000Y-74160000D02*
X101100000Y-73700000D01*
X103300000Y-61000000D02*
X104322500Y-61000000D01*
D23*
X94060000Y-67310000D02*
X94410000Y-67310000D01*
D20*
X103850000Y-60450000D02*
X106880000Y-60450000D01*
X107159998Y-77019996D02*
X108809998Y-77019996D01*
D21*
X108580000Y-69120000D02*
X110292500Y-69120000D01*
D20*
%TO.N,i2c-SCL*%
X105147500Y-61522500D02*
X105147500Y-61010000D01*
X104730000Y-62870000D02*
X104730000Y-61940000D01*
X104730000Y-61940000D02*
X105147500Y-61522500D01*
D21*
X104730000Y-62870000D02*
X104730000Y-64400000D01*
X104730000Y-64400000D02*
X104580000Y-64550000D01*
D20*
X107400000Y-73060000D02*
X106920000Y-73060000D01*
X105820000Y-74160000D02*
X103830000Y-74160000D01*
X106920000Y-73060000D02*
X105820000Y-74160000D01*
D21*
%TO.N,i2c-SDA*%
X104800000Y-65720000D02*
X105530000Y-64990000D01*
D20*
X105530000Y-61760000D02*
X105530000Y-62870000D01*
X106222500Y-61067500D02*
X105530000Y-61760000D01*
X105790000Y-73060000D02*
X105190000Y-73660000D01*
D21*
X105530000Y-64990000D02*
X105530000Y-62870000D01*
D20*
X105190000Y-73660000D02*
X103830000Y-73660000D01*
X105540000Y-62860000D02*
X105530000Y-62870000D01*
X106222500Y-61010000D02*
X106222500Y-61067500D01*
D21*
X104620000Y-65720000D02*
X104800000Y-65720000D01*
D20*
%TO.N,Net-(U1-Pad2)*%
X107159998Y-74920007D02*
X106720001Y-74920002D01*
X106959998Y-74710000D02*
X107159998Y-74510000D01*
X104840000Y-75160000D02*
X105290000Y-74710000D01*
X105290000Y-74710000D02*
X106959998Y-74710000D01*
X107139998Y-74490000D02*
X107159998Y-74510000D01*
X103830000Y-75160000D02*
X104840000Y-75160000D01*
%TO.N,GND*%
X99932500Y-67667500D02*
X100080000Y-67520000D01*
X103167500Y-77000000D02*
X103167500Y-77252500D01*
X103167500Y-77252500D02*
X102870000Y-77550000D01*
X103167500Y-77000000D02*
X104350000Y-77000000D01*
X107770000Y-66720000D02*
X106790000Y-65740000D01*
X108580000Y-66720000D02*
X107770000Y-66720000D01*
X106790000Y-65740000D02*
X106790000Y-64950000D01*
X99430000Y-74660000D02*
X101510000Y-74660000D01*
X101610000Y-74560000D02*
X101610000Y-77270000D01*
X101510000Y-74660000D02*
X101610000Y-74560000D01*
X101610000Y-77270000D02*
X101890000Y-77550000D01*
D21*
X101530000Y-65920000D02*
X102050000Y-65400000D01*
D20*
X102870000Y-77550000D02*
X101890000Y-77550000D01*
X98410000Y-67667500D02*
X99932500Y-67667500D01*
X104350000Y-77000000D02*
X104360000Y-77010000D01*
D21*
X100080000Y-65920000D02*
X101530000Y-65920000D01*
D20*
%TO.N,sense*%
X94480000Y-62540000D02*
X95390000Y-61630000D01*
X94480000Y-62540000D02*
X95670000Y-63730000D01*
%TO.N,Tx*%
X102330000Y-62870000D02*
X102230000Y-62770000D01*
%TD*%
%TA.AperFunction,Conductor*%
%TO.N,GND*%
G36*
X110347174Y-69928502D02*
G01*
X110393667Y-69982158D01*
X110405052Y-70035051D01*
X110373691Y-77202958D01*
X110353391Y-77270991D01*
X110299532Y-77317249D01*
X110247436Y-77328407D01*
X109994242Y-77327892D01*
X109926162Y-77307751D01*
X109879778Y-77254001D01*
X109868498Y-77201892D01*
X109868498Y-75911866D01*
X109861743Y-75849684D01*
X109810613Y-75713295D01*
X109752045Y-75635148D01*
X109727197Y-75568642D01*
X109742250Y-75499259D01*
X109752045Y-75484018D01*
X109804784Y-75413648D01*
X109813322Y-75398054D01*
X109858476Y-75277606D01*
X109862103Y-75262351D01*
X109867629Y-75211486D01*
X109867998Y-75204672D01*
X109867998Y-74782115D01*
X109863523Y-74766876D01*
X109862133Y-74765671D01*
X109854450Y-74764000D01*
X108681998Y-74764000D01*
X108613877Y-74743998D01*
X108567384Y-74690342D01*
X108555998Y-74638000D01*
X108555998Y-74237885D01*
X109063998Y-74237885D01*
X109068473Y-74253124D01*
X109069863Y-74254329D01*
X109077546Y-74256000D01*
X109849882Y-74256000D01*
X109865121Y-74251525D01*
X109866326Y-74250135D01*
X109867997Y-74242452D01*
X109867997Y-73815331D01*
X109867627Y-73808510D01*
X109862103Y-73757648D01*
X109858477Y-73742396D01*
X109813322Y-73621946D01*
X109804784Y-73606351D01*
X109728283Y-73504276D01*
X109715722Y-73491715D01*
X109613647Y-73415214D01*
X109598052Y-73406676D01*
X109477604Y-73361522D01*
X109462349Y-73357895D01*
X109411484Y-73352369D01*
X109404670Y-73352000D01*
X109082113Y-73352000D01*
X109066874Y-73356475D01*
X109065669Y-73357865D01*
X109063998Y-73365548D01*
X109063998Y-74237885D01*
X108555998Y-74237885D01*
X108555998Y-73370116D01*
X108551523Y-73354877D01*
X108550133Y-73353672D01*
X108542450Y-73352001D01*
X108422751Y-73352001D01*
X108354630Y-73331999D01*
X108308137Y-73278343D01*
X108297441Y-73212831D01*
X108312814Y-73066565D01*
X108313504Y-73060000D01*
X108308357Y-73011029D01*
X108294232Y-72876635D01*
X108294232Y-72876633D01*
X108293542Y-72870072D01*
X108234527Y-72688444D01*
X108221708Y-72666240D01*
X108192256Y-72615229D01*
X108139040Y-72523056D01*
X108011253Y-72381134D01*
X107963329Y-72346315D01*
X107919975Y-72290092D01*
X107912127Y-72230769D01*
X107913500Y-72218134D01*
X107913500Y-70829500D01*
X107933502Y-70761379D01*
X107987158Y-70714886D01*
X108039500Y-70703500D01*
X109428134Y-70703500D01*
X109490316Y-70696745D01*
X109626705Y-70645615D01*
X109700017Y-70590671D01*
X109766522Y-70565823D01*
X109835904Y-70580876D01*
X109852286Y-70591535D01*
X109916828Y-70641061D01*
X109931007Y-70649247D01*
X110063649Y-70704189D01*
X110079469Y-70708428D01*
X110112040Y-70712716D01*
X110126222Y-70710505D01*
X110130000Y-70697348D01*
X110130000Y-70034500D01*
X110150002Y-69966379D01*
X110203658Y-69919886D01*
X110256000Y-69908500D01*
X110279053Y-69908500D01*
X110347174Y-69928502D01*
G37*
%TD.AperFunction*%
%TA.AperFunction,Conductor*%
G36*
X102217957Y-73582113D02*
G01*
X102247986Y-73598233D01*
X102254677Y-73603094D01*
X102293248Y-73631118D01*
X102299276Y-73633802D01*
X102299278Y-73633803D01*
X102342216Y-73652920D01*
X102467712Y-73708794D01*
X102520693Y-73720056D01*
X102521697Y-73720269D01*
X102584171Y-73753998D01*
X102618492Y-73816147D01*
X102621500Y-73843516D01*
X102621500Y-73858134D01*
X102621869Y-73861529D01*
X102621869Y-73861533D01*
X102625656Y-73896393D01*
X102625656Y-73923606D01*
X102621500Y-73961866D01*
X102621500Y-74358134D01*
X102621869Y-74361529D01*
X102621869Y-74361533D01*
X102625656Y-74396393D01*
X102625656Y-74423606D01*
X102621500Y-74461866D01*
X102621500Y-74858134D01*
X102621869Y-74861529D01*
X102621869Y-74861533D01*
X102625656Y-74896393D01*
X102625656Y-74923606D01*
X102621500Y-74961866D01*
X102621500Y-75028669D01*
X102601498Y-75096790D01*
X102559640Y-75137122D01*
X102535461Y-75151422D01*
X102535459Y-75151423D01*
X102528637Y-75155458D01*
X102514313Y-75169782D01*
X102499281Y-75182621D01*
X102482893Y-75194528D01*
X102454712Y-75228593D01*
X102446722Y-75237373D01*
X101960247Y-75723848D01*
X101951961Y-75731388D01*
X101945482Y-75735500D01*
X101940057Y-75741277D01*
X101898857Y-75785151D01*
X101896102Y-75787993D01*
X101876365Y-75807730D01*
X101873885Y-75810927D01*
X101866182Y-75819947D01*
X101835914Y-75852179D01*
X101832095Y-75859125D01*
X101832093Y-75859128D01*
X101826152Y-75869934D01*
X101815301Y-75886453D01*
X101802886Y-75902459D01*
X101799741Y-75909728D01*
X101799738Y-75909732D01*
X101785326Y-75943037D01*
X101780109Y-75953687D01*
X101758805Y-75992440D01*
X101756834Y-76000115D01*
X101756834Y-76000116D01*
X101753767Y-76012062D01*
X101747363Y-76030766D01*
X101739319Y-76049355D01*
X101738080Y-76057178D01*
X101738077Y-76057188D01*
X101732401Y-76093024D01*
X101729995Y-76104644D01*
X101720972Y-76139789D01*
X101719000Y-76147470D01*
X101719000Y-76167724D01*
X101717449Y-76187434D01*
X101714280Y-76207443D01*
X101715026Y-76215335D01*
X101718441Y-76251461D01*
X101719000Y-76263319D01*
X101719000Y-76399801D01*
X101698998Y-76467922D01*
X101692962Y-76476505D01*
X101603476Y-76593125D01*
X101542162Y-76741150D01*
X101526500Y-76860115D01*
X101526501Y-77139884D01*
X101527039Y-77143971D01*
X101530197Y-77167958D01*
X101519257Y-77238107D01*
X101472129Y-77291205D01*
X101405018Y-77310404D01*
X97114243Y-77301668D01*
X97046164Y-77281527D01*
X96999780Y-77227777D01*
X96988500Y-77175668D01*
X96988500Y-75748594D01*
X97008502Y-75680473D01*
X97062158Y-75633980D01*
X97132432Y-75623876D01*
X97197012Y-75653370D01*
X97203595Y-75659499D01*
X97596343Y-76052247D01*
X97603887Y-76060537D01*
X97608000Y-76067018D01*
X97613777Y-76072443D01*
X97657667Y-76113658D01*
X97660509Y-76116413D01*
X97680230Y-76136134D01*
X97683425Y-76138612D01*
X97692447Y-76146318D01*
X97724679Y-76176586D01*
X97731628Y-76180406D01*
X97742432Y-76186346D01*
X97758956Y-76197199D01*
X97774959Y-76209613D01*
X97815543Y-76227176D01*
X97826173Y-76232383D01*
X97864940Y-76253695D01*
X97872617Y-76255666D01*
X97872622Y-76255668D01*
X97884558Y-76258732D01*
X97903266Y-76265137D01*
X97921855Y-76273181D01*
X97929683Y-76274421D01*
X97929690Y-76274423D01*
X97965524Y-76280099D01*
X97977144Y-76282505D01*
X98012289Y-76291528D01*
X98019970Y-76293500D01*
X98040224Y-76293500D01*
X98059934Y-76295051D01*
X98079943Y-76298220D01*
X98087835Y-76297474D01*
X98123961Y-76294059D01*
X98135819Y-76293500D01*
X98548174Y-76293500D01*
X98592404Y-76301518D01*
X98619684Y-76311745D01*
X98681866Y-76318500D01*
X100178134Y-76318500D01*
X100240316Y-76311745D01*
X100376705Y-76260615D01*
X100493261Y-76173261D01*
X100580615Y-76056705D01*
X100631745Y-75920316D01*
X100638500Y-75858134D01*
X100638500Y-75461866D01*
X100634344Y-75423606D01*
X100634344Y-75396393D01*
X100638131Y-75361533D01*
X100638131Y-75361529D01*
X100638500Y-75358134D01*
X100638500Y-74961866D01*
X100634783Y-74927652D01*
X100647311Y-74857771D01*
X100695631Y-74805755D01*
X100737114Y-74790760D01*
X100739889Y-74790673D01*
X100759343Y-74785021D01*
X100778700Y-74781013D01*
X100790930Y-74779468D01*
X100790931Y-74779468D01*
X100798797Y-74778474D01*
X100806168Y-74775555D01*
X100806170Y-74775555D01*
X100839912Y-74762196D01*
X100851142Y-74758351D01*
X100885983Y-74748229D01*
X100885984Y-74748229D01*
X100893593Y-74746018D01*
X100900412Y-74741985D01*
X100900417Y-74741983D01*
X100911028Y-74735707D01*
X100928776Y-74727012D01*
X100947617Y-74719552D01*
X100983387Y-74693564D01*
X100993307Y-74687048D01*
X101024535Y-74668580D01*
X101024538Y-74668578D01*
X101031362Y-74664542D01*
X101045683Y-74650221D01*
X101060717Y-74637380D01*
X101070694Y-74630131D01*
X101077107Y-74625472D01*
X101105298Y-74591395D01*
X101113288Y-74582616D01*
X102084830Y-73611074D01*
X102147142Y-73577048D01*
X102217957Y-73582113D01*
G37*
%TD.AperFunction*%
%TA.AperFunction,Conductor*%
G36*
X104013813Y-76802879D02*
G01*
X104046548Y-76810000D01*
X104223000Y-76810000D01*
X104291121Y-76830002D01*
X104337614Y-76883658D01*
X104349000Y-76935999D01*
X104349001Y-77083999D01*
X104328999Y-77152120D01*
X104275344Y-77198613D01*
X104223001Y-77210000D01*
X103540470Y-77210000D01*
X103513687Y-77207121D01*
X103480952Y-77200000D01*
X103304500Y-77200000D01*
X103236379Y-77179998D01*
X103189886Y-77126342D01*
X103178500Y-77074001D01*
X103178499Y-76926001D01*
X103198501Y-76857880D01*
X103252156Y-76811387D01*
X103304499Y-76800000D01*
X103987030Y-76800000D01*
X104013813Y-76802879D01*
G37*
%TD.AperFunction*%
%TA.AperFunction,Conductor*%
G36*
X97877922Y-67376002D02*
G01*
X97886505Y-67382038D01*
X98003125Y-67471524D01*
X98060021Y-67495091D01*
X98115302Y-67539639D01*
X98137723Y-67607003D01*
X98120165Y-67675794D01*
X98068203Y-67724172D01*
X98011803Y-67737500D01*
X97720116Y-67737500D01*
X97704877Y-67741975D01*
X97703672Y-67743365D01*
X97702001Y-67751048D01*
X97702001Y-67790723D01*
X97702539Y-67798935D01*
X97716572Y-67905533D01*
X97720810Y-67921348D01*
X97775753Y-68053993D01*
X97783941Y-68068176D01*
X97871344Y-68182080D01*
X97882920Y-68193656D01*
X97996824Y-68281059D01*
X98011007Y-68289247D01*
X98143649Y-68344189D01*
X98159469Y-68348428D01*
X98192040Y-68352716D01*
X98206222Y-68350505D01*
X98210000Y-68337348D01*
X98210000Y-67755614D01*
X98196606Y-67709997D01*
X98196606Y-67639001D01*
X98234990Y-67579275D01*
X98299571Y-67549782D01*
X98317501Y-67548500D01*
X98413205Y-67548499D01*
X98504622Y-67548499D01*
X98572742Y-67568501D01*
X98619235Y-67622156D01*
X98629340Y-67692430D01*
X98616758Y-67719981D01*
X98610000Y-67751048D01*
X98610000Y-68336965D01*
X98614044Y-68350736D01*
X98627582Y-68352765D01*
X98629058Y-68352571D01*
X98699206Y-68363513D01*
X98752303Y-68410643D01*
X98771500Y-68477494D01*
X98771500Y-68643134D01*
X98771869Y-68646531D01*
X98778255Y-68705316D01*
X98775826Y-68705580D01*
X98775826Y-68734420D01*
X98778255Y-68734684D01*
X98771500Y-68796866D01*
X98771500Y-69443134D01*
X98771869Y-69446531D01*
X98778255Y-69505316D01*
X98775826Y-69505580D01*
X98775826Y-69534420D01*
X98778255Y-69534684D01*
X98771500Y-69596866D01*
X98771500Y-70243134D01*
X98778255Y-70305316D01*
X98829385Y-70441705D01*
X98916739Y-70558261D01*
X99033295Y-70645615D01*
X99169684Y-70696745D01*
X99231866Y-70703500D01*
X100620500Y-70703500D01*
X100688621Y-70723502D01*
X100735114Y-70777158D01*
X100746500Y-70829500D01*
X100746500Y-72218134D01*
X100753255Y-72280316D01*
X100804385Y-72416705D01*
X100891739Y-72533261D01*
X101008295Y-72620615D01*
X101016700Y-72623766D01*
X101016702Y-72623767D01*
X101021422Y-72625536D01*
X101025198Y-72626952D01*
X101081963Y-72669591D01*
X101106664Y-72736152D01*
X101091458Y-72805502D01*
X101070065Y-72834029D01*
X100709161Y-73194933D01*
X100646849Y-73228959D01*
X100576034Y-73223894D01*
X100519242Y-73181405D01*
X100493261Y-73146739D01*
X100376705Y-73059385D01*
X100240316Y-73008255D01*
X100178134Y-73001500D01*
X98681866Y-73001500D01*
X98619684Y-73008255D01*
X98483295Y-73059385D01*
X98366739Y-73146739D01*
X98279385Y-73263295D01*
X98276233Y-73271704D01*
X98276232Y-73271705D01*
X98256712Y-73323775D01*
X98214071Y-73380540D01*
X98147510Y-73405240D01*
X98078161Y-73390033D01*
X98062026Y-73379508D01*
X97989393Y-73323775D01*
X97936875Y-73283476D01*
X97788850Y-73222162D01*
X97717974Y-73212831D01*
X97673972Y-73207038D01*
X97673971Y-73207038D01*
X97669885Y-73206500D01*
X97530017Y-73206500D01*
X97390116Y-73206501D01*
X97386031Y-73207039D01*
X97386027Y-73207039D01*
X97279337Y-73221084D01*
X97279335Y-73221084D01*
X97271150Y-73222162D01*
X97123124Y-73283476D01*
X97114052Y-73290437D01*
X97114008Y-73290471D01*
X97111456Y-73291458D01*
X97109422Y-73292632D01*
X97109239Y-73292315D01*
X97047788Y-73316072D01*
X96978239Y-73301807D01*
X96927443Y-73252206D01*
X96911527Y-73183017D01*
X96926785Y-73129999D01*
X96933322Y-73118060D01*
X96978478Y-72997606D01*
X96982105Y-72982351D01*
X96987631Y-72931486D01*
X96988000Y-72924672D01*
X96988000Y-71652115D01*
X96983525Y-71636876D01*
X96982135Y-71635671D01*
X96974452Y-71634000D01*
X94752115Y-71634000D01*
X94736876Y-71638475D01*
X94735671Y-71639865D01*
X94734000Y-71647548D01*
X94734000Y-73369884D01*
X94738475Y-73385123D01*
X94739865Y-73386328D01*
X94747548Y-73387999D01*
X96401196Y-73387999D01*
X96469317Y-73408001D01*
X96515810Y-73461657D01*
X96525914Y-73531931D01*
X96496420Y-73596511D01*
X96490291Y-73603094D01*
X96348790Y-73744595D01*
X96286478Y-73778621D01*
X96259695Y-73781500D01*
X92772677Y-73781500D01*
X92704556Y-73761498D01*
X92658063Y-73707842D01*
X92646678Y-73654948D01*
X92647298Y-73513448D01*
X92667599Y-73445415D01*
X92721457Y-73399158D01*
X92773297Y-73388000D01*
X94207885Y-73388000D01*
X94223124Y-73383525D01*
X94224329Y-73382135D01*
X94226000Y-73374452D01*
X94226000Y-71107885D01*
X94734000Y-71107885D01*
X94738475Y-71123124D01*
X94739865Y-71124329D01*
X94747548Y-71126000D01*
X96969884Y-71126000D01*
X96985123Y-71121525D01*
X96986328Y-71120135D01*
X96987999Y-71112452D01*
X96987999Y-69835331D01*
X96987629Y-69828510D01*
X96982105Y-69777648D01*
X96978479Y-69762396D01*
X96933324Y-69641946D01*
X96924786Y-69626351D01*
X96848285Y-69524276D01*
X96835724Y-69511715D01*
X96733649Y-69435214D01*
X96718054Y-69426676D01*
X96597606Y-69381522D01*
X96582351Y-69377895D01*
X96531486Y-69372369D01*
X96524672Y-69372000D01*
X94752115Y-69372000D01*
X94736876Y-69376475D01*
X94735671Y-69377865D01*
X94734000Y-69385548D01*
X94734000Y-71107885D01*
X94226000Y-71107885D01*
X94226000Y-69390116D01*
X94221525Y-69374877D01*
X94220135Y-69373672D01*
X94212452Y-69372001D01*
X92792009Y-69372001D01*
X92723888Y-69351999D01*
X92677395Y-69298343D01*
X92666010Y-69245449D01*
X92666674Y-69093948D01*
X92686975Y-69025915D01*
X92740834Y-68979658D01*
X92792673Y-68968500D01*
X96538134Y-68968500D01*
X96600316Y-68961745D01*
X96736705Y-68910615D01*
X96853261Y-68823261D01*
X96940615Y-68706705D01*
X96991745Y-68570316D01*
X96998500Y-68508134D01*
X96998500Y-67482000D01*
X97018502Y-67413879D01*
X97072158Y-67367386D01*
X97124500Y-67356000D01*
X97809801Y-67356000D01*
X97877922Y-67376002D01*
G37*
%TD.AperFunction*%
%TA.AperFunction,Conductor*%
G36*
X105142105Y-68263502D02*
G01*
X105163079Y-68280405D01*
X106495252Y-69612577D01*
X106507639Y-69626989D01*
X106519900Y-69643651D01*
X106525483Y-69648394D01*
X106558720Y-69676631D01*
X106566236Y-69683561D01*
X106571620Y-69688945D01*
X106574481Y-69691208D01*
X106574486Y-69691213D01*
X106593091Y-69705932D01*
X106596493Y-69708721D01*
X106644672Y-69749653D01*
X106644676Y-69749656D01*
X106650251Y-69754392D01*
X106656772Y-69757721D01*
X106661451Y-69760842D01*
X106666205Y-69763778D01*
X106671943Y-69768318D01*
X106678570Y-69771415D01*
X106678571Y-69771416D01*
X106735854Y-69798189D01*
X106739761Y-69800099D01*
X106797829Y-69829749D01*
X106849400Y-69878541D01*
X106866407Y-69947471D01*
X106843447Y-70014653D01*
X106787811Y-70058756D01*
X106754140Y-70067228D01*
X106744688Y-70068255D01*
X106744424Y-70065826D01*
X106715580Y-70065826D01*
X106715316Y-70068255D01*
X106656531Y-70061869D01*
X106653134Y-70061500D01*
X106006866Y-70061500D01*
X105944684Y-70068255D01*
X105944420Y-70065826D01*
X105915580Y-70065826D01*
X105915316Y-70068255D01*
X105856531Y-70061869D01*
X105853134Y-70061500D01*
X105206866Y-70061500D01*
X105144684Y-70068255D01*
X105144420Y-70065826D01*
X105115580Y-70065826D01*
X105115316Y-70068255D01*
X105056531Y-70061869D01*
X105053134Y-70061500D01*
X104406866Y-70061500D01*
X104344684Y-70068255D01*
X104344420Y-70065826D01*
X104315580Y-70065826D01*
X104315316Y-70068255D01*
X104256531Y-70061869D01*
X104253134Y-70061500D01*
X103606866Y-70061500D01*
X103544684Y-70068255D01*
X103544420Y-70065826D01*
X103515580Y-70065826D01*
X103515316Y-70068255D01*
X103456531Y-70061869D01*
X103453134Y-70061500D01*
X102806866Y-70061500D01*
X102744684Y-70068255D01*
X102744420Y-70065826D01*
X102715580Y-70065826D01*
X102715316Y-70068255D01*
X102656531Y-70061869D01*
X102653134Y-70061500D01*
X102006866Y-70061500D01*
X101944684Y-70068255D01*
X101944420Y-70065826D01*
X101915580Y-70065826D01*
X101915316Y-70068255D01*
X101856531Y-70061869D01*
X101853134Y-70061500D01*
X101514500Y-70061500D01*
X101446379Y-70041498D01*
X101399886Y-69987842D01*
X101388500Y-69935500D01*
X101388500Y-69596866D01*
X101381745Y-69534684D01*
X101384174Y-69534420D01*
X101384174Y-69505580D01*
X101381745Y-69505316D01*
X101388131Y-69446531D01*
X101388500Y-69443134D01*
X101388500Y-69159106D01*
X101408502Y-69090985D01*
X101462158Y-69044492D01*
X101478686Y-69038826D01*
X101479890Y-69038686D01*
X101546210Y-69014613D01*
X101550356Y-69013190D01*
X101610458Y-68993720D01*
X101610462Y-68993718D01*
X101617420Y-68991464D01*
X101623672Y-68987670D01*
X101628788Y-68985328D01*
X101633789Y-68982824D01*
X101640667Y-68980327D01*
X101646784Y-68976317D01*
X101646789Y-68976314D01*
X101699654Y-68941653D01*
X101703376Y-68939305D01*
X101758848Y-68905644D01*
X101758849Y-68905643D01*
X101763645Y-68902733D01*
X101771755Y-68895571D01*
X101771770Y-68895588D01*
X101775078Y-68892655D01*
X101777583Y-68890561D01*
X101783706Y-68886546D01*
X101835132Y-68832259D01*
X101837510Y-68829815D01*
X102231434Y-68435892D01*
X102294332Y-68401741D01*
X102402288Y-68378794D01*
X102436610Y-68363513D01*
X102570722Y-68303803D01*
X102570724Y-68303802D01*
X102576752Y-68301118D01*
X102611802Y-68275653D01*
X102622935Y-68267564D01*
X102689803Y-68243706D01*
X102696996Y-68243500D01*
X105073984Y-68243500D01*
X105142105Y-68263502D01*
G37*
%TD.AperFunction*%
%TA.AperFunction,Conductor*%
G36*
X108557596Y-59927219D02*
G01*
X110322786Y-59928160D01*
X110390896Y-59948198D01*
X110437361Y-60001879D01*
X110448718Y-60054709D01*
X110413523Y-68099079D01*
X110413383Y-68131052D01*
X110393083Y-68199085D01*
X110339224Y-68245343D01*
X110287386Y-68256501D01*
X110190116Y-68256501D01*
X110186031Y-68257039D01*
X110186027Y-68257039D01*
X110079337Y-68271084D01*
X110079335Y-68271084D01*
X110071150Y-68272162D01*
X110062722Y-68275653D01*
X110061992Y-68275731D01*
X110055541Y-68277460D01*
X110055272Y-68276454D01*
X109992133Y-68283245D01*
X109928645Y-68251468D01*
X109892415Y-68190411D01*
X109888500Y-68159246D01*
X109888500Y-67996866D01*
X109881745Y-67934684D01*
X109884174Y-67934420D01*
X109884174Y-67905580D01*
X109881745Y-67905316D01*
X109888131Y-67846531D01*
X109888500Y-67843134D01*
X109888500Y-67196866D01*
X109881745Y-67134684D01*
X109883884Y-67134452D01*
X109883834Y-67105488D01*
X109881252Y-67105207D01*
X109887631Y-67046486D01*
X109888000Y-67039672D01*
X109888000Y-66992115D01*
X109883525Y-66976876D01*
X109882135Y-66975671D01*
X109861217Y-66971121D01*
X109861482Y-66969903D01*
X109807313Y-66953998D01*
X109774608Y-66923565D01*
X109748643Y-66888920D01*
X109748642Y-66888919D01*
X109743261Y-66881739D01*
X109661985Y-66820826D01*
X109619470Y-66763967D01*
X109614444Y-66693148D01*
X109648504Y-66630855D01*
X109661985Y-66619174D01*
X109736081Y-66563642D01*
X109743261Y-66558261D01*
X109774608Y-66516435D01*
X109831467Y-66473920D01*
X109861074Y-66468587D01*
X109885123Y-66461525D01*
X109886328Y-66460135D01*
X109887999Y-66452452D01*
X109887999Y-66400331D01*
X109887629Y-66393510D01*
X109881252Y-66334793D01*
X109883998Y-66334495D01*
X109883940Y-66305554D01*
X109881745Y-66305316D01*
X109888131Y-66246531D01*
X109888500Y-66243134D01*
X109888500Y-65596866D01*
X109881745Y-65534684D01*
X109884174Y-65534420D01*
X109884174Y-65505580D01*
X109881745Y-65505316D01*
X109888131Y-65446531D01*
X109888500Y-65443134D01*
X109888500Y-64796866D01*
X109881745Y-64734684D01*
X109884174Y-64734420D01*
X109884174Y-64705580D01*
X109881745Y-64705316D01*
X109888131Y-64646531D01*
X109888500Y-64643134D01*
X109888500Y-63996866D01*
X109881745Y-63934684D01*
X109830615Y-63798295D01*
X109743261Y-63681739D01*
X109626705Y-63594385D01*
X109610004Y-63588124D01*
X109553240Y-63545484D01*
X109528539Y-63478923D01*
X109545114Y-63407142D01*
X109591223Y-63327279D01*
X109591224Y-63327278D01*
X109594527Y-63321556D01*
X109653542Y-63139928D01*
X109673504Y-62950000D01*
X109653542Y-62760072D01*
X109594527Y-62578444D01*
X109499040Y-62413056D01*
X109371253Y-62271134D01*
X109216752Y-62158882D01*
X109210724Y-62156198D01*
X109210722Y-62156197D01*
X109048319Y-62083891D01*
X109048318Y-62083891D01*
X109042288Y-62081206D01*
X108948888Y-62061353D01*
X108861944Y-62042872D01*
X108861939Y-62042872D01*
X108855487Y-62041500D01*
X108664513Y-62041500D01*
X108658061Y-62042872D01*
X108658056Y-62042872D01*
X108571112Y-62061353D01*
X108477712Y-62081206D01*
X108471682Y-62083891D01*
X108471681Y-62083891D01*
X108309278Y-62156197D01*
X108309276Y-62156198D01*
X108303248Y-62158882D01*
X108148747Y-62271134D01*
X108133134Y-62288474D01*
X108072691Y-62325712D01*
X108001707Y-62324361D01*
X107942722Y-62284847D01*
X107914464Y-62219717D01*
X107913500Y-62204162D01*
X107913500Y-62021866D01*
X107906745Y-61959684D01*
X107855615Y-61823295D01*
X107768261Y-61706739D01*
X107740618Y-61686022D01*
X107698105Y-61629163D01*
X107693080Y-61558345D01*
X107716221Y-61508495D01*
X107786524Y-61416875D01*
X107847838Y-61268850D01*
X107863500Y-61149885D01*
X107863499Y-60870116D01*
X107847838Y-60751150D01*
X107797012Y-60628444D01*
X107789684Y-60610752D01*
X107789683Y-60610750D01*
X107786524Y-60603124D01*
X107736093Y-60537402D01*
X107694014Y-60482564D01*
X107694013Y-60482563D01*
X107688987Y-60476013D01*
X107682434Y-60470984D01*
X107676598Y-60465149D01*
X107677962Y-60463785D01*
X107644280Y-60419166D01*
X107639700Y-60407598D01*
X107635855Y-60396368D01*
X107625730Y-60361517D01*
X107625730Y-60361516D01*
X107623519Y-60353907D01*
X107613205Y-60336466D01*
X107604508Y-60318713D01*
X107599972Y-60307258D01*
X107597052Y-60299883D01*
X107571063Y-60264112D01*
X107564547Y-60254192D01*
X107546078Y-60222963D01*
X107542042Y-60216138D01*
X107527718Y-60201814D01*
X107514883Y-60186787D01*
X107502972Y-60170393D01*
X107478044Y-60149771D01*
X107438306Y-60090938D01*
X107436683Y-60019960D01*
X107473692Y-59959372D01*
X107537582Y-59928411D01*
X107558423Y-59926686D01*
X108557596Y-59927219D01*
G37*
%TD.AperFunction*%
%TA.AperFunction,Conductor*%
G36*
X106806866Y-64178500D02*
G01*
X107145500Y-64178500D01*
X107213621Y-64198502D01*
X107260114Y-64252158D01*
X107271500Y-64304500D01*
X107271500Y-64643134D01*
X107271869Y-64646531D01*
X107278255Y-64705316D01*
X107275826Y-64705580D01*
X107275826Y-64734420D01*
X107278255Y-64734684D01*
X107271500Y-64796866D01*
X107271500Y-65443134D01*
X107271869Y-65446531D01*
X107278255Y-65505316D01*
X107275826Y-65505580D01*
X107275826Y-65534420D01*
X107278255Y-65534684D01*
X107271500Y-65596866D01*
X107271500Y-66243134D01*
X107271869Y-66246531D01*
X107278255Y-66305316D01*
X107276116Y-66305548D01*
X107276166Y-66334512D01*
X107278748Y-66334793D01*
X107272369Y-66393514D01*
X107272000Y-66400328D01*
X107272000Y-66447885D01*
X107276475Y-66463124D01*
X107277865Y-66464329D01*
X107298783Y-66468879D01*
X107298518Y-66470097D01*
X107352687Y-66486002D01*
X107385392Y-66516435D01*
X107416739Y-66558261D01*
X107423919Y-66563642D01*
X107498015Y-66619174D01*
X107540530Y-66676033D01*
X107545556Y-66746852D01*
X107511496Y-66809145D01*
X107498016Y-66820825D01*
X107416739Y-66881739D01*
X107411358Y-66888919D01*
X107411357Y-66888920D01*
X107385392Y-66923565D01*
X107328533Y-66966080D01*
X107298926Y-66971413D01*
X107274877Y-66978475D01*
X107273672Y-66979865D01*
X107272001Y-66987548D01*
X107272001Y-67039669D01*
X107272371Y-67046490D01*
X107278748Y-67105207D01*
X107276002Y-67105505D01*
X107276060Y-67134446D01*
X107278255Y-67134684D01*
X107271500Y-67196866D01*
X107271500Y-67843134D01*
X107271869Y-67846531D01*
X107278255Y-67905316D01*
X107275826Y-67905580D01*
X107275826Y-67934420D01*
X107278255Y-67934684D01*
X107271500Y-67996866D01*
X107271500Y-68009984D01*
X107251498Y-68078105D01*
X107197842Y-68124598D01*
X107127568Y-68134702D01*
X107062988Y-68105208D01*
X107056405Y-68099079D01*
X105994748Y-67037423D01*
X105982361Y-67023010D01*
X105974441Y-67012248D01*
X105970100Y-67006349D01*
X105931280Y-66973369D01*
X105923764Y-66966439D01*
X105918380Y-66961055D01*
X105915519Y-66958792D01*
X105915514Y-66958787D01*
X105896909Y-66944068D01*
X105893507Y-66941279D01*
X105845328Y-66900347D01*
X105845324Y-66900344D01*
X105839749Y-66895608D01*
X105833228Y-66892279D01*
X105828549Y-66889158D01*
X105823795Y-66886222D01*
X105818057Y-66881682D01*
X105754147Y-66851811D01*
X105750239Y-66849901D01*
X105687418Y-66817824D01*
X105680306Y-66816084D01*
X105675020Y-66814118D01*
X105669735Y-66812360D01*
X105663105Y-66809261D01*
X105594032Y-66794894D01*
X105589748Y-66793924D01*
X105521279Y-66777170D01*
X105515677Y-66776822D01*
X105515674Y-66776822D01*
X105510480Y-66776500D01*
X105510481Y-66776476D01*
X105506066Y-66776212D01*
X105502816Y-66775922D01*
X105495648Y-66774431D01*
X105429851Y-66776211D01*
X105420877Y-66776454D01*
X105417469Y-66776500D01*
X105073478Y-66776500D01*
X105005357Y-66756498D01*
X104958864Y-66702842D01*
X104948760Y-66632568D01*
X104978254Y-66567988D01*
X105022230Y-66535393D01*
X105070719Y-66513805D01*
X105070726Y-66513801D01*
X105076752Y-66511118D01*
X105231253Y-66398866D01*
X105289213Y-66334495D01*
X105354621Y-66261852D01*
X105354622Y-66261851D01*
X105359040Y-66256944D01*
X105430875Y-66132523D01*
X105450897Y-66106429D01*
X106002580Y-65554745D01*
X106016994Y-65542358D01*
X106027752Y-65534441D01*
X106033651Y-65530100D01*
X106066631Y-65491280D01*
X106073561Y-65483764D01*
X106078945Y-65478380D01*
X106081208Y-65475519D01*
X106081213Y-65475514D01*
X106095932Y-65456909D01*
X106098721Y-65453507D01*
X106139653Y-65405328D01*
X106139656Y-65405324D01*
X106144392Y-65399749D01*
X106147721Y-65393228D01*
X106150842Y-65388549D01*
X106153778Y-65383795D01*
X106158318Y-65378057D01*
X106174834Y-65342721D01*
X106188189Y-65314146D01*
X106190099Y-65310239D01*
X106222176Y-65247418D01*
X106223916Y-65240306D01*
X106225882Y-65235020D01*
X106227640Y-65229735D01*
X106230739Y-65223105D01*
X106245106Y-65154032D01*
X106246076Y-65149748D01*
X106259882Y-65093326D01*
X106262830Y-65081279D01*
X106263500Y-65070480D01*
X106263524Y-65070481D01*
X106263788Y-65066066D01*
X106264078Y-65062816D01*
X106265569Y-65055648D01*
X106263546Y-64980877D01*
X106263500Y-64977469D01*
X106263500Y-64304500D01*
X106283502Y-64236379D01*
X106337158Y-64189886D01*
X106389500Y-64178500D01*
X106653134Y-64178500D01*
X106715316Y-64171745D01*
X106715580Y-64174174D01*
X106744420Y-64174174D01*
X106744684Y-64171745D01*
X106806866Y-64178500D01*
G37*
%TD.AperFunction*%
%TA.AperFunction,Conductor*%
G36*
X103559314Y-64173334D02*
G01*
X103586594Y-64176298D01*
X103652156Y-64203540D01*
X103692581Y-64261904D01*
X103695036Y-64332858D01*
X103692818Y-64340497D01*
X103686458Y-64360072D01*
X103685768Y-64366638D01*
X103685767Y-64366642D01*
X103672406Y-64493767D01*
X103666496Y-64550000D01*
X103667186Y-64556565D01*
X103684364Y-64720000D01*
X103686458Y-64739928D01*
X103745473Y-64921556D01*
X103748776Y-64927278D01*
X103748777Y-64927279D01*
X103779722Y-64980877D01*
X103840960Y-65086944D01*
X103845378Y-65091851D01*
X103846450Y-65093326D01*
X103870309Y-65160194D01*
X103853633Y-65230387D01*
X103840037Y-65253936D01*
X103785473Y-65348444D01*
X103726458Y-65530072D01*
X103725768Y-65536633D01*
X103725768Y-65536635D01*
X103714725Y-65641705D01*
X103706496Y-65720000D01*
X103707186Y-65726565D01*
X103725066Y-65896680D01*
X103726458Y-65909928D01*
X103785473Y-66091556D01*
X103880960Y-66256944D01*
X103885378Y-66261851D01*
X103885379Y-66261852D01*
X103950787Y-66334495D01*
X104008747Y-66398866D01*
X104163248Y-66511118D01*
X104169274Y-66513801D01*
X104169281Y-66513805D01*
X104217770Y-66535393D01*
X104271866Y-66581373D01*
X104292516Y-66649300D01*
X104273164Y-66717608D01*
X104219953Y-66764610D01*
X104166522Y-66776500D01*
X102696996Y-66776500D01*
X102628875Y-66756498D01*
X102622935Y-66752436D01*
X102582094Y-66722763D01*
X102582093Y-66722762D01*
X102576752Y-66718882D01*
X102570724Y-66716198D01*
X102570722Y-66716197D01*
X102408319Y-66643891D01*
X102408318Y-66643891D01*
X102402288Y-66641206D01*
X102294332Y-66618259D01*
X102231434Y-66584108D01*
X101894745Y-66247420D01*
X101882358Y-66233006D01*
X101874441Y-66222248D01*
X101870100Y-66216349D01*
X101831280Y-66183369D01*
X101823764Y-66176439D01*
X101818380Y-66171055D01*
X101815519Y-66168792D01*
X101815514Y-66168787D01*
X101796909Y-66154068D01*
X101793507Y-66151279D01*
X101745328Y-66110347D01*
X101745324Y-66110344D01*
X101739749Y-66105608D01*
X101733228Y-66102279D01*
X101728549Y-66099158D01*
X101723795Y-66096222D01*
X101718057Y-66091682D01*
X101704341Y-66085271D01*
X101654146Y-66061811D01*
X101650239Y-66059901D01*
X101587418Y-66027824D01*
X101580306Y-66026084D01*
X101575020Y-66024118D01*
X101569735Y-66022360D01*
X101563105Y-66019261D01*
X101494032Y-66004894D01*
X101489748Y-66003924D01*
X101421279Y-65987170D01*
X101415677Y-65986822D01*
X101415674Y-65986822D01*
X101410480Y-65986500D01*
X101410481Y-65986476D01*
X101406066Y-65986212D01*
X101402816Y-65985922D01*
X101395648Y-65984431D01*
X101329851Y-65986211D01*
X101320877Y-65986454D01*
X101317469Y-65986500D01*
X101316941Y-65986500D01*
X101248820Y-65966498D01*
X101202327Y-65912842D01*
X101192223Y-65842568D01*
X101221717Y-65777988D01*
X101230005Y-65770266D01*
X101229731Y-65769992D01*
X101236081Y-65763642D01*
X101243261Y-65758261D01*
X101274608Y-65716435D01*
X101331467Y-65673920D01*
X101361074Y-65668587D01*
X101385123Y-65661525D01*
X101386328Y-65660135D01*
X101387999Y-65652452D01*
X101387999Y-65600331D01*
X101387629Y-65593510D01*
X101381252Y-65534793D01*
X101383998Y-65534495D01*
X101383940Y-65505554D01*
X101381745Y-65505316D01*
X101388131Y-65446531D01*
X101388500Y-65443134D01*
X101388500Y-64796866D01*
X101381745Y-64734684D01*
X101384174Y-64734420D01*
X101384174Y-64705580D01*
X101381745Y-64705316D01*
X101388131Y-64646531D01*
X101388500Y-64643134D01*
X101388500Y-64304500D01*
X101408502Y-64236379D01*
X101462158Y-64189886D01*
X101514500Y-64178500D01*
X101853134Y-64178500D01*
X101915316Y-64171745D01*
X101915580Y-64174174D01*
X101944420Y-64174174D01*
X101944684Y-64171745D01*
X102006866Y-64178500D01*
X102653134Y-64178500D01*
X102715316Y-64171745D01*
X102715580Y-64174174D01*
X102744420Y-64174174D01*
X102744684Y-64171745D01*
X102806866Y-64178500D01*
X103453134Y-64178500D01*
X103515316Y-64171745D01*
X103515580Y-64174174D01*
X103544421Y-64174174D01*
X103544685Y-64171745D01*
X103559314Y-64173334D01*
G37*
%TD.AperFunction*%
%TA.AperFunction,Conductor*%
G36*
X100688621Y-63293502D02*
G01*
X100735114Y-63347158D01*
X100746500Y-63399500D01*
X100746500Y-63410500D01*
X100726498Y-63478621D01*
X100672842Y-63525114D01*
X100620500Y-63536500D01*
X99231866Y-63536500D01*
X99169684Y-63543255D01*
X99033295Y-63594385D01*
X98916739Y-63681739D01*
X98829385Y-63798295D01*
X98778255Y-63934684D01*
X98771500Y-63996866D01*
X98771500Y-64643134D01*
X98771869Y-64646531D01*
X98778255Y-64705316D01*
X98775826Y-64705580D01*
X98775826Y-64734420D01*
X98778255Y-64734684D01*
X98771500Y-64796866D01*
X98771500Y-65443134D01*
X98771869Y-65446531D01*
X98778255Y-65505316D01*
X98776116Y-65505548D01*
X98776166Y-65534512D01*
X98778748Y-65534793D01*
X98772369Y-65593514D01*
X98772000Y-65600327D01*
X98772001Y-65782066D01*
X98751999Y-65850187D01*
X98698344Y-65896680D01*
X98629555Y-65906989D01*
X98549885Y-65896500D01*
X98410017Y-65896500D01*
X98270116Y-65896501D01*
X98266031Y-65897039D01*
X98266027Y-65897039D01*
X98159337Y-65911084D01*
X98159335Y-65911084D01*
X98151150Y-65912162D01*
X98092393Y-65936500D01*
X98010752Y-65970316D01*
X98010750Y-65970317D01*
X98003124Y-65973476D01*
X97996574Y-65978502D01*
X97886505Y-66062962D01*
X97820284Y-66088563D01*
X97809800Y-66089000D01*
X97124500Y-66089000D01*
X97056379Y-66068998D01*
X97009886Y-66015342D01*
X96998500Y-65963000D01*
X96998500Y-65411866D01*
X96991745Y-65349684D01*
X96940615Y-65213295D01*
X96853261Y-65096739D01*
X96736705Y-65009385D01*
X96600316Y-64958255D01*
X96538134Y-64951500D01*
X92811390Y-64951500D01*
X92743269Y-64931498D01*
X92696776Y-64877842D01*
X92685391Y-64824948D01*
X92686053Y-64673948D01*
X92706354Y-64605915D01*
X92760213Y-64559658D01*
X92812052Y-64548500D01*
X96528134Y-64548500D01*
X96590316Y-64541745D01*
X96726705Y-64490615D01*
X96843261Y-64403261D01*
X96930615Y-64286705D01*
X96981745Y-64150316D01*
X96988500Y-64088134D01*
X96988500Y-63399500D01*
X97008502Y-63331379D01*
X97062158Y-63284886D01*
X97114500Y-63273500D01*
X100620500Y-63273500D01*
X100688621Y-63293502D01*
G37*
%TD.AperFunction*%
%TA.AperFunction,Conductor*%
G36*
X102889942Y-59924198D02*
G01*
X102958052Y-59944236D01*
X103004517Y-59997917D01*
X103014583Y-60068196D01*
X102985055Y-60132761D01*
X102941124Y-60165305D01*
X102849278Y-60206197D01*
X102849276Y-60206198D01*
X102843248Y-60208882D01*
X102688747Y-60321134D01*
X102684326Y-60326044D01*
X102684325Y-60326045D01*
X102571912Y-60450893D01*
X102560960Y-60463056D01*
X102549697Y-60482564D01*
X102475688Y-60610752D01*
X102465473Y-60628444D01*
X102406458Y-60810072D01*
X102386496Y-61000000D01*
X102406458Y-61189928D01*
X102465473Y-61371556D01*
X102468777Y-61377279D01*
X102471461Y-61383307D01*
X102468915Y-61384441D01*
X102482756Y-61441497D01*
X102459534Y-61508589D01*
X102403727Y-61552475D01*
X102356899Y-61561500D01*
X102006866Y-61561500D01*
X101944684Y-61568255D01*
X101944420Y-61565826D01*
X101915580Y-61565826D01*
X101915316Y-61568255D01*
X101856531Y-61561869D01*
X101853134Y-61561500D01*
X101206866Y-61561500D01*
X101144684Y-61568255D01*
X101008295Y-61619385D01*
X100891739Y-61706739D01*
X100886358Y-61713919D01*
X100886357Y-61713920D01*
X100854771Y-61756065D01*
X100797912Y-61798580D01*
X100753945Y-61806500D01*
X97114500Y-61806500D01*
X97046379Y-61786498D01*
X96999886Y-61732842D01*
X96988500Y-61680500D01*
X96988500Y-60991866D01*
X96981745Y-60929684D01*
X96930615Y-60793295D01*
X96843261Y-60676739D01*
X96726705Y-60589385D01*
X96590316Y-60538255D01*
X96528134Y-60531500D01*
X92830769Y-60531500D01*
X92762648Y-60511498D01*
X92716155Y-60457842D01*
X92704770Y-60404948D01*
X92706351Y-60044285D01*
X92726652Y-59976252D01*
X92780511Y-59929995D01*
X92832417Y-59918837D01*
X102889942Y-59924198D01*
G37*
%TD.AperFunction*%
%TD*%
M02*
