%TF.GenerationSoftware,KiCad,Pcbnew,(6.0.10)*%
%TF.CreationDate,2023-05-20T13:35:36+10:00*%
%TF.ProjectId,DFO,44464f2e-6b69-4636-9164-5f7063625858,rev?*%
%TF.SameCoordinates,Original*%
%TF.FileFunction,Legend,Top*%
%TF.FilePolarity,Positive*%
%FSLAX46Y46*%
G04 Gerber Fmt 4.6, Leading zero omitted, Abs format (unit mm)*
G04 Created by KiCad (PCBNEW (6.0.10)) date 2023-05-20 13:35:36*
%MOMM*%
%LPD*%
G01*
G04 APERTURE LIST*
%ADD10C,0.150000*%
%ADD11C,0.200000*%
%ADD12C,0.120000*%
G04 APERTURE END LIST*
D10*
X93698095Y-68730000D02*
X93602857Y-68682380D01*
X93460000Y-68682380D01*
X93317142Y-68730000D01*
X93221904Y-68825238D01*
X93174285Y-68920476D01*
X93126666Y-69110952D01*
X93126666Y-69253809D01*
X93174285Y-69444285D01*
X93221904Y-69539523D01*
X93317142Y-69634761D01*
X93460000Y-69682380D01*
X93555238Y-69682380D01*
X93698095Y-69634761D01*
X93745714Y-69587142D01*
X93745714Y-69253809D01*
X93555238Y-69253809D01*
X94174285Y-69682380D02*
X94174285Y-68682380D01*
X94745714Y-69682380D01*
X94745714Y-68682380D01*
X95221904Y-69682380D02*
X95221904Y-68682380D01*
X95460000Y-68682380D01*
X95602857Y-68730000D01*
X95698095Y-68825238D01*
X95745714Y-68920476D01*
X95793333Y-69110952D01*
X95793333Y-69253809D01*
X95745714Y-69444285D01*
X95698095Y-69539523D01*
X95602857Y-69634761D01*
X95460000Y-69682380D01*
X95221904Y-69682380D01*
X93341428Y-64222380D02*
X93960476Y-64222380D01*
X93627142Y-64603333D01*
X93770000Y-64603333D01*
X93865238Y-64650952D01*
X93912857Y-64698571D01*
X93960476Y-64793809D01*
X93960476Y-65031904D01*
X93912857Y-65127142D01*
X93865238Y-65174761D01*
X93770000Y-65222380D01*
X93484285Y-65222380D01*
X93389047Y-65174761D01*
X93341428Y-65127142D01*
X94389047Y-65127142D02*
X94436666Y-65174761D01*
X94389047Y-65222380D01*
X94341428Y-65174761D01*
X94389047Y-65127142D01*
X94389047Y-65222380D01*
X94770000Y-64222380D02*
X95389047Y-64222380D01*
X95055714Y-64603333D01*
X95198571Y-64603333D01*
X95293809Y-64650952D01*
X95341428Y-64698571D01*
X95389047Y-64793809D01*
X95389047Y-65031904D01*
X95341428Y-65127142D01*
X95293809Y-65174761D01*
X95198571Y-65222380D01*
X94912857Y-65222380D01*
X94817619Y-65174761D01*
X94770000Y-65127142D01*
X95722380Y-64555714D02*
X95960476Y-65222380D01*
X96198571Y-64555714D01*
D11*
X109958095Y-60545714D02*
X110758095Y-60545714D01*
X110758095Y-60850476D01*
X110720000Y-60926666D01*
X110681904Y-60964761D01*
X110605714Y-61002857D01*
X110491428Y-61002857D01*
X110415238Y-60964761D01*
X110377142Y-60926666D01*
X110339047Y-60850476D01*
X110339047Y-60545714D01*
X109996190Y-61307619D02*
X109958095Y-61421904D01*
X109958095Y-61612380D01*
X109996190Y-61688571D01*
X110034285Y-61726666D01*
X110110476Y-61764761D01*
X110186666Y-61764761D01*
X110262857Y-61726666D01*
X110300952Y-61688571D01*
X110339047Y-61612380D01*
X110377142Y-61460000D01*
X110415238Y-61383809D01*
X110453333Y-61345714D01*
X110529523Y-61307619D01*
X110605714Y-61307619D01*
X110681904Y-61345714D01*
X110720000Y-61383809D01*
X110758095Y-61460000D01*
X110758095Y-61650476D01*
X110720000Y-61764761D01*
X110758095Y-62031428D02*
X109958095Y-62564761D01*
X110758095Y-62564761D02*
X109958095Y-62031428D01*
X110758095Y-62755238D02*
X110758095Y-63212380D01*
X109958095Y-62983809D02*
X110758095Y-62983809D01*
X110186666Y-63440952D02*
X110186666Y-63821904D01*
X109958095Y-63364761D02*
X110758095Y-63631428D01*
X109958095Y-63898095D01*
X109958095Y-64545714D02*
X109958095Y-64164761D01*
X110758095Y-64164761D01*
X109958095Y-65421904D02*
X110758095Y-65421904D01*
X110758095Y-65612380D01*
X110720000Y-65726666D01*
X110643809Y-65802857D01*
X110567619Y-65840952D01*
X110415238Y-65879047D01*
X110300952Y-65879047D01*
X110148571Y-65840952D01*
X110072380Y-65802857D01*
X109996190Y-65726666D01*
X109958095Y-65612380D01*
X109958095Y-65421904D01*
X110377142Y-66488571D02*
X110377142Y-66221904D01*
X109958095Y-66221904D02*
X110758095Y-66221904D01*
X110758095Y-66602857D01*
X110758095Y-67060000D02*
X110758095Y-67212380D01*
X110720000Y-67288571D01*
X110643809Y-67364761D01*
X110491428Y-67402857D01*
X110224761Y-67402857D01*
X110072380Y-67364761D01*
X109996190Y-67288571D01*
X109958095Y-67212380D01*
X109958095Y-67060000D01*
X109996190Y-66983809D01*
X110072380Y-66907619D01*
X110224761Y-66869523D01*
X110491428Y-66869523D01*
X110643809Y-66907619D01*
X110720000Y-66983809D01*
X110758095Y-67060000D01*
D10*
X93258095Y-60744761D02*
X93400952Y-60792380D01*
X93639047Y-60792380D01*
X93734285Y-60744761D01*
X93781904Y-60697142D01*
X93829523Y-60601904D01*
X93829523Y-60506666D01*
X93781904Y-60411428D01*
X93734285Y-60363809D01*
X93639047Y-60316190D01*
X93448571Y-60268571D01*
X93353333Y-60220952D01*
X93305714Y-60173333D01*
X93258095Y-60078095D01*
X93258095Y-59982857D01*
X93305714Y-59887619D01*
X93353333Y-59840000D01*
X93448571Y-59792380D01*
X93686666Y-59792380D01*
X93829523Y-59840000D01*
X94258095Y-60268571D02*
X94591428Y-60268571D01*
X94734285Y-60792380D02*
X94258095Y-60792380D01*
X94258095Y-59792380D01*
X94734285Y-59792380D01*
X95162857Y-60792380D02*
X95162857Y-59792380D01*
X95734285Y-60792380D01*
X95734285Y-59792380D01*
X93884761Y-73977142D02*
X93837142Y-74024761D01*
X93694285Y-74072380D01*
X93599047Y-74072380D01*
X93456190Y-74024761D01*
X93360952Y-73929523D01*
X93313333Y-73834285D01*
X93265714Y-73643809D01*
X93265714Y-73500952D01*
X93313333Y-73310476D01*
X93360952Y-73215238D01*
X93456190Y-73120000D01*
X93599047Y-73072380D01*
X93694285Y-73072380D01*
X93837142Y-73120000D01*
X93884761Y-73167619D01*
X94789523Y-74072380D02*
X94313333Y-74072380D01*
X94313333Y-73072380D01*
X95122857Y-74072380D02*
X95122857Y-73072380D01*
X95694285Y-74072380D02*
X95265714Y-73500952D01*
X95694285Y-73072380D02*
X95122857Y-73643809D01*
%TO.C,*%
D12*
%TO.C,X1*%
X106409998Y-77460000D02*
X109559998Y-77460000D01*
X109559998Y-77460000D02*
X109559998Y-73660000D01*
D10*
%TO.C,U1*%
X103305000Y-72985000D02*
X103305000Y-73285000D01*
X103305000Y-76110000D02*
X104530000Y-76110000D01*
X103305000Y-76335000D02*
X99955000Y-76335000D01*
X103305000Y-72985000D02*
X99955000Y-72985000D01*
X103305000Y-76335000D02*
X103305000Y-76110000D01*
X99955000Y-72985000D02*
X99955000Y-73285000D01*
X99955000Y-76335000D02*
X99955000Y-76035000D01*
%TO.C,U2*%
X107955000Y-63495000D02*
X107630000Y-63495000D01*
X100705000Y-63495000D02*
X100705000Y-63720000D01*
X100705000Y-63720000D02*
X99280000Y-63720000D01*
X100705000Y-70745000D02*
X100705000Y-70420000D01*
X100705000Y-70745000D02*
X101030000Y-70745000D01*
X107955000Y-63495000D02*
X107955000Y-63820000D01*
X107955000Y-70745000D02*
X107630000Y-70745000D01*
X100705000Y-63495000D02*
X101030000Y-63495000D01*
X107955000Y-70745000D02*
X107955000Y-70420000D01*
%TD*%
M02*
