%TF.GenerationSoftware,KiCad,Pcbnew,(6.0.10)*%
%TF.CreationDate,2023-05-20T13:35:36+10:00*%
%TF.ProjectId,DFO,44464f2e-6b69-4636-9164-5f7063625858,rev?*%
%TF.SameCoordinates,Original*%
%TF.FileFunction,Copper,L2,Bot*%
%TF.FilePolarity,Positive*%
%FSLAX46Y46*%
G04 Gerber Fmt 4.6, Leading zero omitted, Abs format (unit mm)*
G04 Created by KiCad (PCBNEW (6.0.10)) date 2023-05-20 13:35:36*
%MOMM*%
%LPD*%
G01*
G04 APERTURE LIST*
%TA.AperFunction,ViaPad*%
%ADD10C,0.800000*%
%TD*%
%TA.AperFunction,Conductor*%
%ADD11C,0.450000*%
%TD*%
%TA.AperFunction,Conductor*%
%ADD12C,0.250000*%
%TD*%
G04 APERTURE END LIST*
D10*
%TO.N,*%
X108760000Y-62950000D03*
%TO.N,+3.3V*%
X102120000Y-67510000D03*
X106080000Y-76170000D03*
X103300000Y-61000000D03*
X102750000Y-72840000D03*
%TO.N,Net-(R1-Pad2)*%
X104580000Y-64550000D03*
%TO.N,Net-(R2-Pad2)*%
X104620000Y-65720000D03*
%TO.N,GND*%
X98000000Y-68970000D03*
X97960000Y-76690000D03*
X108650000Y-71440000D03*
X110240000Y-73080000D03*
X102050000Y-65400000D03*
X99880000Y-71520000D03*
X104280000Y-69860000D03*
X98050000Y-64350000D03*
X100950000Y-60940000D03*
X110250000Y-71110000D03*
X106790000Y-64950000D03*
X110210000Y-76850000D03*
X98070000Y-60970000D03*
X100090000Y-77170000D03*
X101610000Y-74560000D03*
X108820000Y-60740000D03*
X110260000Y-74970000D03*
X108810000Y-73060000D03*
X98010000Y-72270000D03*
%TO.N,i2c-SCL*%
X107400000Y-73060000D03*
%TO.N,i2c-SDA*%
X105790000Y-73060000D03*
%TD*%
D11*
%TO.N,+3.3V*%
X102750000Y-72840000D02*
X106080000Y-76170000D01*
X102120000Y-72210000D02*
X102750000Y-72840000D01*
X102120000Y-67510000D02*
X103300000Y-66330000D01*
D12*
X102110000Y-67500000D02*
X102120000Y-67510000D01*
D11*
X103300000Y-66330000D02*
X103300000Y-61000000D01*
X102120000Y-67510000D02*
X102120000Y-72210000D01*
%TO.N,i2c-SCL*%
X104840000Y-64550000D02*
X107400000Y-67110000D01*
X107400000Y-67110000D02*
X107400000Y-73060000D01*
X104580000Y-64550000D02*
X104840000Y-64550000D01*
%TO.N,i2c-SDA*%
X105790000Y-66890000D02*
X105790000Y-73060000D01*
X104620000Y-65720000D02*
X105790000Y-66890000D01*
%TD*%
%TA.AperFunction,Conductor*%
%TO.N,GND*%
G36*
X107223332Y-59926508D02*
G01*
X110322786Y-59928160D01*
X110390896Y-59948198D01*
X110437361Y-60001879D01*
X110448718Y-60054709D01*
X110379069Y-75973794D01*
X110373691Y-77202958D01*
X110353391Y-77270991D01*
X110299532Y-77317249D01*
X110247435Y-77328407D01*
X106236739Y-77320241D01*
X106168660Y-77300100D01*
X106122276Y-77246350D01*
X106112315Y-77176055D01*
X106141940Y-77111535D01*
X106201744Y-77073273D01*
X106210795Y-77070995D01*
X106362288Y-77038794D01*
X106368319Y-77036109D01*
X106530722Y-76963803D01*
X106530724Y-76963802D01*
X106536752Y-76961118D01*
X106691253Y-76848866D01*
X106819040Y-76706944D01*
X106914527Y-76541556D01*
X106973542Y-76359928D01*
X106975729Y-76339125D01*
X106992814Y-76176565D01*
X106993504Y-76170000D01*
X106973542Y-75980072D01*
X106914527Y-75798444D01*
X106819040Y-75633056D01*
X106691253Y-75491134D01*
X106536752Y-75378882D01*
X106530724Y-75376198D01*
X106530722Y-75376197D01*
X106368319Y-75303891D01*
X106368318Y-75303891D01*
X106362288Y-75301206D01*
X106254330Y-75278259D01*
X106191433Y-75244107D01*
X103680513Y-72733187D01*
X103646487Y-72670875D01*
X103644298Y-72657264D01*
X103644232Y-72656637D01*
X103643542Y-72650072D01*
X103584527Y-72468444D01*
X103572876Y-72448263D01*
X103533400Y-72379890D01*
X103489040Y-72303056D01*
X103468343Y-72280069D01*
X103365675Y-72166045D01*
X103365674Y-72166044D01*
X103361253Y-72161134D01*
X103206752Y-72048882D01*
X103200724Y-72046198D01*
X103200722Y-72046197D01*
X103038319Y-71973891D01*
X103038318Y-71973891D01*
X103032288Y-71971206D01*
X102953303Y-71954417D01*
X102890829Y-71920688D01*
X102856508Y-71858539D01*
X102853500Y-71831170D01*
X102853500Y-68090301D01*
X102870381Y-68027301D01*
X102951223Y-67887279D01*
X102951224Y-67887278D01*
X102954527Y-67881556D01*
X103013542Y-67699928D01*
X103014232Y-67693365D01*
X103014234Y-67693355D01*
X103014299Y-67692735D01*
X103014437Y-67692400D01*
X103015606Y-67686900D01*
X103016612Y-67687114D01*
X103041313Y-67627079D01*
X103050512Y-67616814D01*
X103772580Y-66894745D01*
X103786994Y-66882358D01*
X103797752Y-66874441D01*
X103803651Y-66870100D01*
X103836631Y-66831280D01*
X103843561Y-66823764D01*
X103848945Y-66818380D01*
X103851208Y-66815519D01*
X103851213Y-66815514D01*
X103865932Y-66796909D01*
X103868721Y-66793507D01*
X103909653Y-66745328D01*
X103909656Y-66745324D01*
X103914392Y-66739749D01*
X103917721Y-66733228D01*
X103920842Y-66728549D01*
X103923778Y-66723795D01*
X103928318Y-66718057D01*
X103958189Y-66654146D01*
X103960099Y-66650239D01*
X103992176Y-66587418D01*
X103993614Y-66581541D01*
X104035793Y-66525083D01*
X104102290Y-66500209D01*
X104162009Y-66513900D01*
X104163248Y-66511118D01*
X104328856Y-66584851D01*
X104337712Y-66588794D01*
X104439825Y-66610499D01*
X104445668Y-66611741D01*
X104508566Y-66645892D01*
X105019595Y-67156920D01*
X105053620Y-67219233D01*
X105056500Y-67246016D01*
X105056500Y-72479699D01*
X105039619Y-72542699D01*
X104955473Y-72688444D01*
X104896458Y-72870072D01*
X104876496Y-73060000D01*
X104896458Y-73249928D01*
X104955473Y-73431556D01*
X105050960Y-73596944D01*
X105178747Y-73738866D01*
X105333248Y-73851118D01*
X105339276Y-73853802D01*
X105339278Y-73853803D01*
X105501681Y-73926109D01*
X105507712Y-73928794D01*
X105601113Y-73948647D01*
X105688056Y-73967128D01*
X105688061Y-73967128D01*
X105694513Y-73968500D01*
X105885487Y-73968500D01*
X105891939Y-73967128D01*
X105891944Y-73967128D01*
X105978887Y-73948647D01*
X106072288Y-73928794D01*
X106078319Y-73926109D01*
X106240722Y-73853803D01*
X106240724Y-73853802D01*
X106246752Y-73851118D01*
X106401253Y-73738866D01*
X106501365Y-73627681D01*
X106561810Y-73590441D01*
X106632793Y-73591793D01*
X106688635Y-73627681D01*
X106788747Y-73738866D01*
X106943248Y-73851118D01*
X106949276Y-73853802D01*
X106949278Y-73853803D01*
X107111681Y-73926109D01*
X107117712Y-73928794D01*
X107211113Y-73948647D01*
X107298056Y-73967128D01*
X107298061Y-73967128D01*
X107304513Y-73968500D01*
X107495487Y-73968500D01*
X107501939Y-73967128D01*
X107501944Y-73967128D01*
X107588887Y-73948647D01*
X107682288Y-73928794D01*
X107688319Y-73926109D01*
X107850722Y-73853803D01*
X107850724Y-73853802D01*
X107856752Y-73851118D01*
X108011253Y-73738866D01*
X108139040Y-73596944D01*
X108234527Y-73431556D01*
X108293542Y-73249928D01*
X108313504Y-73060000D01*
X108293542Y-72870072D01*
X108234527Y-72688444D01*
X108150381Y-72542699D01*
X108133500Y-72479699D01*
X108133500Y-67175174D01*
X108134933Y-67156223D01*
X108136944Y-67143007D01*
X108136944Y-67143004D01*
X108138044Y-67135774D01*
X108133915Y-67085013D01*
X108133500Y-67074798D01*
X108133500Y-67067174D01*
X108130324Y-67039934D01*
X108129895Y-67035594D01*
X108124771Y-66972593D01*
X108124770Y-66972589D01*
X108124177Y-66965296D01*
X108121921Y-66958332D01*
X108120819Y-66952817D01*
X108119533Y-66947378D01*
X108118686Y-66940110D01*
X108116189Y-66933232D01*
X108116188Y-66933226D01*
X108094618Y-66873803D01*
X108093208Y-66869700D01*
X108071465Y-66802580D01*
X108067665Y-66796317D01*
X108065322Y-66791201D01*
X108062824Y-66786212D01*
X108060327Y-66779333D01*
X108021661Y-66720357D01*
X108019315Y-66716639D01*
X107985647Y-66661157D01*
X107982733Y-66656355D01*
X107975571Y-66648245D01*
X107975588Y-66648230D01*
X107972655Y-66644921D01*
X107970558Y-66642413D01*
X107966546Y-66636294D01*
X107912242Y-66584851D01*
X107909800Y-66582474D01*
X105404748Y-64077423D01*
X105392361Y-64063010D01*
X105384441Y-64052248D01*
X105380100Y-64046349D01*
X105341280Y-64013369D01*
X105333764Y-64006439D01*
X105328380Y-64001055D01*
X105325519Y-63998792D01*
X105325514Y-63998787D01*
X105306909Y-63984068D01*
X105303508Y-63981279D01*
X105254281Y-63939458D01*
X105242228Y-63927748D01*
X105191253Y-63871134D01*
X105171976Y-63857128D01*
X105042094Y-63762763D01*
X105042093Y-63762762D01*
X105036752Y-63758882D01*
X105030724Y-63756198D01*
X105030722Y-63756197D01*
X104868319Y-63683891D01*
X104868318Y-63683891D01*
X104862288Y-63681206D01*
X104768887Y-63661353D01*
X104681944Y-63642872D01*
X104681939Y-63642872D01*
X104675487Y-63641500D01*
X104484513Y-63641500D01*
X104478061Y-63642872D01*
X104478056Y-63642872D01*
X104391113Y-63661353D01*
X104297712Y-63681206D01*
X104291685Y-63683889D01*
X104291677Y-63683892D01*
X104210748Y-63719924D01*
X104140381Y-63729358D01*
X104076084Y-63699251D01*
X104038271Y-63639162D01*
X104033500Y-63604817D01*
X104033500Y-62950000D01*
X107846496Y-62950000D01*
X107866458Y-63139928D01*
X107925473Y-63321556D01*
X108020960Y-63486944D01*
X108148747Y-63628866D01*
X108303248Y-63741118D01*
X108309276Y-63743802D01*
X108309278Y-63743803D01*
X108471681Y-63816109D01*
X108477712Y-63818794D01*
X108571113Y-63838647D01*
X108658056Y-63857128D01*
X108658061Y-63857128D01*
X108664513Y-63858500D01*
X108855487Y-63858500D01*
X108861939Y-63857128D01*
X108861944Y-63857128D01*
X108948887Y-63838647D01*
X109042288Y-63818794D01*
X109048319Y-63816109D01*
X109210722Y-63743803D01*
X109210724Y-63743802D01*
X109216752Y-63741118D01*
X109371253Y-63628866D01*
X109499040Y-63486944D01*
X109594527Y-63321556D01*
X109653542Y-63139928D01*
X109673504Y-62950000D01*
X109653542Y-62760072D01*
X109594527Y-62578444D01*
X109499040Y-62413056D01*
X109371253Y-62271134D01*
X109216752Y-62158882D01*
X109210724Y-62156198D01*
X109210722Y-62156197D01*
X109048319Y-62083891D01*
X109048318Y-62083891D01*
X109042288Y-62081206D01*
X108948888Y-62061353D01*
X108861944Y-62042872D01*
X108861939Y-62042872D01*
X108855487Y-62041500D01*
X108664513Y-62041500D01*
X108658061Y-62042872D01*
X108658056Y-62042872D01*
X108571112Y-62061353D01*
X108477712Y-62081206D01*
X108471682Y-62083891D01*
X108471681Y-62083891D01*
X108309278Y-62156197D01*
X108309276Y-62156198D01*
X108303248Y-62158882D01*
X108148747Y-62271134D01*
X108020960Y-62413056D01*
X107925473Y-62578444D01*
X107866458Y-62760072D01*
X107846496Y-62950000D01*
X104033500Y-62950000D01*
X104033500Y-61580301D01*
X104050381Y-61517301D01*
X104131223Y-61377279D01*
X104131224Y-61377278D01*
X104134527Y-61371556D01*
X104193542Y-61189928D01*
X104213504Y-61000000D01*
X104193542Y-60810072D01*
X104134527Y-60628444D01*
X104039040Y-60463056D01*
X103911253Y-60321134D01*
X103756752Y-60208882D01*
X103750724Y-60206198D01*
X103750722Y-60206197D01*
X103659859Y-60165742D01*
X103605763Y-60119761D01*
X103585114Y-60051834D01*
X103604467Y-59983526D01*
X103657677Y-59936525D01*
X103711173Y-59924635D01*
X107223332Y-59926508D01*
G37*
%TD.AperFunction*%
%TA.AperFunction,Conductor*%
G36*
X102889943Y-59924198D02*
G01*
X102958053Y-59944236D01*
X103004518Y-59997917D01*
X103014584Y-60068196D01*
X102985056Y-60132761D01*
X102941124Y-60165305D01*
X102849281Y-60206195D01*
X102849274Y-60206199D01*
X102843248Y-60208882D01*
X102688747Y-60321134D01*
X102560960Y-60463056D01*
X102465473Y-60628444D01*
X102406458Y-60810072D01*
X102386496Y-61000000D01*
X102406458Y-61189928D01*
X102465473Y-61371556D01*
X102468776Y-61377278D01*
X102468777Y-61377279D01*
X102549619Y-61517301D01*
X102566500Y-61580301D01*
X102566500Y-65973983D01*
X102546498Y-66042104D01*
X102529596Y-66063078D01*
X102008568Y-66584107D01*
X101945669Y-66618259D01*
X101837712Y-66641206D01*
X101831682Y-66643891D01*
X101831681Y-66643891D01*
X101669278Y-66716197D01*
X101669276Y-66716198D01*
X101663248Y-66718882D01*
X101657907Y-66722762D01*
X101657906Y-66722763D01*
X101634527Y-66739749D01*
X101508747Y-66831134D01*
X101380960Y-66973056D01*
X101285473Y-67138444D01*
X101226458Y-67320072D01*
X101206496Y-67510000D01*
X101226458Y-67699928D01*
X101285473Y-67881556D01*
X101288776Y-67887278D01*
X101288777Y-67887279D01*
X101369619Y-68027301D01*
X101386500Y-68090301D01*
X101386500Y-72144834D01*
X101385067Y-72163783D01*
X101381957Y-72184227D01*
X101382550Y-72191519D01*
X101382550Y-72191522D01*
X101386085Y-72234979D01*
X101386500Y-72245194D01*
X101386500Y-72252826D01*
X101386922Y-72256445D01*
X101386923Y-72256464D01*
X101389675Y-72280069D01*
X101390107Y-72284435D01*
X101395823Y-72354704D01*
X101398081Y-72361673D01*
X101399184Y-72367193D01*
X101400466Y-72372618D01*
X101401314Y-72379890D01*
X101403811Y-72386769D01*
X101425382Y-72446196D01*
X101426810Y-72450356D01*
X101446280Y-72510458D01*
X101446282Y-72510462D01*
X101448536Y-72517420D01*
X101452330Y-72523672D01*
X101454672Y-72528788D01*
X101457176Y-72533789D01*
X101459673Y-72540667D01*
X101463683Y-72546784D01*
X101463686Y-72546789D01*
X101498347Y-72599654D01*
X101500695Y-72603376D01*
X101537267Y-72663645D01*
X101540979Y-72667848D01*
X101544429Y-72671755D01*
X101544412Y-72671770D01*
X101547346Y-72675080D01*
X101549442Y-72677587D01*
X101553454Y-72683706D01*
X101558766Y-72688738D01*
X101607776Y-72735166D01*
X101610218Y-72737544D01*
X101819488Y-72946814D01*
X101853514Y-73009126D01*
X101855702Y-73022735D01*
X101856458Y-73029928D01*
X101915473Y-73211556D01*
X102010960Y-73376944D01*
X102138747Y-73518866D01*
X102293248Y-73631118D01*
X102299276Y-73633802D01*
X102299278Y-73633803D01*
X102461681Y-73706109D01*
X102467712Y-73708794D01*
X102575670Y-73731741D01*
X102638567Y-73765893D01*
X105149487Y-76276813D01*
X105183513Y-76339125D01*
X105185702Y-76352736D01*
X105186458Y-76359928D01*
X105245473Y-76541556D01*
X105340960Y-76706944D01*
X105468747Y-76848866D01*
X105623248Y-76961118D01*
X105629276Y-76963802D01*
X105629278Y-76963803D01*
X105791681Y-77036109D01*
X105797712Y-77038794D01*
X105804164Y-77040166D01*
X105804169Y-77040167D01*
X105946164Y-77070349D01*
X106008638Y-77104078D01*
X106042959Y-77166227D01*
X106038231Y-77237066D01*
X105995955Y-77294104D01*
X105929553Y-77319231D01*
X105919718Y-77319596D01*
X96999508Y-77301434D01*
X92757025Y-77292796D01*
X92688946Y-77272655D01*
X92642562Y-77218905D01*
X92631283Y-77166244D01*
X92706351Y-60044285D01*
X92726652Y-59976252D01*
X92780511Y-59929995D01*
X92832417Y-59918837D01*
X102889943Y-59924198D01*
G37*
%TD.AperFunction*%
%TD*%
M02*
