M48
; DRILL file {KiCad (6.0.10)} date Sat May 20 13:46:06 2023
; FORMAT={2:4/ absolute / inch / suppress leading zeros}
; #@! TF.CreationDate,2023-05-20T13:46:06+10:00
; #@! TF.GenerationSoftware,Kicad,Pcbnew,(6.0.10)
; #@! TF.FileFunction,Plated,1,2,PTH
FMAT,2
INCH,TZ
; #@! TA.AperFunction,Plated,PTH,ViaDrill
T1C0.0157
; #@! TA.AperFunction,Plated,PTH,ViaDrill
T2C0.0177
%
G90
G05
T1
X38567Y-30193
X38583Y-27154
X38587Y-28453
X38602Y-25335
X38610Y-24004
X39323Y-28157
X39406Y-30382
X39744Y-23992
X40004Y-29354
X40177Y-25748
X40205Y-26579
X40453Y-28677
X40669Y-24016
X41055Y-27504
X41189Y-25874
X41650Y-28764
X41764Y-29988
X42043Y-25571
X42283Y-28764
X42776Y-28126
X42819Y-24783
X42839Y-28764
X42843Y-23913
X43390Y-30256
X43402Y-28772
X43406Y-27996
X43409Y-29516
T2
X41173Y-25413
T0
M30
